<svg xmlns="http://www.w3.org/2000/svg" width="190" height="30" viewBox="0 0 190 30" fill="none">
<path d="M188.984 22.8613C188.841 24.1243 188.184 25.4069 187.012 26.709C185.189 28.7793 182.637 29.8145 179.355 29.8145C176.647 29.8145 174.258 28.9421 172.188 27.1973C170.117 25.4525 169.082 22.6139 169.082 18.6816C169.082 14.9967 170.013 12.1712 171.875 10.2051C173.75 8.23893 176.178 7.25586 179.16 7.25586C180.931 7.25586 182.526 7.58789 183.945 8.25195C185.365 8.91602 186.536 9.96419 187.461 11.3965C188.294 12.6595 188.835 14.1243 189.082 15.791C189.225 16.7676 189.284 18.1738 189.258 20.0098H174.688C174.766 22.1452 175.436 23.6426 176.699 24.502C177.467 25.0358 178.392 25.3027 179.473 25.3027C180.618 25.3027 181.549 24.9772 182.266 24.3262C182.656 23.9746 183.001 23.4863 183.301 22.8613H188.984ZM183.477 16.3379C183.385 14.8665 182.936 13.7533 182.129 12.998C181.335 12.2298 180.345 11.8457 179.16 11.8457C177.871 11.8457 176.868 12.2493 176.152 13.0566C175.449 13.8639 175.007 14.9577 174.824 16.3379H183.477Z" fill="#292929"/>
<path d="M165.879 12.959C163.639 12.959 162.135 13.6882 161.367 15.1465C160.938 15.9668 160.723 17.2298 160.723 18.9355V29.1113H155.117V7.82227H160.43V11.5332C161.289 10.1139 162.038 9.14388 162.676 8.62305C163.717 7.75065 165.072 7.31445 166.738 7.31445C166.842 7.31445 166.927 7.32096 166.992 7.33398C167.07 7.33398 167.233 7.34049 167.48 7.35352V13.0566C167.129 13.0176 166.816 12.9915 166.543 12.9785C166.27 12.9655 166.048 12.959 165.879 12.959Z" fill="#292929"/>
<path d="M144.375 26.1035C144.323 26.1686 144.193 26.3639 143.984 26.6895C143.776 27.015 143.529 27.3014 143.242 27.5488C142.37 28.3301 141.523 28.8639 140.703 29.1504C139.896 29.4368 138.945 29.5801 137.852 29.5801C134.701 29.5801 132.578 28.4473 131.484 26.1816C130.872 24.9316 130.566 23.0892 130.566 20.6543V7.82227H136.27V20.6543C136.27 21.8652 136.413 22.7767 136.699 23.3887C137.207 24.4694 138.203 25.0098 139.688 25.0098C141.589 25.0098 142.891 24.2415 143.594 22.7051C143.958 21.8717 144.141 20.7715 144.141 19.4043V7.82227H149.785V29.1113H144.375V26.1035Z" fill="#292929"/>
<path d="M127.148 25.1465V29.3066L124.512 29.4043C121.882 29.4954 120.085 29.0397 119.121 28.0371C118.496 27.3991 118.184 26.416 118.184 25.0879V11.9824H115.215V8.01758H118.184V2.08008H123.691V8.01758H127.148V11.9824H123.691V23.2324C123.691 24.1048 123.802 24.6517 124.023 24.873C124.245 25.0814 124.922 25.1855 126.055 25.1855C126.224 25.1855 126.4 25.1855 126.582 25.1855C126.777 25.1725 126.966 25.1595 127.148 25.1465Z" fill="#292929"/>
<path d="M111.992 7.82227V29.1113H106.348V7.82227H111.992ZM111.992 0.146484V5.2832H106.348V0.146484H111.992Z" fill="#292929"/>
<path d="M91.8359 11.9434C89.9479 11.9434 88.6523 12.7441 87.9492 14.3457C87.5846 15.1921 87.4023 16.2728 87.4023 17.5879V29.1113H81.8555V7.86133H87.2266V10.9668C87.9427 9.87305 88.6198 9.08529 89.2578 8.60352C90.4036 7.74414 91.8555 7.31445 93.6133 7.31445C95.8138 7.31445 97.6107 7.89388 99.0039 9.05273C100.41 10.1986 101.113 12.1061 101.113 14.7754V29.1113H95.4102V16.1621C95.4102 15.0423 95.2604 14.1829 94.9609 13.584C94.4141 12.4902 93.3724 11.9434 91.8359 11.9434Z" fill="#292929"/>
<path d="M65.5859 17.8223H59.375V29.1113H53.4961V0.322266H67.6172C69.6354 0.361328 71.1849 0.608724 72.2656 1.06445C73.3594 1.52018 74.2839 2.19076 75.0391 3.07617C75.6641 3.80534 76.1589 4.61263 76.5234 5.49805C76.888 6.38346 77.0703 7.39258 77.0703 8.52539C77.0703 9.89258 76.7253 11.2402 76.0352 12.5684C75.3451 13.8835 74.2057 14.8145 72.6172 15.3613C73.9453 15.8952 74.8828 16.6569 75.4297 17.6465C75.9896 18.623 76.2695 20.1204 76.2695 22.1387V24.0723C76.2695 25.3874 76.3216 26.2793 76.4258 26.748C76.582 27.4902 76.9466 28.0371 77.5195 28.3887V29.1113H70.8984C70.7161 28.4733 70.5859 27.959 70.5078 27.5684C70.3516 26.7611 70.2669 25.9342 70.2539 25.0879L70.2148 22.4121C70.1888 20.5762 69.8503 19.3522 69.1992 18.7402C68.5612 18.1283 67.3568 17.8223 65.5859 17.8223ZM69.2383 12.5879C70.4362 12.041 71.0352 10.9603 71.0352 9.3457C71.0352 7.60091 70.4557 6.42904 69.2969 5.83008C68.6458 5.49154 67.6693 5.32227 66.3672 5.32227H59.375V13.0566H66.1914C67.5456 13.0566 68.5612 12.9004 69.2383 12.5879Z" fill="#292929"/>
<path d="M41.4844 18.0176V0.322266H47.5977V18.0176C47.5977 21.0775 47.1224 23.4603 46.1719 25.166C44.401 28.291 41.0221 29.8535 36.0352 29.8535C31.0482 29.8535 27.6628 28.291 25.8789 25.166C24.9284 23.4603 24.4531 21.0775 24.4531 18.0176V0.322266H30.5664V18.0176C30.5664 19.9967 30.8008 21.4421 31.2695 22.3535C31.9987 23.9681 33.5872 24.7754 36.0352 24.7754C38.4701 24.7754 40.0521 23.9681 40.7812 22.3535C41.25 21.4421 41.4844 19.9967 41.4844 18.0176Z" fill="#292929"/>
<path d="M20.4102 5.41992H5.97656V12.041H18.6133V17.041H5.97656V29.1113H0V0.361328H20.4102V5.41992Z" fill="#292929"/>
</svg>
