<svg width="46" height="50" viewBox="0 0 46 50" fill="none" xmlns="http://www.w3.org/2000/svg">
<g id="Group">
<path id="Vector" d="M45.5109 43.3685C45.5202 45.1143 44.7646 46.7801 43.4357 47.943C42.1069 49.1059 40.3327 49.6539 38.5637 49.4479C35.3802 48.9863 33.0474 46.2714 33.1249 43.1186V6.87066C33.0481 3.71441 35.3866 0.998212 38.5743 0.541323C40.3417 0.338599 42.1129 0.888091 43.4393 2.05058C44.7656 3.21307 45.5198 4.87701 45.5109 6.62082V43.3685Z" fill="#F9AB00"/>
<path id="Vector_2" d="M6.53669 37.3619C9.95696 37.3619 12.7296 40.0791 12.7296 43.431C12.7296 46.7829 9.95696 49.5001 6.53669 49.5001C3.11643 49.5001 0.34375 46.7829 0.34375 43.431C0.34375 40.0791 3.11643 37.3619 6.53669 37.3619ZM22.8317 18.9673C19.3952 19.1519 16.729 21.9768 16.8087 25.3487V41.6509C16.8087 46.0752 18.7951 48.761 21.7057 49.3335C23.5329 49.6964 25.4298 49.2348 26.8715 48.0762C28.3132 46.9177 29.1467 45.1852 29.1415 43.3581V25.0676C29.1445 23.4343 28.478 21.8682 27.2915 20.7212C26.105 19.5741 24.4981 18.9421 22.8317 18.9673Z" fill="#E37400"/>
</g>
</svg>
