<svg width="72" height="72" viewBox="0 0 72 72" fill="none" xmlns="http://www.w3.org/2000/svg">
<g id="amazon">
<path id="bg" d="M36 5C18.9016 5 5 18.9016 5 36C5 53.0984 18.9016 67 36 67C53.0984 67 67 53.0984 67 36C67 18.9016 53.0984 5 36 5Z" fill="#333333"/>
<g id="amazon_2">
<path fill-rule="evenodd" clip-rule="evenodd" d="M46.8223 40.5854C46.7299 40.4528 46.6367 40.3229 46.544 40.1937C45.7905 39.1434 45.0724 38.1423 45.0724 36.1357V28.6551C45.0724 28.395 45.0739 28.1367 45.0753 27.8804C45.0917 25.0123 45.1067 22.3951 43.0381 20.3929C41.2643 18.6241 38.3178 18 36.0643 18C31.657 18 26.7404 19.7046 25.7093 25.3532C25.6002 25.9532 26.0204 26.2673 26.4014 26.3556L30.8892 26.8592C31.3094 26.8371 31.6129 26.4087 31.6943 25.9773C32.0791 24.0308 33.6509 23.0958 35.4172 23.0958C36.3697 23.0958 37.4514 23.457 38.0152 24.3429C38.5965 25.2262 38.5873 26.4058 38.5791 27.4605C38.5781 27.5834 38.5771 27.7045 38.5771 27.8234V28.4504C38.1607 28.4987 37.7244 28.5444 37.275 28.5915C34.8275 28.8481 31.9917 29.1454 29.8678 30.1109C26.9682 31.4131 24.932 34.0629 24.932 37.9577C24.932 42.9491 27.9619 45.4444 31.8628 45.4444C35.1549 45.4444 36.9566 44.6387 39.4962 41.9539C39.6231 42.1445 39.7371 42.3203 39.8445 42.4859C40.4503 43.42 40.8457 44.0296 42.1508 45.1554C42.4954 45.3461 42.9512 45.3389 43.2565 45.0521C44.1812 44.1993 45.8603 42.6863 46.8071 41.8637C47.1851 41.5416 47.1181 41.0208 46.8223 40.5854ZM37.7109 38.4283C36.9758 39.7828 35.8049 40.6115 34.504 40.6115C32.7301 40.6115 31.6885 39.2068 31.6885 37.129C31.6885 33.0385 35.2286 32.2961 38.5762 32.2961C38.5762 32.5408 38.5784 32.7869 38.5806 33.0336C38.597 34.8853 38.6138 36.7737 37.7109 38.4283Z" fill="white"/>
<path d="M52.3572 48.7482C47.9243 52.1761 41.4956 54 35.9591 54C28.2026 54 21.2158 50.9952 15.9291 45.9927C15.5144 45.5994 15.8845 45.0622 16.3827 45.3676C22.0875 48.8468 29.141 50.9411 36.426 50.9411C41.341 50.9411 46.7428 49.8731 51.7131 47.6622C52.4629 47.3299 53.0912 48.1813 52.3572 48.7482Z" fill="white"/>
<path d="M49.0254 46.3607C50.4527 46.1799 53.6353 45.7801 54.2019 46.5401C54.7692 47.2995 53.5777 50.4223 53.0407 51.8298L53.0368 51.8401C52.8751 52.2645 53.2227 52.4339 53.5887 52.1122C55.9676 50.0279 56.5823 45.6589 56.0948 45.0257C55.6111 44.4013 51.4524 43.8606 48.9145 45.7288C48.5245 46.0186 48.5912 46.4134 49.0254 46.3607Z" fill="white"/>
</g>
</g>
</svg>
