<svg width="20" height="20" viewBox="0 0 20 20" fill="none" xmlns="http://www.w3.org/2000/svg">
<path d="M7.62701 13.757L2.70901 18.676C2.61894 18.772 2.51013 18.8486 2.3893 18.9009C2.26847 18.9533 2.13819 18.9803 2.00651 18.9803C1.87483 18.9803 1.74455 18.9533 1.62372 18.9009C1.50289 18.8486 1.39408 18.772 1.30401 18.676C1.20795 18.5859 1.13139 18.4771 1.07904 18.3563C1.0267 18.2354 0.999695 18.1052 0.999695 17.9735C0.999695 17.8418 1.0267 17.7115 1.07904 17.5907C1.13139 17.4699 1.20795 17.361 1.30401 17.271L6.97401 11.603C7.05863 11.5141 7.1604 11.4434 7.27317 11.3951C7.38593 11.3468 7.50733 11.3219 7.63001 11.3219C7.75269 11.3219 7.87409 11.3468 7.98686 11.3951C8.09962 11.4434 8.2014 11.5141 8.28601 11.603L11.374 14.694L17.374 7.92498C17.4552 7.82745 17.5576 7.74973 17.6733 7.69774C17.7891 7.64575 17.9152 7.62087 18.042 7.62498C18.1701 7.62226 18.2974 7.64579 18.4161 7.69412C18.5347 7.74244 18.6423 7.81454 18.732 7.90598C18.9015 8.07139 18.999 8.29695 19.0033 8.53375C19.0076 8.77056 18.9184 8.99951 18.755 9.17098L12.033 16.759C11.9519 16.8576 11.8501 16.9371 11.7349 16.9919C11.6196 17.0466 11.4936 17.0754 11.366 17.076C11.2383 17.0827 11.1106 17.062 10.9914 17.0155C10.8722 16.9689 10.7644 16.8975 10.675 16.806L7.62701 13.757ZM7.62701 8.13598L2.70901 13.05C2.61894 13.146 2.51013 13.2226 2.3893 13.2749C2.26847 13.3273 2.13819 13.3543 2.00651 13.3543C1.87483 13.3543 1.74455 13.3273 1.62372 13.2749C1.50289 13.2226 1.39408 13.146 1.30401 13.05C1.20795 12.9599 1.13139 12.8511 1.07904 12.7303C1.0267 12.6094 0.999695 12.4792 0.999695 12.3475C0.999695 12.2158 1.0267 12.0855 1.07904 11.9647C1.13139 11.8439 1.20795 11.735 1.30401 11.645L6.97401 5.98198C7.05863 5.89315 7.1604 5.82243 7.27317 5.77411C7.38593 5.72579 7.50733 5.70088 7.63001 5.70088C7.75269 5.70088 7.87409 5.72579 7.98686 5.77411C8.09962 5.82243 8.2014 5.89315 8.28601 5.98198L11.374 9.07298L17.374 2.30398C17.4552 2.20645 17.5576 2.12873 17.6733 2.07674C17.7891 2.02475 17.9152 1.99987 18.042 2.00398C18.1701 2.00126 18.2974 2.02479 18.4161 2.07312C18.5347 2.12144 18.6423 2.19354 18.732 2.28498C18.9011 2.45079 18.998 2.67657 19.0018 2.91337C19.0055 3.15017 18.9158 3.3789 18.752 3.54998L12.03 11.138C11.949 11.2365 11.8472 11.316 11.7319 11.3706C11.6166 11.4252 11.4906 11.4537 11.363 11.454C11.2353 11.4608 11.1077 11.4403 10.9885 11.3939C10.8694 11.3476 10.7615 11.2763 10.672 11.185L7.62701 8.13598Z" fill="#1D2939"/>
</svg>
