<svg width="88" height="88" viewBox="0 0 88 88" fill="none" xmlns="http://www.w3.org/2000/svg">
<g id="app_store">
<rect width="88" height="88" rx="8" fill="white"/>
<g id="Group 37390">
<circle id="bg" cx="44" cy="45" r="34" fill="url(#paint0_linear_396_771)"/>
<g id="app_store_2">
<path d="M49.7092 27.9283C50.4152 26.6739 49.9932 25.0718 48.7665 24.3498C47.5398 23.6278 45.9731 24.0594 45.267 25.3138L44.0356 27.5017L42.8041 25.3138C42.0981 24.0594 40.5314 23.6278 39.3047 24.3498C38.078 25.0718 37.6559 26.6739 38.3619 27.9283L41.0787 32.7553L32.4856 48.0229H25.5627C24.1474 48.0229 23 49.1962 23 50.6435C23 52.0908 24.1474 53.2641 25.5627 53.2641H49.6757C49.887 52.6961 50.1097 51.7213 49.8729 50.8255C49.5169 49.4788 48.2 48.0229 45.9932 48.0229H38.3993L49.7092 27.9283Z" fill="white"/>
<path d="M33.8183 56.1621C33.381 55.6655 32.4014 54.872 31.5424 54.6108C30.2326 54.2126 29.2396 54.4625 28.7387 54.6801L26.8297 58.0717C26.1237 59.3261 26.5458 60.9282 27.7725 61.6502C28.9992 62.3722 30.5659 61.9406 31.2719 60.6862L33.8183 56.1621Z" fill="white"/>
<path d="M58.5356 53.2641H62.4373C63.8526 53.2641 65 52.0908 65 50.6435C65 49.1962 63.8526 48.0229 62.4373 48.0229H55.5856L47.8676 34.3101C47.2942 34.8672 46.1949 36.2906 46.0288 37.9043C45.8152 39.979 46.1356 41.7261 47.0966 43.4368C50.3275 49.1883 53.5636 54.9373 56.7992 60.6862C57.5053 61.9406 59.072 62.3722 60.2987 61.6502C61.5254 60.9282 61.9475 59.3261 61.2414 58.0717L58.5356 53.2641Z" fill="white"/>
</g>
</g>
</g>
<defs>
<linearGradient id="paint0_linear_396_771" x1="44" y1="11" x2="44" y2="79" gradientUnits="userSpaceOnUse">
<stop stop-color="#2AC9FA"/>
<stop offset="1" stop-color="#1F65EB"/>
</linearGradient>
</defs>
</svg>
