<svg width="389" height="80" viewBox="0 0 389 80" fill="none" xmlns="http://www.w3.org/2000/svg">
<circle cx="40" cy="40" r="40" fill="url(#paint0_linear_441_992)"/>
<path d="M46.7166 19.9157C47.5472 18.44 47.0506 16.5551 45.6075 15.7057C44.1643 14.8563 42.3211 15.3641 41.4905 16.8399L40.0417 19.4139L38.5929 16.8399C37.7623 15.3641 35.9191 14.8563 34.4759 15.7057C33.0328 16.5551 32.5362 18.44 33.3668 19.9157L36.563 25.5945L26.4534 43.5564H18.3089C16.6438 43.5564 15.2939 44.9367 15.2939 46.6395C15.2939 48.3422 16.6438 49.7226 18.3089 49.7226H46.6771C46.9258 49.0543 47.1877 47.9075 46.9091 46.8536C46.4904 45.2692 44.941 43.5564 42.3448 43.5564H33.4108L46.7166 19.9157Z" fill="white"/>
<path d="M28.0213 53.1319C27.5069 52.5477 26.3544 51.6142 25.3438 51.3069C23.8028 50.8385 22.6347 51.1324 22.0453 51.3884L19.7995 55.3785C18.9689 56.8543 19.4655 58.7392 20.9086 59.5886C22.3518 60.438 24.195 59.9302 25.0256 58.4544L28.0213 53.1319Z" fill="white"/>
<path d="M57.1005 49.7226H61.6908C63.3559 49.7226 64.7057 48.3422 64.7057 46.6395C64.7057 44.9367 63.3559 43.5564 61.6908 43.5564H53.63L44.5499 27.4237C43.8754 28.0791 42.5821 29.7537 42.3867 31.6522C42.1354 34.093 42.5123 36.1484 43.6429 38.161C47.444 44.9274 51.2511 51.691 55.0578 58.4544C55.8884 59.9302 57.7316 60.438 59.1748 59.5886C60.6179 58.7392 61.1145 56.8543 60.2839 55.3785L57.1005 49.7226Z" fill="white"/>
<path d="M130.249 45.6022H112.067L107.701 58.4948H100L117.221 10.7954H125.223L142.444 58.4948H134.612L130.249 45.6022ZM113.95 39.6529H128.362L121.258 18.7291H121.059L113.95 39.6529Z" fill="#5F6368"/>
<path d="M179.637 41.1087C179.637 51.9157 173.852 58.859 165.124 58.859C162.912 58.9746 160.713 58.4653 158.778 57.3892C156.843 56.3132 155.25 54.7139 154.181 52.7746H154.016V69.9998H146.878V23.7184H153.788V29.5027H153.919C155.036 27.5726 156.656 25.9817 158.606 24.899C160.556 23.8164 162.763 23.2827 164.992 23.3546C173.819 23.3546 179.637 30.3317 179.637 41.1087ZM172.299 41.1087C172.299 34.0678 168.661 29.4389 163.109 29.4389C157.655 29.4389 153.986 34.1653 153.986 41.1087C153.986 48.1158 157.655 52.8084 163.109 52.8084C168.661 52.8084 172.299 48.2133 172.299 41.1087H172.299Z" fill="#5F6368"/>
<path d="M217.915 41.1087C217.915 51.9157 212.129 58.859 203.4 58.859C201.189 58.9746 198.99 58.4653 197.054 57.3892C195.119 56.3132 193.526 54.7139 192.458 52.7746H192.293V69.9998H185.154V23.7184H192.064V29.5027H192.195C193.313 27.5726 194.933 25.9817 196.883 24.899C198.832 23.8164 201.039 23.2827 203.268 23.3546C212.095 23.3546 217.915 30.3317 217.915 41.1087ZM210.576 41.1087C210.576 34.0678 206.937 29.4389 201.386 29.4389C195.931 29.4389 192.263 34.1653 192.263 41.1087C192.263 48.1158 195.931 52.8084 201.386 52.8084C206.937 52.8084 210.576 48.2133 210.576 41.1087Z" fill="#5F6368"/>
<path d="M243.209 45.2045C243.738 49.9347 248.333 53.0404 254.612 53.0404C260.629 53.0404 264.958 49.9345 264.958 45.6695C264.958 41.9671 262.347 39.7503 256.165 38.231L249.983 36.7418C241.224 34.6262 237.158 30.5299 237.158 23.8829C237.158 15.6529 244.33 10 254.511 10C264.594 10 271.504 15.6529 271.736 23.8829H264.53C264.099 19.1227 260.164 16.2494 254.413 16.2494C248.663 16.2494 244.728 19.1565 244.728 23.3878C244.728 26.7601 247.241 28.7444 253.389 30.2635L258.645 31.5539C268.431 33.8683 272.494 37.7996 272.494 44.7766C272.494 53.7005 265.389 59.2896 254.083 59.2896C243.505 59.2896 236.363 53.8318 235.901 45.2042L243.209 45.2045Z" fill="#5F6368"/>
<path d="M287.907 15.488V23.718H294.521V29.371H287.907V48.5429C287.907 51.5213 289.232 52.9093 292.139 52.9093C292.924 52.8956 293.708 52.8404 294.487 52.7441V58.3633C293.18 58.6075 291.851 58.7181 290.522 58.6934C283.481 58.6934 280.735 56.0488 280.735 49.3043V29.371H275.679V23.718H280.735V15.488H287.907Z" fill="#5F6368"/>
<path d="M298.347 41.1081C298.347 30.1661 304.791 23.2903 314.84 23.2903C324.923 23.2903 331.338 30.1659 331.338 41.1081C331.338 52.0802 324.957 58.926 314.84 58.926C304.727 58.926 298.347 52.0801 298.347 41.1081ZM324.064 41.1081C324.064 33.6021 320.625 29.172 314.84 29.172C309.056 29.172 305.616 33.6359 305.616 41.1081C305.616 48.6441 309.056 53.0405 314.84 53.0405C320.625 53.0405 324.064 48.6441 324.064 41.1081H324.064Z" fill="#5F6368"/>
<path d="M337.223 23.7181H344.031V29.6373H344.196C344.657 27.7886 345.74 26.1549 347.263 25.0106C348.787 23.8664 350.657 23.2815 352.561 23.3542C353.384 23.3513 354.204 23.4407 355.007 23.6205V30.2975C353.968 29.9802 352.885 29.8345 351.8 29.8662C350.763 29.8241 349.729 30.0069 348.769 30.4021C347.809 30.7974 346.947 31.3955 346.24 32.1557C345.533 32.9158 344.999 33.8199 344.675 34.8058C344.351 35.7917 344.244 36.8361 344.361 37.8673V58.4947H337.223L337.223 23.7181Z" fill="#5F6368"/>
<path d="M387.919 48.2803C386.959 54.5934 380.811 58.926 372.945 58.926C362.828 58.926 356.549 52.1477 356.549 41.2732C356.549 30.3649 362.862 23.2903 372.645 23.2903C382.267 23.2903 388.317 29.8997 388.317 40.4442V42.8899H363.755V43.3213C363.641 44.6011 363.802 45.8905 364.225 47.1037C364.648 48.3169 365.325 49.4261 366.209 50.3578C367.094 51.2895 368.167 52.0222 369.357 52.5074C370.547 52.9925 371.826 53.219 373.11 53.1717C374.797 53.3298 376.49 52.9391 377.937 52.0578C379.384 51.1765 380.508 49.8516 381.141 48.2802L387.919 48.2803ZM363.788 37.9009H381.175C381.239 36.7501 381.065 35.5985 380.662 34.5183C380.26 33.4382 379.639 32.4528 378.838 31.624C378.037 30.7952 377.074 30.1409 376.008 29.7022C374.942 29.2634 373.797 29.0498 372.645 29.0745C371.482 29.0676 370.33 29.2909 369.254 29.7317C368.179 30.1724 367.201 30.8218 366.378 31.6424C365.554 32.463 364.902 33.4386 364.457 34.5127C364.013 35.5869 363.785 36.7385 363.788 37.9009V37.9009Z" fill="#5F6368"/>
<defs>
<linearGradient id="paint0_linear_441_992" x1="40" y1="0" x2="40" y2="80" gradientUnits="userSpaceOnUse">
<stop stop-color="#2AC9FA"/>
<stop offset="1" stop-color="#1F65EB"/>
</linearGradient>
</defs>
</svg>
