<svg width="90" height="91" viewBox="0 0 90 91" fill="none" xmlns="http://www.w3.org/2000/svg">
<g id="bubble">
<g id="bubble_flair">
<path id="Vector" d="M89.9437 45.3117C89.9437 70.1485 83.7666 90.2835 76.1475 90.2835C72.1595 90.2835 68.5683 84.765 66.0513 75.9404C63.5314 84.765 59.9402 90.2835 55.9522 90.2835C51.5036 90.2835 47.5439 83.4151 45.0248 72.7532C42.5027 83.4151 38.5438 90.2835 34.0944 90.2835C30.0804 90.2835 26.4652 84.6939 23.9453 75.7699C21.4233 84.6939 17.811 90.2835 13.7962 90.2835C6.1771 90.2835 0 70.1485 0 45.3117C0 20.4749 6.1771 0.339844 13.7962 0.339844C17.811 0.339844 21.4233 5.92941 23.9453 14.8541C26.4652 5.92868 30.0804 0.339844 34.0944 0.339844C38.5438 0.339844 42.5027 7.2053 45.0248 17.8673C47.5439 7.2053 51.5036 0.339844 55.9522 0.339844C59.9402 0.339844 63.5343 5.85832 66.0513 14.683C68.5654 5.85832 72.1595 0.339844 76.1475 0.339844C83.7666 0.339844 89.9437 20.472 89.9437 45.3117Z" fill="url(#paint0_radial_299_53799)"/>
</g>
</g>
<defs>
<radialGradient id="paint0_radial_299_53799" cx="0" cy="0" r="1" gradientUnits="userSpaceOnUse" gradientTransform="translate(108.803 73.6004) rotate(-142.224) scale(146.829 70.4908)">
<stop offset="0.271" stop-color="#FECECA"/>
<stop offset="1" stop-color="#F87C71"/>
</radialGradient>
</defs>
</svg>
