<svg width="20" height="20" viewBox="0 0 20 20" fill="none" xmlns="http://www.w3.org/2000/svg">
<path d="M14.75 7.749C14.9104 7.91353 15.0002 8.13421 15.0002 8.364C15.0002 8.59378 14.9104 8.81447 14.75 8.979L11 12.729C10.9146 12.8182 10.8118 12.889 10.698 12.937C10.4906 13.0197 10.2594 13.0197 10.052 12.937C9.93891 12.8888 9.83684 12.818 9.752 12.729L5.97501 8.958C5.81307 8.80226 5.71956 8.58862 5.715 8.364C5.71208 8.24889 5.73376 8.13448 5.7786 8.02842C5.82344 7.92236 5.8904 7.8271 5.97501 7.749C6.13937 7.58866 6.35989 7.49891 6.58951 7.49891C6.81912 7.49891 7.03964 7.58866 7.20401 7.749L10.375 10.895L13.542 7.729C13.6185 7.64902 13.7106 7.58557 13.8126 7.54258C13.9146 7.49958 14.0243 7.47794 14.135 7.479C14.2505 7.47981 14.3646 7.50417 14.4703 7.55059C14.5761 7.59702 14.6712 7.66453 14.75 7.749Z" fill="#9B9B9B"/>
</svg>
