<svg width="1541" height="350" viewBox="0 0 1541 350" fill="none" xmlns="http://www.w3.org/2000/svg">
<path d="M2.13257 74.3695C44.4477 275.822 172.873 349.332 327.836 340.953C333.81 340.631 339.728 339.73 345.648 338.979C351.515 338.051 357.367 337.03 363.201 335.918C368.96 334.634 374.698 333.26 380.413 331.798C386.037 330.17 391.635 328.454 397.205 326.65C402.667 324.691 408.098 322.647 413.496 320.517C418.773 318.241 424.013 315.882 429.215 313.441C434.282 310.866 439.308 308.21 444.29 305.475C449.126 302.618 453.915 299.685 458.658 296.676C463.241 293.557 467.775 290.366 472.256 287.102C476.569 283.744 480.827 280.317 485.029 276.821C489.054 273.246 493.02 269.606 496.927 265.902C500.648 262.134 504.308 258.306 507.905 254.418C511.311 250.483 514.652 246.491 517.925 242.444C521.004 238.368 524.014 234.239 526.954 230.062C529.697 225.87 532.369 221.631 534.967 217.348C537.367 213.068 539.693 208.748 541.944 204.388C543.996 200.048 545.973 195.673 547.872 191.265C549.574 186.892 551.198 182.49 552.744 178.06C554.096 173.684 555.368 169.283 556.559 164.861C557.563 160.508 558.486 156.136 559.327 151.749C559.987 147.446 560.564 143.131 561.059 138.806C561.38 134.58 561.619 130.349 561.775 126.114C561.764 121.963 561.673 117.841 561.5 113.751C561.167 109.729 560.756 105.743 560.267 101.794C559.629 97.9531 558.911 94.1261 558.112 90.3154C557.18 86.6504 556.169 83.0061 555.079 79.3848C553.867 75.9179 552.579 72.4782 551.215 69.0682C549.742 65.8203 548.194 62.6065 546.574 59.4294C544.857 56.419 543.069 53.4493 541.212 50.523C539.272 47.7679 537.265 45.0605 535.192 42.4034C533.05 39.9186 530.844 37.4882 528.579 35.1146C526.256 32.9156 523.876 30.7773 521.442 28.7017C518.961 26.8005 516.43 24.9654 513.851 23.1982C511.236 21.6055 508.578 20.0841 505.88 18.6355C503.156 17.3599 500.396 16.1602 497.605 15.0378C494.797 14.0857 491.962 13.2129 489.104 12.4206C486.237 11.7985 483.352 11.2576 480.454 10.7988C477.554 10.5078 474.646 10.3003 471.733 10.1765C468.825 10.2184 465.92 10.3441 463.019 10.5515C460.133 10.9256 457.257 11.3813 454.391 11.9188C451.548 12.6217 448.725 13.4043 445.926 14.2656C443.153 15.2909 440.409 16.3928 437.697 17.57C435.02 18.9112 432.38 20.3251 429.78 21.81C427.222 23.4576 424.709 25.173 422.243 26.9542C419.83 28.8967 417.467 30.9013 415.157 32.9658C412.909 35.1902 410.718 37.4703 408.584 39.8041C406.524 42.2946 404.525 44.8349 402.588 47.4229C400.735 50.1634 398.946 52.9472 397.224 55.772C395.596 58.7442 394.036 61.7533 392.546 64.7968C391.16 67.9811 389.845 71.1959 388.602 74.4387C387.474 77.8147 386.418 81.2145 385.435 84.6358C384.578 88.1813 383.794 91.7443 383.084 95.3223C382.509 99.0147 382.008 102.718 381.581 106.431C381.299 110.225 381.09 114.045 380.956 117.892C380.971 121.807 381.061 125.721 381.227 129.633C381.546 133.602 381.942 137.585 382.413 141.583C383.043 145.623 383.747 149.652 384.525 153.666C385.465 157.732 386.478 161.781 387.564 165.811C388.815 169.877 390.138 173.921 391.531 177.941C393.091 181.983 394.721 185.998 396.419 189.984C398.284 193.979 400.216 197.941 402.215 201.869C404.379 205.791 406.607 209.677 408.901 213.525C411.356 217.352 413.873 221.138 416.453 224.882C419.189 228.591 421.985 232.255 424.841 235.873C427.849 239.442 430.913 242.964 434.033 246.436C437.298 249.846 440.618 253.205 443.99 256.509C447.499 259.741 451.059 262.917 454.668 266.037C458.406 269.071 462.19 272.047 466.02 274.965C469.969 277.785 473.962 280.544 477.995 283.242C482.138 285.834 486.319 288.362 490.539 290.827C494.855 293.176 499.207 295.46 503.592 297.677C508.063 299.771 512.565 301.798 517.096 303.757C521.7 305.586 526.331 307.347 530.987 309.039C535.702 310.594 540.44 312.079 545.199 313.493C550.003 314.768 554.826 315.972 559.666 317.104C564.537 318.093 569.424 319.01 574.322 319.855C579.238 320.555 584.163 321.183 589.097 321.738C594.034 322.147 598.977 322.484 603.923 322.749C608.863 322.868 613.8 322.915 618.732 322.89C623.65 322.72 628.558 322.48 633.456 322.168C638.321 321.715 643.179 321.191 648.029 320.597C652.835 319.863 657.62 319.063 662.385 318.193C667.092 317.191 671.784 316.12 676.46 314.98C681.057 313.716 685.635 312.384 690.193 310.986C694.661 309.471 699.107 307.889 703.528 306.242C707.847 304.488 712.14 302.669 716.405 300.787C720.559 298.807 724.683 296.764 728.775 294.661C732.746 292.468 736.684 290.217 740.588 287.909C744.361 285.521 748.099 283.077 751.799 280.578C755.36 278.012 758.883 275.393 762.366 272.721C765.704 269.996 769 267.219 772.253 264.393C775.357 261.526 778.417 258.612 781.43 255.65C784.29 252.662 787.102 249.629 789.867 246.552C792.474 243.462 795.033 240.331 797.542 237.16C799.892 233.989 802.19 230.78 804.437 227.536C806.525 224.305 808.56 221.04 810.541 217.743C812.363 214.473 814.131 211.173 815.845 207.845C817.401 204.558 818.902 201.245 820.346 197.907C821.636 194.623 822.87 191.318 824.047 187.992C825.074 184.732 826.044 181.455 826.956 178.162C827.724 174.948 828.434 171.72 829.085 168.48C829.598 165.332 830.053 162.174 830.45 159.008C830.718 155.915 830.927 152.848 831.073 149.804C831.101 146.844 831.07 143.883 830.981 140.924C830.78 138.085 830.522 135.25 830.205 132.422C829.786 129.722 829.31 127.031 828.777 124.352C828.153 121.806 827.473 119.274 826.737 116.759C825.922 114.383 825.051 112.025 824.126 109.689C823.133 107.496 822.088 105.327 820.989 103.185C819.835 101.187 818.63 99.2195 817.374 97.2836C816.075 95.4919 814.727 93.7357 813.332 92.0168C811.903 90.4418 810.431 88.9073 808.915 87.4154C807.375 86.0652 805.795 84.7606 804.177 83.5033C802.544 82.3848 800.875 81.317 799.176 80.3015C797.466 79.4209 795.729 78.5949 793.967 77.8248C792.201 77.186 790.414 76.6057 788.609 76.0846C786.805 75.691 784.989 75.3583 783.162 75.0872C781.339 74.9408 779.512 74.8566 777.683 74.8347C775.86 74.9356 774.042 75.0985 772.23 75.3229C770.428 75.6697 768.638 76.0771 766.863 76.5445C765.1 77.1349 763.357 77.7831 761.636 78.488C759.931 79.3172 758.254 80.2001 756.605 81.1355C754.979 82.1979 753.385 83.3089 751.825 84.4672C750.293 85.7535 748.799 87.0843 747.345 88.4578C745.927 89.9598 744.55 91.5008 743.217 93.0792C741.927 94.7851 740.683 96.5249 739.485 98.2967C738.34 100.195 737.242 102.123 736.194 104.077C735.208 106.155 734.271 108.256 733.385 110.379C732.57 112.622 731.807 114.883 731.095 117.161C730.462 119.554 729.882 121.961 729.356 124.379C728.918 126.906 728.532 129.441 728.199 131.984C727.963 134.628 727.78 137.277 727.65 139.929C727.624 142.674 727.651 145.419 727.731 148.163C727.921 150.99 728.164 153.814 728.459 156.632C728.87 159.525 729.333 162.409 729.848 165.285C730.484 168.224 731.17 171.152 731.908 174.068C732.769 177.036 733.681 179.988 734.643 182.925C735.73 185.903 736.867 188.863 738.052 191.804C739.365 194.774 740.726 197.723 742.135 200.65C743.671 203.595 745.253 206.516 746.882 209.411C748.636 212.313 750.436 215.188 752.281 218.034C754.25 220.877 756.263 223.689 758.318 226.47C760.494 229.236 762.712 231.969 764.971 234.668C767.347 237.342 769.763 239.98 772.218 242.583C774.785 245.149 777.39 247.678 780.032 250.168C782.781 252.613 785.565 255.018 788.383 257.383C791.302 259.693 794.254 261.961 797.237 264.187C800.314 266.35 803.422 268.469 806.559 270.544C809.782 272.548 813.033 274.507 816.31 276.421C819.664 278.256 823.044 280.045 826.449 281.786C829.921 283.444 833.415 285.053 836.931 286.615C840.506 288.087 844.1 289.51 847.714 290.883C851.376 292.163 855.056 293.393 858.752 294.573C862.485 295.655 866.233 296.686 869.995 297.667C873.784 298.548 877.585 299.378 881.397 300.156C885.226 300.832 889.063 301.457 892.908 302.031C896.76 302.502 900.618 302.921 904.48 303.289C908.339 303.554 912.201 303.767 916.065 303.93C919.918 303.991 923.768 304 927.613 303.958C931.442 303.817 935.264 303.624 939.077 303.382C942.867 303.042 946.645 302.652 950.41 302.214C954.137 301.68 957.856 301.098 961.567 300.467C965.234 299.745 968.88 298.977 972.506 298.162C976.078 297.262 979.637 296.315 983.183 295.321C986.656 294.249 990.115 293.131 993.559 291.969C996.922 290.734 1000.27 289.456 1003.6 288.134C1006.84 286.747 1010.06 285.318 1013.26 283.847C1016.37 282.318 1019.45 280.75 1022.52 279.142C1025.48 277.485 1028.42 275.788 1031.34 274.053C1034.15 272.28 1036.94 270.469 1039.7 268.621C1042.36 266.744 1044.98 264.831 1047.58 262.884C1050.07 260.916 1052.52 258.916 1054.96 256.882C1057.27 254.839 1059.55 252.765 1061.81 250.66C1063.94 248.555 1066.05 246.422 1068.13 244.259C1070.09 242.107 1072.01 239.928 1073.91 237.723C1075.68 235.539 1077.43 233.33 1079.14 231.098C1080.73 228.896 1082.29 226.672 1083.82 224.426C1085.23 222.222 1086.6 219.997 1087.95 217.753C1089.18 215.56 1090.37 213.35 1091.54 211.121C1092.58 208.955 1093.6 206.773 1094.59 204.575C1095.46 202.448 1096.3 200.308 1097.11 198.155C1097.81 196.082 1098.49 193.997 1099.12 191.903C1099.66 189.896 1100.17 187.88 1100.65 185.856C1101.03 183.928 1101.38 181.994 1101.7 180.054C1101.93 178.217 1102.13 176.375 1102.3 174.53C1102.39 172.794 1102.45 171.056 1102.47 169.318C1102.44 167.693 1102.36 166.069 1102.26 164.448C1102.1 162.944 1101.9 161.444 1101.68 159.949C1101.41 158.575 1101.1 157.207 1100.77 155.847C1100.39 154.609 1099.99 153.381 1099.56 152.164C1099.1 151.068 1098.61 149.986 1098.08 148.918C1097.55 147.97 1096.98 147.04 1096.39 146.129C1095.79 145.333 1095.16 144.559 1094.5 143.808C1093.85 143.167 1093.17 142.553 1092.47 141.967C1091.78 141.483 1091.06 141.031 1090.33 140.612C1089.59 140.283 1088.86 139.995 1088.11 139.749C1087.37 139.584 1086.62 139.459 1085.87 139.376C1085.12 139.374 1084.38 139.413 1083.63 139.492C1082.89 139.654 1082.16 139.854 1081.44 140.093C1080.73 140.413 1080.03 140.771 1079.33 141.169C1078.65 141.653 1077.99 142.168 1077.35 142.71C1076.71 143.349 1076.1 144.013 1075.51 144.701C1074.94 145.489 1074.39 146.298 1073.87 147.124C1073.37 148.055 1072.89 149.002 1072.45 149.962C1072.03 151.028 1071.64 152.105 1071.28 153.193C1070.95 154.384 1070.65 155.584 1070.39 156.79C1070.16 158.099 1069.97 159.413 1069.8 160.731C1069.69 162.147 1069.6 163.565 1069.55 164.985C1069.55 166.476 1069.58 167.989 1069.64 169.525C1069.77 171.125 1069.93 172.723 1070.11 174.318C1070.37 175.994 1070.65 177.666 1070.96 179.332C1071.35 181.053 1071.76 182.788 1072.22 184.536C1072.74 186.331 1073.3 188.117 1073.88 189.894C1074.55 191.731 1075.24 193.557 1075.96 195.373C1076.77 197.24 1077.61 199.095 1078.47 200.937C1079.41 202.806 1080.39 204.677 1081.4 206.552C1082.5 208.445 1083.61 210.322 1084.76 212.184C1086 214.072 1087.26 215.943 1088.54 217.797C1089.92 219.67 1091.31 221.524 1092.74 223.359C1094.25 225.205 1095.79 227.031 1097.34 228.837C1098.99 230.646 1100.66 232.433 1102.35 234.199C1104.12 235.96 1105.92 237.699 1107.73 239.414C1109.63 241.118 1111.55 242.798 1113.49 244.455C1115.5 246.092 1117.54 247.704 1119.6 249.292C1121.72 250.854 1123.87 252.39 1126.03 253.901C1128.26 255.379 1130.51 256.831 1132.78 258.256C1135.1 259.644 1137.45 261.005 1139.81 262.337C1142.22 263.624 1144.65 264.887 1147.1 266.123C1149.59 267.308 1152.1 268.467 1154.63 269.598C1157.18 270.675 1159.76 271.724 1162.36 272.746C1164.98 273.71 1167.62 274.646 1170.27 275.552C1172.95 276.401 1175.63 277.22 1178.34 278.009C1181.05 278.739 1183.78 279.438 1186.52 280.108C1189.27 280.716 1192.03 281.294 1194.79 281.842C1197.56 282.328 1200.35 282.783 1203.12 283.208C1205.91 283.571 1208.71 283.904 1211.5 284.207C1214.28 284.448 1217.08 284.66 1219.87 284.84C1222.64 284.961 1225.43 285.051 1228.21 285.111C1230.97 285.112 1233.74 285.084 1236.49 285.028C1239.24 284.912 1241.97 284.769 1244.7 284.597C1247.4 284.369 1250.1 284.114 1252.79 283.831C1255.44 283.496 1258.1 283.133 1260.75 282.742C1263.37 282.301 1265.97 281.835 1268.55 281.345C1271.11 280.805 1273.65 280.243 1276.17 279.656C1278.65 279.028 1281.12 278.374 1283.59 277.695C1286.01 276.976 1288.41 276.239 1290.79 275.48C1293.12 274.682 1295.45 273.867 1297.74 273.032C1299.99 272.168 1302.22 271.282 1304.45 270.374C1306.62 269.44 1308.77 268.492 1310.88 267.529C1312.96 266.539 1315.01 265.536 1317.04 264.521C1319.01 263.491 1320.96 262.443 1322.91 261.375C1324.78 260.306 1326.64 259.219 1328.48 258.115C1330.25 257.013 1332.01 255.897 1333.75 254.767C1335.42 253.643 1337.07 252.507 1338.72 251.358C1340.28 250.223 1341.84 249.074 1343.38 247.911C1344.86 246.758 1346.31 245.605 1347.74 244.453C1349.1 243.313 1350.45 242.165 1351.8 241.007C1353.06 239.879 1354.31 238.743 1355.56 237.599C1356.72 236.491 1357.88 235.375 1359.02 234.252C1360.11 233.156 1361.17 232.069 1362.21 230.989C1363.2 229.926 1364.18 228.873 1365.13 227.83C1366.04 226.808 1366.93 225.797 1367.79 224.798C1368.62 223.822 1369.43 222.86 1370.21 221.909C1370.97 220.986 1371.7 220.078 1372.41 219.184C1373.08 218.319 1373.74 217.47 1374.39 216.637C1375 215.836 1375.59 215.052 1376.18 214.284C1376.72 213.551 1377.25 212.835 1377.78 212.138C1378.27 211.477 1378.76 210.833 1379.23 210.209C1379.67 209.623 1380.11 209.056 1380.54 208.508C1380.95 208 1381.35 207.512 1381.74 207.044C1382.12 206.615 1382.48 206.208 1382.84 205.82C1383.18 205.473 1383.52 205.147 1383.86 204.843C1384.19 204.579 1384.52 204.336 1384.83 204.112C1385.14 203.932 1385.46 203.772 1385.76 203.633C1386.06 203.537 1386.37 203.459 1386.68 203.4C1386.99 203.383 1387.31 203.387 1387.62 203.411C1387.94 203.475 1388.26 203.56 1388.58 203.664C1388.91 203.806 1389.24 203.969 1389.59 204.15C1389.93 204.37 1390.29 204.608 1390.65 204.864C1391.03 205.156 1391.41 205.466 1391.81 205.795C1392.22 206.157 1392.64 206.537 1393.05 206.933C1393.5 207.361 1393.96 207.805 1394.43 208.265C1394.91 208.757 1395.4 209.262 1395.91 209.781C1396.46 210.342 1397.01 210.903 1397.55 211.466L1399.34 213.306C1399.97 213.954 1400.62 214.613 1401.29 215.284C1401.98 215.974 1402.68 216.675 1403.41 217.385C1404.16 218.113 1404.92 218.848 1405.71 219.592C1406.52 220.351 1407.34 221.116 1408.19 221.889C1409.06 222.673 1409.95 223.462 1410.87 224.257C1411.8 225.062 1412.76 225.87 1413.73 226.682C1414.73 227.5 1415.75 228.32 1416.78 229.144C1417.85 229.97 1418.93 230.798 1420.03 231.627C1421.16 232.456 1422.31 233.285 1423.47 234.114C1424.67 234.947 1425.88 235.772 1427.09 236.589C1428.34 237.408 1429.61 238.224 1430.9 239.037C1432.22 239.849 1433.55 240.65 1434.88 241.442C1436.25 242.229 1437.63 243.013 1439.03 243.79C1440.45 244.555 1441.89 245.315 1443.34 246.068C1444.83 246.81 1446.32 247.542 1447.81 248.263C1449.34 248.976 1450.88 249.676 1452.42 250.364C1453.98 251.038 1455.56 251.704 1457.15 252.36C1458.76 252.997 1460.38 253.624 1462 254.241C1463.65 254.838 1465.3 255.425 1466.97 256.001C1468.65 256.556 1470.33 257.099 1472.03 257.633C1473.74 258.143 1475.45 258.642 1477.16 259.129C1478.9 259.593 1480.63 260.045 1482.37 260.486C1484.12 260.905 1485.88 261.31 1487.64 261.703C1489.4 262.073 1491.17 262.43 1492.94 262.776C1494.71 263.097 1496.48 263.407 1498.27 263.705C1500.05 263.978 1501.83 264.24 1503.61 264.491C1505.39 264.717 1507.17 264.932 1508.95 265.135C1510.73 265.315 1512.5 265.484 1514.29 265.642C1516.06 265.777 1517.83 265.902 1519.59 266.015C1521.35 266.107 1523.11 266.189 1524.86 266.26C1526.61 266.311 1528.35 266.351 1530.08 266.383C1531.8 266.395 1533.53 266.398 1535.25 266.391C1536.96 266.367 1538.66 266.334 1540.34 266.293" stroke="url(#paint0_linear_1_4)" stroke-width="4.19086"/>
<path d="M293.718 345.655C296.446 343.508 296.917 339.555 294.77 336.827C292.623 334.099 288.671 333.628 285.942 335.775C283.214 337.922 282.743 341.875 284.89 344.603C287.038 347.331 290.99 347.802 293.718 345.655Z" fill="#FECECA"/>
<path d="M477.786 13.8293C480.514 11.6821 480.985 7.72981 478.838 5.00161C476.691 2.27342 472.739 1.80242 470.01 3.9496C467.282 6.09679 466.811 10.0491 468.958 12.7773C471.106 15.5054 475.058 15.9764 477.786 13.8293Z" fill="#B9291C"/>
<path d="M628.987 326.797C631.715 324.649 632.186 320.697 630.039 317.969C627.891 315.241 623.939 314.77 621.211 316.917C618.483 319.064 618.012 323.016 620.159 325.745C622.306 328.473 626.258 328.944 628.987 326.797Z" fill="#FECECA"/>
<path d="M781.952 79.5416C784.68 77.3945 785.151 73.4422 783.004 70.7141C780.857 67.9859 776.904 67.5149 774.176 69.6621C771.448 71.8092 770.977 75.7614 773.124 78.4896C775.271 81.2178 779.224 81.6888 781.952 79.5416Z" fill="#B9291C"/>
<path d="M932.823 307.938C935.552 305.791 936.023 301.839 933.875 299.111C931.728 296.382 927.776 295.911 925.048 298.058C922.319 300.206 921.848 304.158 923.996 306.886C926.143 309.614 930.095 310.085 932.823 307.938Z" fill="#FECECA"/>
<path d="M1089.98 144.499C1092.71 142.351 1093.18 138.399 1091.03 135.671C1088.89 132.943 1084.93 132.472 1082.21 134.619C1079.48 136.766 1079.01 140.718 1081.15 143.447C1083.3 146.175 1087.25 146.646 1089.98 144.499Z" fill="#B9291C"/>
<path d="M1246.09 289.08C1248.82 286.933 1249.29 282.981 1247.14 280.252C1244.99 277.524 1241.04 277.053 1238.31 279.2C1235.58 281.347 1235.11 285.3 1237.26 288.028C1239.41 290.756 1243.36 291.227 1246.09 289.08Z" fill="#FECECA"/>
<path d="M1390.67 206.312C1393.4 204.165 1393.87 200.212 1391.72 197.484C1389.58 194.756 1385.62 194.285 1382.9 196.432C1380.17 198.579 1379.7 202.532 1381.84 205.26C1383.99 207.988 1387.94 208.459 1390.67 206.312Z" fill="#B9291C"/>
<defs>
<linearGradient id="paint0_linear_1_4" x1="1067.69" y1="-40.5663" x2="1098.88" y2="449.005" gradientUnits="userSpaceOnUse">
<stop offset="0.140625" stop-color="#DC3526"/>
<stop offset="0.791667" stop-color="#FECECA"/>
</linearGradient>
</defs>
</svg>
