<svg width="191" height="190" viewBox="0 0 191 190" fill="none" xmlns="http://www.w3.org/2000/svg">
<path id="Star 3" d="M79.7373 0.649383L95.7684 90.2634L122.166 3.13795L97.7273 90.833L159.313 23.7891L99.2451 92.1962L183.821 58.5127L100.021 94.0829L190.836 100.431L99.9017 96.1195L178.969 141.242L98.9104 97.9026L150.569 172.863L97.2437 99.079L111.263 189.03L95.2316 99.4157L68.8342 186.541L93.2727 98.846L31.6871 165.89L91.7549 97.4829L7.17893 131.166L90.9789 95.5962L0.163855 89.2478L91.0983 93.5596L12.0313 48.4367L92.0896 91.7765L40.4307 16.8163L93.7563 90.6001L79.7373 0.649383Z" fill="#B9291C"/>
</svg>
