<svg width="20" height="20" viewBox="0 0 20 20" fill="none" xmlns="http://www.w3.org/2000/svg">
<path d="M6.00003 4.66703C5.82483 4.6665 5.65125 4.70062 5.48929 4.76742C5.32732 4.83422 5.18016 4.93239 5.05628 5.05628C4.93239 5.18016 4.83422 5.32732 4.76742 5.48929C4.70062 5.65125 4.6665 5.82483 4.66703 6.00003C4.6665 6.17523 4.70062 6.3488 4.76742 6.51077C4.83422 6.67273 4.93239 6.81989 5.05628 6.94378C5.18016 7.06766 5.32732 7.16583 5.48929 7.23263C5.65125 7.29944 5.82483 7.33356 6.00003 7.33303C6.17523 7.33356 6.3488 7.29944 6.51077 7.23263C6.67273 7.16583 6.81989 7.06766 6.94378 6.94378C7.06766 6.81989 7.16583 6.67273 7.23263 6.51077C7.29944 6.3488 7.33356 6.17523 7.33303 6.00003C7.33356 5.82483 7.29944 5.65125 7.23263 5.48929C7.16583 5.32732 7.06766 5.18016 6.94378 5.05628C6.81989 4.93239 6.67273 4.83422 6.51077 4.76742C6.3488 4.70062 6.17523 4.6665 6.00003 4.66703ZM6.00003 13.556C5.78102 13.5565 5.5655 13.6109 5.37253 13.7145C5.17956 13.818 5.01508 13.9676 4.89363 14.1498C4.77218 14.3321 4.6975 14.5414 4.6762 14.7594C4.65491 14.9774 4.68764 15.1972 4.77151 15.3995C4.85539 15.6018 4.98782 15.7804 5.15709 15.9193C5.32637 16.0583 5.52727 16.1534 5.74204 16.1963C5.95682 16.2391 6.17884 16.2284 6.38848 16.165C6.59813 16.1017 6.78893 15.9877 6.94403 15.833C7.13103 15.6466 7.25844 15.4088 7.31012 15.1499C7.36179 14.8909 7.33538 14.6224 7.23426 14.3785C7.13313 14.1346 6.96183 13.9262 6.7421 13.7798C6.52236 13.6333 6.26408 13.5555 6.00003 13.556ZM2.88903 2.00003H17.111C17.2284 1.99786 17.3449 2.01937 17.4538 2.06328C17.5626 2.10718 17.6615 2.17259 17.7445 2.25557C17.8275 2.33856 17.8929 2.43743 17.9368 2.54627C17.9807 2.65511 18.0022 2.77168 18 2.88903V9.11103C18.0021 9.22833 17.9805 9.34485 17.9365 9.45362C17.8925 9.5624 17.8271 9.66121 17.7442 9.74417C17.6612 9.82713 17.5624 9.89254 17.4536 9.93649C17.3448 9.98045 17.2283 10.0021 17.111 10H2.88903C2.77172 10.0021 2.65521 9.98045 2.54643 9.93649C2.43766 9.89254 2.33884 9.82713 2.25589 9.74417C2.17293 9.66121 2.10752 9.5624 2.06356 9.45362C2.0196 9.34485 1.998 9.22833 2.00003 9.11103V2.88903C1.99786 2.77168 2.01937 2.65511 2.06328 2.54627C2.10718 2.43743 2.17259 2.33856 2.25557 2.25557C2.33856 2.17259 2.43743 2.10718 2.54627 2.06328C2.65511 2.01937 2.77168 1.99786 2.88903 2.00003ZM3.77803 3.77803V8.22203H16.222V3.77803H3.77803ZM2.88903 10.889H17.111C17.2284 10.8869 17.3449 10.9084 17.4538 10.9523C17.5626 10.9962 17.6615 11.0616 17.7445 11.1446C17.8275 11.2276 17.8929 11.3264 17.9368 11.4353C17.9807 11.5441 18.0022 11.6607 18 11.778V18C18.0021 18.1173 17.9805 18.2338 17.9365 18.3426C17.8925 18.4514 17.8271 18.5502 17.7442 18.6332C17.6612 18.7161 17.5624 18.7815 17.4536 18.8255C17.3448 18.8694 17.2283 18.8911 17.111 18.889H2.88903C2.77172 18.8911 2.65521 18.8694 2.54643 18.8255C2.43766 18.7815 2.33884 18.7161 2.25589 18.6332C2.17293 18.5502 2.10752 18.4514 2.06356 18.3426C2.0196 18.2338 1.998 18.1173 2.00003 18V11.778C1.99786 11.6607 2.01937 11.5441 2.06328 11.4353C2.10718 11.3264 2.17259 11.2276 2.25557 11.1446C2.33856 11.0616 2.43743 10.9962 2.54627 10.9523C2.65511 10.9084 2.77168 10.8869 2.88903 10.889ZM3.77803 12.667V17.111H16.222V12.667H3.77803Z" fill="#1D2939"/>
</svg>
