<svg width="72" height="20" viewBox="0 0 72 20" fill="none" xmlns="http://www.w3.org/2000/svg">
<g clip-path="url(#clip0_700_1183)">
<path d="M33.8839 10.1088C33.8687 10.3056 33.7796 10.4893 33.6345 10.6231C33.4895 10.757 33.2992 10.831 33.1019 10.8304H26.6218L27.1856 4.35402C27.2009 4.15726 27.2899 3.97354 27.435 3.8397C27.58 3.70587 27.7703 3.63183 27.9676 3.63242H34.4441L33.8839 10.1088ZM37.2926 12.2673L38.1675 2.19462C38.2038 1.91934 38.1796 1.63948 38.0966 1.37452C38.0136 1.10956 37.8739 0.865863 37.6872 0.660402C37.5004 0.454941 37.2711 0.292652 37.0153 0.184837C36.7594 0.0770207 36.4831 0.0262684 36.2057 0.0361137H26.1275C25.5366 0.034238 24.9667 0.255531 24.5319 0.655732C24.0971 1.05593 23.8294 1.60554 23.7823 2.19462L22.9029 12.2673C22.8681 12.5448 22.8943 12.8264 22.9796 13.0927C23.0649 13.359 23.2073 13.6034 23.3969 13.809C23.5865 14.0145 23.8186 14.1762 24.0771 14.2827C24.3356 14.3893 24.6143 14.4381 24.8936 14.4258H34.9456C35.5365 14.4277 36.1064 14.2064 36.5412 13.8062C36.976 13.406 37.2437 12.8564 37.2908 12.2673" fill="#D22030"/>
<path d="M67.7038 10.1087C67.6885 10.3054 67.5994 10.4892 67.4544 10.623C67.3094 10.7568 67.1191 10.8309 66.9217 10.8303H60.4507L61.0091 4.35388C61.0243 4.15711 61.1134 3.97339 61.2584 3.83956C61.4035 3.70573 61.5938 3.63168 61.7911 3.63227H68.2675L67.7038 10.1087ZM71.117 12.2672L71.9955 2.19447C72.0309 1.91859 72.0059 1.6383 71.922 1.37309C71.8382 1.10788 71.6976 0.864099 71.5101 0.658695C71.3225 0.453291 71.0925 0.291188 70.836 0.18365C70.5795 0.0761117 70.3026 0.0257178 70.0246 0.0359699H59.942C59.351 0.0340943 58.7812 0.255387 58.3464 0.655588C57.9115 1.05579 57.6438 1.60539 57.5968 2.19447L56.7182 12.2672C56.6828 12.5431 56.7079 12.8234 56.7917 13.0886C56.8756 13.3538 57.0161 13.5976 57.2037 13.803C57.3912 14.0084 57.6213 14.1705 57.8778 14.278C58.1343 14.3855 58.4112 14.4359 58.6891 14.4257H68.7618C69.3528 14.4276 69.9227 14.2063 70.3575 13.8061C70.7923 13.4059 71.06 12.8563 71.107 12.2672" fill="#D22030"/>
<path d="M51.3576 3.63236L50.7992 10.1088C50.784 10.3055 50.6949 10.4893 50.5499 10.6231C50.4048 10.7569 50.2145 10.831 50.0172 10.8304H43.5354L44.0991 4.35397C44.1144 4.1572 44.2035 3.97348 44.3485 3.83965C44.4935 3.70582 44.6838 3.63177 44.8812 3.63236H51.3576ZM53.1156 0.0360585H43.0375C42.4465 0.0341828 41.8766 0.255476 41.4418 0.655677C41.007 1.05588 40.7393 1.60548 40.6922 2.19456L39.8137 12.2673C39.7783 12.5432 39.8034 12.8234 39.8872 13.0887C39.971 13.3539 40.1116 13.5976 40.2991 13.8031C40.4867 14.0085 40.7167 14.1706 40.9732 14.2781C41.2298 14.3856 41.5066 14.436 41.7846 14.4258H48.6164L48.5262 15.5082C48.5098 15.7023 48.4216 15.8833 48.2787 16.0157C48.1359 16.1482 47.9488 16.2226 47.7541 16.2244H43.0636L42.8093 19.1072C42.7998 19.1984 42.81 19.2905 42.8391 19.3774C42.8683 19.4643 42.9158 19.5439 42.9784 19.6108C43.041 19.6778 43.1172 19.7305 43.202 19.7655C43.2867 19.8004 43.3779 19.8168 43.4695 19.8135H49.5653C50.1562 19.8153 50.7261 19.594 51.1609 19.1938C51.5958 18.7936 51.8635 18.244 51.9105 17.655L52.1946 14.3789C52.7242 14.3168 53.2147 14.0691 53.579 13.6797C53.9433 13.2904 54.1578 12.7845 54.1845 12.2519L55.063 2.17923C55.0994 1.90341 55.075 1.62298 54.9917 1.35755C54.9084 1.09212 54.7681 0.84809 54.5806 0.642517C54.3932 0.436945 54.1631 0.274791 53.9065 0.167391C53.6498 0.0599905 53.3728 0.00993546 53.0948 0.0207244" fill="#D22030"/>
<path d="M25.4321 16.2235H20.0381L21.4552 -4.45669e-05H18.5796C18.3796 -0.00456101 18.1855 0.0677255 18.0372 0.201948C17.8889 0.33617 17.7976 0.522123 17.7822 0.721561L16.4409 16.2235L16.2605 18.1384V18.1736C16.236 18.3847 16.2577 18.5987 16.324 18.8006C16.3902 19.0025 16.4996 19.1877 16.6445 19.3432C16.7894 19.4987 16.9663 19.6209 17.1631 19.7013C17.3598 19.7817 17.5717 19.8184 17.784 19.8089H24.3876C24.585 19.8095 24.7752 19.7355 24.9203 19.6016C25.0653 19.4678 25.1544 19.2841 25.1696 19.0873L25.4321 16.2235Z" fill="#D22030"/>
<path d="M14.6838 0.461873C14.5479 0.341508 14.3935 0.24375 14.2265 0.172329H14.13C13.9127 0.0717378 13.6782 0.0132772 13.4391 4.58535e-05H3.24009C2.64789 -0.00365526 2.07622 0.21682 1.63987 0.617201C1.20351 1.01758 0.934789 1.56822 0.887652 2.15855L0.00729309 12.2313C-0.0281227 12.5071 -0.00304237 12.7874 0.0807911 13.0526C0.164625 13.3179 0.305201 13.5616 0.492751 13.767C0.680301 13.9724 0.910327 14.1345 1.16685 14.2421C1.42336 14.3496 1.70022 14.4 1.97818 14.3898H12.0527C12.6436 14.3916 13.2135 14.1703 13.6483 13.7701C14.0832 13.3699 14.3509 12.8203 14.3979 12.2313L14.5251 10.7935H7.2928L14.5991 3.68204C14.6535 3.63694 14.7045 3.58779 14.7515 3.53501L14.7921 3.49983C14.9914 3.28015 15.1447 3.02285 15.2431 2.74305C15.3165 2.53693 15.3594 2.32117 15.3703 2.10262C15.3878 1.79507 15.3353 1.48754 15.2165 1.20329C15.0977 0.919043 14.915 0.665515 14.6838 0.461873ZM5.08379 3.59635H9.52347L3.88051 9.09859L4.30175 4.31795C4.317 4.12119 4.40608 3.93747 4.55112 3.80364C4.69616 3.6698 4.88644 3.59576 5.08379 3.59635Z" fill="#2A338F"/>
</g>
<defs>
<clipPath id="clip0_700_1183">
<rect width="72" height="19.8108" fill="white"/>
</clipPath>
</defs>
</svg>
