<svg width="20" height="20" viewBox="0 0 20 20" fill="none" xmlns="http://www.w3.org/2000/svg">
<path d="M5.90901 14.818C5.26237 14.8295 4.62024 14.7083 4.02223 14.4621C3.42422 14.2158 2.88302 13.8496 2.43201 13.386C1.96847 12.935 1.60226 12.3938 1.35597 11.7958C1.10968 11.1978 0.988538 10.5557 1.00001 9.90901C0.988538 9.26237 1.10968 8.62024 1.35597 8.02223C1.60226 7.42422 1.96847 6.88302 2.43201 6.43201C2.88302 5.96847 3.42422 5.60226 4.02223 5.35597C4.62024 5.10968 5.26237 4.98854 5.90901 5.00001H14.091C14.7364 4.99737 15.3759 5.12254 15.9727 5.3683C16.5695 5.61406 17.1117 5.97556 17.5681 6.43193C18.0245 6.8883 18.386 7.43051 18.6317 8.02729C18.8775 8.62408 19.0027 9.26361 19 9.90901C19.0027 10.5544 18.8775 11.194 18.6317 11.7907C18.386 12.3875 18.0245 12.9297 17.5681 13.3861C17.1117 13.8425 16.5695 14.204 15.9727 14.4497C15.3759 14.6955 14.7364 14.8207 14.091 14.818H5.90901ZM14.091 13.182C14.9583 13.1796 15.7895 12.834 16.4028 12.2207C17.016 11.6075 17.3616 10.7763 17.364 9.90901C17.3616 9.04169 17.016 8.21057 16.4028 7.59728C15.7895 6.98398 14.9583 6.63839 14.091 6.63601H5.90901C5.47871 6.63051 5.05184 6.7132 4.65472 6.879C4.25761 7.04479 3.89866 7.29017 3.60001 7.60001C3.29527 7.90289 3.05343 8.26305 2.8884 8.65974C2.72337 9.05644 2.63841 9.48186 2.63841 9.91151C2.63841 10.3412 2.72337 10.7666 2.8884 11.1633C3.05343 11.56 3.29527 11.9201 3.60001 12.223C3.89915 12.5326 4.25854 12.7775 4.65601 12.9428C5.05347 13.1081 5.48059 13.1902 5.91101 13.184L14.091 13.182ZM14.091 12.364C14.4138 12.3655 14.7337 12.303 15.0322 12.1801C15.3307 12.0572 15.6019 11.8765 15.8302 11.6482C16.0585 11.4199 16.2392 11.1487 16.3621 10.8502C16.485 10.5517 16.5475 10.2318 16.546 9.90901C16.5453 9.42342 16.4009 8.94891 16.1309 8.54531C15.8609 8.1417 15.4774 7.82707 15.0289 7.64108C14.5803 7.45509 14.0867 7.40607 13.6103 7.5002C13.134 7.59433 12.6961 7.82739 12.352 8.17001C11.8935 8.63243 11.6362 9.25729 11.6362 9.90851C11.6362 10.5597 11.8935 11.1846 12.352 11.647C12.5775 11.879 12.8481 12.0624 13.1472 12.1857C13.4463 12.309 13.7675 12.3697 14.091 12.364Z" fill="#1D2939"/>
</svg>
