<svg width="20" height="20" viewBox="0 0 20 20" fill="none" xmlns="http://www.w3.org/2000/svg">
<mask id="mask0_1552_5122" style="mask-type:alpha" maskUnits="userSpaceOnUse" x="0" y="0" width="20" height="20">
<rect width="20" height="20" fill="#D9D9D9"/>
</mask>
<g mask="url(#mask0_1552_5122)">
<path d="M11.708 17.562C11.4167 17.854 11.0627 18 10.646 18C10.2293 18 9.875 17.854 9.583 17.562L2.438 10.417C2.29867 10.2777 2.191 10.1143 2.115 9.927C2.03833 9.73967 2 9.54867 2 9.354V3.5C2 3.08333 2.146 2.72933 2.438 2.438C2.72933 2.146 3.08333 2 3.5 2H9.354C9.54867 2 9.73633 2.03467 9.917 2.104C10.0977 2.17333 10.2643 2.28467 10.417 2.438L17.562 9.583C17.854 9.875 18 10.2257 18 10.635C18 11.045 17.854 11.396 17.562 11.688L11.708 17.562ZM10.646 16.5L16.5 10.646L9.354 3.5H3.5V9.354L10.646 16.5ZM5.5 6.75C5.84733 6.75 6.14233 6.62833 6.385 6.385C6.62833 6.14233 6.75 5.84733 6.75 5.5C6.75 5.15267 6.62833 4.85767 6.385 4.615C6.14233 4.37167 5.84733 4.25 5.5 4.25C5.15267 4.25 4.85767 4.37167 4.615 4.615C4.37167 4.85767 4.25 5.15267 4.25 5.5C4.25 5.84733 4.37167 6.14233 4.615 6.385C4.85767 6.62833 5.15267 6.75 5.5 6.75Z" fill="#1C1B1F"/>
</g>
</svg>
