<svg width="72" height="72" viewBox="0 0 72 72" fill="none" xmlns="http://www.w3.org/2000/svg">
<g id="fb_messenger">
<path id="bg" fill-rule="evenodd" clip-rule="evenodd" d="M36 63.4031C52.1543 63.4031 65.25 50.7209 65.25 35.0765C65.25 19.4322 52.1543 6.75 36 6.75C19.8457 6.75 6.75 19.4322 6.75 35.0765C6.75 43.5852 10.6238 51.2176 16.7566 56.4101V62.1423C16.7566 64.3826 19.0386 65.8853 21.0732 64.9847L27.4342 62.1691C30.1433 62.9714 33.0196 63.4031 36 63.4031Z" fill="url(#paint0_linear_396_777)"/>
<path id="fb_messenger_2" d="M28.9958 29.055L20.5138 40.6551C19.6043 41.8989 21.2399 43.3931 22.485 42.456L29.7276 37.0055C30.4648 36.4507 31.4982 36.4432 32.2441 36.9873L38.6854 41.6862C39.9207 42.5874 41.6862 42.3282 42.5856 41.1137L51.4811 29.1017C52.4037 27.8559 50.7556 26.3496 49.5086 27.2989L41.8514 33.1281C41.1141 33.6894 40.0752 33.6997 39.3259 33.1532L32.9055 28.4695C31.665 27.5646 29.8913 27.8302 28.9958 29.055Z" fill="white"/>
</g>
<defs>
<linearGradient id="paint0_linear_396_777" x1="36" y1="6.75" x2="26.6144" y2="64.9312" gradientUnits="userSpaceOnUse">
<stop stop-color="#00B1FF"/>
<stop offset="1" stop-color="#006BFF"/>
</linearGradient>
</defs>
</svg>
