<svg width="87" height="32" viewBox="0 0 87 32" fill="none" xmlns="http://www.w3.org/2000/svg">
<g id="Group 37376">
<path id="Path 34" d="M31.5141 2.89693L26.6764 22.6205C26.6098 22.894 26.4532 23.137 26.2318 23.3107C26.0103 23.4844 25.7369 23.5785 25.4555 23.578H19.8435C19.5578 23.5786 19.2804 23.4816 19.0573 23.303C18.8343 23.1245 18.6788 22.8752 18.6167 22.5963L16.9919 15.3594C16.9323 15.0788 16.7783 14.8271 16.5555 14.6463C16.3328 14.4655 16.0548 14.3665 15.7679 14.3658C15.481 14.3651 15.2026 14.4628 14.979 14.6425C14.7554 14.8223 14.6002 15.0733 14.5392 15.3536L12.8784 22.6013C12.8154 22.879 12.6598 23.127 12.4371 23.3045C12.2145 23.482 11.9381 23.5785 11.6533 23.578H6.04131C5.7593 23.5785 5.48535 23.484 5.26367 23.3097C5.042 23.1353 4.88555 22.8914 4.81956 22.6172L0.0362492 2.89358C-0.0091512 2.70886 -0.0119427 2.51622 0.028086 2.33026C0.0681146 2.14429 0.149915 1.96986 0.267298 1.82018C0.38468 1.67049 0.534571 1.54946 0.705628 1.46624C0.876686 1.38302 1.06443 1.3398 1.25465 1.33985H5.28451C5.58147 1.33952 5.86891 1.44456 6.09569 1.63628C6.32247 1.82799 6.47388 2.09395 6.52298 2.38682L7.87686 10.3478C7.92207 10.6372 8.06708 10.9015 8.28675 11.0952C8.50642 11.2888 8.7869 11.3995 9.0796 11.408C9.3723 11.4165 9.65876 11.3224 9.88934 11.1419C10.1199 10.9614 10.2801 10.7059 10.3421 10.4198L12.2094 2.31574C12.2733 2.03857 12.4292 1.79122 12.6517 1.614C12.8741 1.43677 13.1501 1.34014 13.4345 1.33985H18.2111C18.4967 1.33926 18.774 1.43616 18.9971 1.61452C19.2201 1.79288 19.3756 2.04202 19.4379 2.32076L21.2275 10.2433C21.2887 10.5296 21.4481 10.7854 21.6781 10.9665C21.9081 11.1475 22.1942 11.2425 22.4868 11.2348C22.7795 11.2272 23.0602 11.1175 23.2804 10.9246C23.5006 10.7318 23.6465 10.468 23.6927 10.1789L25.0307 2.38515C25.0804 2.09259 25.2321 1.82712 25.459 1.63589C25.6859 1.44466 25.9733 1.34006 26.27 1.34068H30.294C30.4848 1.34013 30.6732 1.38311 30.8449 1.46635C31.0166 1.5496 31.167 1.67091 31.2847 1.82105C31.4025 1.9712 31.4844 2.14622 31.5243 2.3328C31.5642 2.51938 31.561 2.71261 31.5149 2.89777" fill="#24262D"/>
<path id="Path 35" d="M35.2067 1.92345C36.8269 0.570211 38.9031 -0.112485 41.0103 0.0151458C42.4384 -0.0243205 43.8568 0.261644 45.158 0.851388C46.2266 1.34095 47.1304 2.12952 47.7604 3.12179C48.3534 4.09503 48.6595 5.21597 48.6435 6.35554C48.7079 7.58263 48.3401 8.79348 47.604 9.77744C46.9972 10.5665 46.1754 11.1635 45.2375 11.4968V11.623C46.3911 11.9665 47.3952 12.6887 48.0877 13.6732C48.7802 14.6576 49.1207 15.8468 49.0541 17.0486C49.0793 18.2779 48.7626 19.4901 48.1392 20.5499C47.5055 21.5802 46.5843 22.4028 45.4892 22.9165C44.1951 23.5122 42.7814 23.8023 41.3573 23.7644C39.1201 23.8891 36.9116 23.2125 35.1281 21.8561C33.8451 20.7296 33.0365 19.1588 32.8653 17.46C32.8381 17.2804 32.85 17.097 32.9 16.9223C32.9501 16.7477 33.0371 16.5858 33.1552 16.4478C33.2733 16.3098 33.4198 16.1988 33.5846 16.1224C33.7494 16.0459 33.9288 16.0059 34.1104 16.0049H37.6168C37.9048 16.0081 38.1832 16.1091 38.4062 16.2915C38.6291 16.4739 38.7834 16.7267 38.8436 17.0084C38.9165 17.3588 39.0754 17.6855 39.306 17.9592C39.5356 18.2011 39.8161 18.3889 40.1272 18.5089C40.4383 18.629 40.7722 18.6783 41.1048 18.6533C41.3707 18.6674 41.6366 18.624 41.8842 18.526C42.1318 18.428 42.3554 18.2777 42.5398 18.0855C42.901 17.6661 43.0872 17.1239 43.0599 16.5711C43.0859 16.2358 43.0289 15.8993 42.894 15.5913C42.7591 15.2832 42.5504 15.0132 42.2864 14.8049C41.5273 14.365 40.6522 14.1669 39.7776 14.2371C39.4848 14.2369 39.204 14.1204 38.9971 13.9133C38.7901 13.7061 38.6738 13.4253 38.6738 13.1324V10.3009C38.6738 10.0164 38.7868 9.74348 38.988 9.54227C39.1893 9.34107 39.4622 9.22803 39.7467 9.22803C40.4472 9.26908 41.1467 9.13365 41.7813 8.83416C42.0731 8.66047 42.3077 8.40525 42.4563 8.09992C42.6048 7.79458 42.6609 7.45246 42.6175 7.11568C42.6584 6.58372 42.4888 6.05697 42.145 5.64891C41.9752 5.48207 41.7724 5.35242 41.5497 5.2682C41.327 5.18398 41.0891 5.14703 40.8514 5.15971C40.5913 5.14089 40.3308 5.19069 40.096 5.30413C39.8612 5.41757 39.6603 5.59067 39.5134 5.80612C39.3714 6.02352 39.2605 6.25967 39.1839 6.50773C39.1048 6.76376 38.9461 6.9879 38.7309 7.1476C38.5157 7.30731 38.2552 7.39425 37.9872 7.39582H34.3914C34.2085 7.39597 34.0278 7.35629 33.8618 7.27954C33.6958 7.20279 33.5485 7.0908 33.4302 6.95138C33.3119 6.81195 33.2253 6.64842 33.1766 6.47216C33.1278 6.29591 33.118 6.11114 33.1479 5.93072C33.3602 4.3995 34.0875 2.98618 35.2101 1.92345" fill="#24262D"/>
<path id="Path 36" d="M70.1601 7.63614L60.0107 31.2391C59.9139 31.4652 59.7529 31.6578 59.5476 31.7931C59.3423 31.9284 59.1017 32.0004 58.8558 32.0001H54.9255C54.7142 32.0009 54.5061 31.9484 54.3206 31.8474C54.135 31.7464 53.978 31.6001 53.864 31.4222C53.7501 31.2443 53.6829 31.0405 53.6688 30.8297C53.6547 30.6189 53.694 30.4079 53.7832 30.2164L56.9584 23.3324C57.0318 23.1726 57.071 22.9992 57.0734 22.8234C57.0759 22.6475 57.0415 22.4731 56.9726 22.3114L50.6882 7.63447C50.6047 7.44317 50.5703 7.23407 50.588 7.0261C50.6058 6.81814 50.6751 6.61789 50.7898 6.44349C50.9045 6.2691 51.0609 6.12609 51.2448 6.0274C51.4287 5.92872 51.6344 5.87749 51.8431 5.87836H55.9407C56.1975 5.87784 56.4482 5.95615 56.6591 6.10271C56.8699 6.24927 57.0307 6.45701 57.1198 6.69788L59.3383 12.677C59.4265 12.9204 59.5878 13.1306 59.8002 13.2787C60.0125 13.4268 60.2655 13.5055 60.5243 13.5042C60.7832 13.5028 61.0354 13.4213 61.2461 13.271C61.4569 13.1207 61.616 12.9088 61.7015 12.6645L63.8348 6.71126C63.9213 6.46646 64.0817 6.25455 64.2938 6.10476C64.5059 5.95498 64.7593 5.87471 65.0189 5.87501H69.0061C69.2149 5.87401 69.4206 5.92513 69.6047 6.02376C69.7887 6.12238 69.9452 6.26539 70.06 6.4398C70.1748 6.61421 70.2442 6.81452 70.262 7.02255C70.2798 7.23058 70.2453 7.43976 70.1618 7.63112" fill="#24262D"/>
<path id="Path 37" d="M81.9514 18.4369H85.6618C85.7798 18.4369 85.8966 18.4601 86.0055 18.5053C86.1145 18.5504 86.2135 18.6166 86.2969 18.7C86.3803 18.7834 86.4465 18.8824 86.4916 18.9913C86.5367 19.1003 86.5599 19.2171 86.5599 19.335V22.68C86.5599 22.9183 86.4654 23.1468 86.2969 23.3154C86.1285 23.4839 85.9001 23.5787 85.6618 23.579H73.1065C72.8681 23.579 72.6394 23.4842 72.4708 23.3157C72.3022 23.1471 72.2075 22.9184 72.2075 22.68V19.5282C72.2077 18.9884 72.4103 18.4683 72.7753 18.0706L77.3078 13.1301C77.4741 12.9507 77.5844 12.7266 77.625 12.4853C77.6656 12.2441 77.6348 11.9962 77.5363 11.7722C77.4379 11.5483 77.276 11.358 77.0708 11.2248C76.8656 11.0917 76.6259 11.0214 76.3812 11.0228H73.1692C72.9309 11.0228 72.7024 10.9282 72.5338 10.7598C72.3653 10.5914 72.2705 10.3629 72.2702 10.1247V7.14011C72.2702 6.80743 72.4024 6.48838 72.6376 6.25314C72.8729 6.0179 73.1919 5.88574 73.5246 5.88574H85.4059C85.6444 5.88574 85.873 5.98045 86.0416 6.14904C86.2102 6.31763 86.3049 6.54628 86.3049 6.7847V10.4165C86.3041 10.6474 86.2142 10.8691 86.054 11.0353L81.0366 16.317C80.8658 16.4948 80.7512 16.719 80.7071 16.9615C80.663 17.2041 80.6914 17.4542 80.7886 17.6807C80.8859 17.9073 81.0477 18.1001 81.2539 18.2352C81.4601 18.3703 81.7016 18.4416 81.9481 18.4402" fill="#24262D"/>
</g>
</svg>
