<svg width="65" height="65" viewBox="0 0 65 65" fill="none" xmlns="http://www.w3.org/2000/svg">
<g clip-path="url(#clip0_391_556)">
<path d="M40.8871 2.86661C41.501 1.77059 40.4639 0.563055 38.6012 0.146946C36.7542 -0.266443 34.727 0.242135 34.0425 1.30008L10.3164 38.0346C8.97884 40.1043 9.82265 42.688 12.3776 43.5909C14.9639 44.5074 18.1433 43.3815 19.4077 41.1323L40.8871 2.86661Z" fill="#0069B4"/>
<path d="M2.20468 43.7673C1.07872 43.3566 0.749553 42.2008 1.4523 41.1972L14.9246 21.8957C16.0323 20.3074 14.9246 18.8959 14.9246 18.8959L2.66186 3.24427C1.87551 2.24343 2.76374 0.940714 4.60812 0.32607C6.42637 -0.283135 8.54767 -0.0111686 9.38365 0.943434L21.811 15.121C21.811 15.121 22.8664 16.3204 21.811 17.9223L5.49635 42.6495C4.8145 43.6748 3.33848 44.1807 2.20207 43.7673H2.20468Z" fill="#0069B4"/>
<path d="M57.1703 0.0709482C56.2977 -0.113989 55.8353 0.0600695 55.1953 0.565927L34.0763 17.2511C34.0763 17.2511 32.5794 18.4695 34.3741 20.3406L54.8478 41.8695C56.7836 43.9065 60.1902 44.5293 62.3272 43.1912C64.4198 41.8776 64.425 39.2368 62.4265 37.3249L41.3493 17.1396C40.5735 16.3971 40.482 16.1686 41.2814 15.505L58.3511 1.33015C58.7508 0.919484 58.0428 0.258605 57.1703 0.0736678V0.0709482Z" fill="#EF7D00"/>
<path d="M38.9516 55.3752C39.2468 55.6798 39.2468 56.1775 38.9516 56.4821C38.659 56.7867 38.1835 56.7867 37.8883 56.4821L35.1296 53.6129C34.9833 53.4606 34.9102 53.2593 34.9102 53.0581C34.9102 52.8568 34.9833 52.6583 35.1296 52.5032L37.8883 49.6313C38.1835 49.3267 38.659 49.3267 38.9516 49.6313C39.2468 49.9386 39.2468 50.4309 38.9516 50.7382L36.7258 53.0581L38.9516 55.3752Z" fill="#EF7D00"/>
<path d="M51.0706 50.1807C51.0706 50.6131 50.7336 50.9613 50.3182 50.9613C49.2106 50.9613 48.3067 51.8996 48.3067 53.0554V55.9328C48.3067 56.3625 47.9723 56.7134 47.5569 56.7134C47.1415 56.7134 46.8071 56.3625 46.8071 55.9328V53.0554C46.8071 51.0374 48.3824 49.3975 50.3182 49.3975C50.7336 49.3975 51.0706 49.7483 51.0706 50.1807Z" fill="#EF7D00"/>
<path d="M42.7004 49.3975C40.762 49.3975 39.1841 51.0374 39.1841 53.0554C39.1841 55.0734 40.762 56.7134 42.7004 56.7134C43.4502 56.7134 44.1477 56.4659 44.7198 56.047C44.7747 56.4251 45.0856 56.7134 45.4618 56.7134C45.8745 56.7134 46.2141 56.3625 46.2141 55.9328V53.0554C46.2141 51.0374 44.6362 49.3975 42.7004 49.3975ZM42.7004 55.1496C41.5901 55.1496 40.6888 54.2113 40.6888 53.0554C40.6888 51.8996 41.5875 50.9613 42.7004 50.9613C43.8133 50.9613 44.712 51.8996 44.712 53.0554C44.712 54.2113 43.8107 55.1496 42.7004 55.1496Z" fill="#EF7D00"/>
<path d="M19.293 50.1807C19.293 50.6131 18.956 50.9613 18.5432 50.9613C17.4329 50.9613 16.5316 51.8996 16.5316 53.0554V55.9328C16.5316 56.3625 16.1946 56.7134 15.7792 56.7134C15.3639 56.7134 15.0269 56.3625 15.0269 55.9328V53.0554C15.0269 51.0374 16.6022 49.3975 18.5406 49.3975C18.9533 49.3975 19.2903 49.7483 19.2903 50.1807H19.293Z" fill="#0069B4"/>
<path d="M13.6553 49.3975C13.2399 49.3975 12.9055 49.7483 12.9055 50.1807V53.1316C12.9055 54.2874 12.0774 55.1496 10.9697 55.1496C9.86203 55.1496 9.03389 54.2874 9.03389 53.1316V50.1807C9.03389 49.7483 8.69688 49.3975 8.28151 49.3975C7.86613 49.3975 7.53174 49.7483 7.53174 50.1807V53.1316C7.53174 55.1496 9.03389 56.7134 10.9723 56.7134C12.9107 56.7134 14.4103 55.1496 14.4103 53.1316V50.1807C14.4103 49.7483 14.0733 49.3975 13.6579 49.3975H13.6553Z" fill="#0069B4"/>
<path d="M22.4042 49.3974H21.2756V48.1001C21.2756 47.6677 20.9412 47.3196 20.5258 47.3196C20.1104 47.3196 19.7734 47.6677 19.7734 48.1001V55.93C19.7734 56.3597 20.1104 56.7106 20.5258 56.7106C20.9412 56.7106 21.2756 56.3597 21.2756 55.93V50.9612H22.4042C22.8195 50.9612 23.1565 50.6131 23.1565 50.1807C23.1565 49.7482 22.8195 49.3974 22.4042 49.3974Z" fill="#0069B4"/>
<path d="M24.5149 49.3975C24.0995 49.3975 23.7651 49.7483 23.7651 50.1807V55.9328C23.7651 56.3625 24.1021 56.7134 24.5149 56.7134C24.9277 56.7134 25.2673 56.3625 25.2673 55.9328V50.1807C25.2673 49.7483 24.9303 49.3975 24.5149 49.3975Z" fill="#0069B4"/>
<path d="M23.7495 48.1164C23.7495 47.6759 24.0944 47.3196 24.515 47.3196C24.9356 47.3196 25.283 47.6759 25.283 48.1164C25.283 48.557 24.9408 48.9133 24.515 48.9133C24.0891 48.9133 23.7495 48.557 23.7495 48.1164Z" fill="#0069B4"/>
<path d="M33.6741 49.3975C33.2613 49.3975 32.9243 49.7483 32.9243 50.1807V55.9328C32.9243 56.3625 33.2613 56.7134 33.6741 56.7134C34.0868 56.7134 34.4265 56.3625 34.4265 55.9328V50.1807C34.4265 49.7483 34.0895 49.3975 33.6741 49.3975Z" fill="#0069B4"/>
<path d="M32.9087 48.1164C32.9087 47.6759 33.2509 47.3196 33.6741 47.3196C34.0973 47.3196 34.4396 47.6759 34.4396 48.1164C34.4396 48.557 34.0973 48.9133 33.6741 48.9133C33.2509 48.9133 32.9087 48.557 32.9087 48.1164Z" fill="#0069B4"/>
<path d="M30.9285 54.5349C30.5654 54.9157 30.0638 55.1496 29.5074 55.1496C28.3971 55.1496 27.4958 54.2113 27.4958 53.0554C27.4958 51.8996 28.3971 50.9613 29.5074 50.9613C30.0638 50.9613 30.5654 51.1952 30.9285 51.5732C31.2211 51.8778 31.6966 51.8778 31.9918 51.5732C32.287 51.2686 32.287 50.7736 31.9918 50.4663C31.357 49.8054 30.4792 49.3948 29.5074 49.3948C27.5663 49.3948 25.9937 51.032 25.9937 53.0527C25.9937 54.8042 27.1771 56.2701 28.7602 56.6264C28.7602 56.6536 28.7576 56.6808 28.7576 56.7107V57.4912C28.7576 57.9236 29.092 58.2718 29.5074 58.2718C29.9228 58.2718 30.2598 57.9236 30.2598 57.4912V56.7107C30.2598 56.6808 30.2598 56.6536 30.2545 56.6264C30.9259 56.4741 31.5242 56.1259 31.9918 55.6391C32.287 55.3318 32.287 54.8368 31.9918 54.5322C31.6992 54.2276 31.2237 54.2276 30.9285 54.5322V54.5349Z" fill="#0069B4"/>
<path d="M61.4835 49.3975C59.5476 49.3975 57.9697 51.0374 57.9697 53.0554C57.9697 55.0734 59.545 56.7134 61.4835 56.7134C63.4219 56.7134 64.9998 55.0707 64.9998 53.0554C64.9998 51.0401 63.4219 49.3975 61.4835 49.3975ZM61.4835 55.1496C60.3758 55.1496 59.4719 54.2113 59.4719 53.0554C59.4719 51.8996 60.3732 50.9613 61.4835 50.9613C62.5937 50.9613 63.4976 51.8996 63.4976 53.0554C63.4976 54.2113 62.5937 55.1496 61.4835 55.1496Z" fill="#EF7D00"/>
<path d="M57.6014 57.2437C57.6014 59.2644 56.0626 60.9016 54.1634 60.9016C52.6351 60.9016 52.9016 59.8954 52.9016 59.8954C52.9016 59.8954 53.0218 59.2943 53.6148 59.2943C53.7585 59.2943 53.9021 59.3378 54.1608 59.3378C55.2293 59.3378 56.0966 58.3996 56.0966 57.2437V56.0525C55.5271 56.4686 54.8322 56.7134 54.085 56.7134C52.1466 56.7134 50.5713 55.0707 50.5713 53.0554C50.5713 51.0401 52.1466 49.3975 54.085 49.3975C56.0234 49.3975 57.5987 51.0374 57.5987 53.0554V57.2437H57.6014ZM56.0992 53.0554C56.0992 51.8996 55.1953 50.9613 54.0876 50.9613C52.98 50.9613 52.0787 51.8996 52.0787 53.0554C52.0787 54.2113 52.98 55.1496 54.0876 55.1496C55.1953 55.1496 56.0992 54.2113 56.0992 53.0554Z" fill="#EF7D00"/>
<path d="M3.43796 59.3378C4.50645 59.3378 5.37378 58.3995 5.37378 57.2437V56.0524C4.80427 56.4686 4.18773 56.7133 3.43796 56.7133C1.50215 56.7133 0 55.1359 0 53.1207V50.1834C0 49.751 0.334392 49.4001 0.752381 49.4001C1.17037 49.4001 1.50215 49.751 1.50215 50.1834V53.1207C1.50215 54.2765 2.33029 55.1495 3.43796 55.1495C4.54564 55.1495 5.37378 54.2874 5.37378 53.1342V50.1834C5.37378 49.751 5.71078 49.4001 6.12616 49.4001C6.54154 49.4001 6.87854 49.751 6.87854 50.1834V57.2437C6.87854 59.2644 5.33982 60.9016 3.44058 60.9016C1.91491 60.9016 2.18138 59.8953 2.18138 59.8953C2.18138 59.8953 2.30156 59.2943 2.89458 59.2943C3.03826 59.2943 3.18195 59.3378 3.44058 59.3378H3.43796Z" fill="#0069B4"/>
<path d="M8.4303 62.5686C8.42247 63.0826 8.7229 63.7054 9.71824 63.7054C10.7919 63.7054 10.8912 63.0201 10.8912 62.7563C10.8912 62.1525 10.3452 61.9866 9.92462 61.8941C9.7522 61.8588 9.58761 61.8234 9.41258 61.7881C8.91099 61.682 8.21609 61.527 8.21609 60.7546C8.21609 60.2569 8.49823 59.5906 9.66599 59.5906C10.7136 59.5906 11.0218 60.2705 11.0636 60.7655H10.7763C10.7528 60.4881 10.5908 59.8381 9.6477 59.8381C8.92406 59.8381 8.50345 60.2052 8.50345 60.722C8.50345 61.3257 8.96847 61.4318 9.66076 61.5596C10.1493 61.6494 11.1786 61.7717 11.1786 62.759C11.1786 63.2186 10.9827 63.9502 9.7104 63.9502C8.43814 63.9502 8.1351 63.1669 8.13771 62.5632H8.42769L8.4303 62.5686Z" fill="#0069B4"/>
<path d="M11.8475 62.3619C11.8475 61.5134 12.1976 60.9504 12.9265 60.9504C13.6553 60.9504 14.008 61.5106 14.008 62.3619C14.008 63.2131 13.6579 63.7734 12.9265 63.7734C12.195 63.7734 11.8475 63.2131 11.8475 62.3619ZM11.5811 62.3619C11.5811 63.2539 11.9651 63.9801 12.9265 63.9801C13.8878 63.9801 14.2719 63.2539 14.2719 62.3619C14.2719 61.4698 13.8878 60.7464 12.9265 60.7464C11.9651 60.7464 11.5811 61.4726 11.5811 62.3619ZM12.1819 60.1617H12.4719V59.7292H12.1819V60.1617ZM13.381 60.1617H13.6684V59.7292H13.381V60.1617Z" fill="#0069B4"/>
<path d="M16.7039 60.8633V61.0999L14.8752 63.6537H16.7771V63.8604H14.5513V63.6781L16.4427 61.07H14.6793V60.8633H16.7039Z" fill="#0069B4"/>
<path d="M20.6876 60.8633H20.9776L19.8856 63.8631H19.5852L18.4932 60.8633H18.7805L19.7367 63.5857L20.6902 60.8633H20.6876Z" fill="#0069B4"/>
<path d="M21.3801 62.1851C21.3931 61.7472 21.5786 60.9503 22.4433 60.9503C23.308 60.9503 23.4439 61.7363 23.4439 62.1851H21.3775H21.3801ZM23.4282 62.9928C23.3525 63.4116 23.0363 63.7706 22.4721 63.7706C21.5629 63.7706 21.3853 62.9085 21.3801 62.3918H23.7156C23.7339 60.8796 22.9031 60.7437 22.4642 60.7437C21.1528 60.7437 21.1162 62.0409 21.1162 62.3183C21.1162 63.9719 22.2213 63.9773 22.4642 63.9773C23.3316 63.9773 23.6137 63.3736 23.6816 62.9928H23.4282Z" fill="#0069B4"/>
<path d="M25.5786 61.07H25.4532C25.077 61.0808 24.4578 61.2114 24.4578 62.4271V63.8631H24.207V60.8633H24.4578V61.4834H24.4683C24.6093 61.1108 24.9699 60.8062 25.4479 60.8062H25.5786V61.0727V61.07Z" fill="#0069B4"/>
<path d="M26.0148 62.3157C26.0148 61.6793 26.2552 60.9531 26.9814 60.9531C27.6293 60.9531 28.016 61.5079 28.016 62.381C28.016 63.3954 27.4856 63.7734 26.9919 63.7734C26.7724 63.7734 26.0148 63.7136 26.0148 62.3157ZM28.0055 59.7293V61.3638C27.8226 60.964 27.4308 60.7437 26.9945 60.7437C26.3283 60.7437 25.751 61.1979 25.751 62.3184C25.751 62.6502 25.8032 63.9774 27.0049 63.9774C27.7312 63.9774 27.948 63.4987 27.9924 63.3791H28.0029V63.8577H28.2563V59.7266H28.0029L28.0055 59.7293Z" fill="#0069B4"/>
<path d="M29.2307 60.8633V63.8631H28.9773V60.8633H29.2307ZM28.959 59.7292H29.2464V60.1617H28.959V59.7292Z" fill="#0069B4"/>
<path d="M31.1246 63.7C30.6517 63.7 30.0822 63.4117 30.0822 62.3184C30.0822 62.0138 30.1214 60.9504 31.0488 60.9504C31.715 60.9504 32.0651 61.4399 32.0651 62.3619C32.0651 63.447 31.5713 63.7027 31.1246 63.7027V63.7ZM29.962 64.2629C30.1214 64.9537 30.7562 65 31.0776 65C32.2923 65 32.308 64.0372 32.308 63.6374V60.8633H32.0546V61.3475H32.0442C31.9109 61.0456 31.6131 60.7464 31.0253 60.7464C30.2781 60.7464 29.8184 61.3175 29.8184 62.3292C29.8184 62.5822 29.8549 63.9121 31.0958 63.9121C31.5321 63.9121 31.9083 63.7027 32.0572 63.3219V63.6755C32.0572 64.7362 31.3179 64.796 31.1011 64.796C30.5734 64.796 30.3252 64.5485 30.252 64.2657H29.962V64.2629ZM30.3408 59.7292C30.3748 60.061 30.6099 60.42 31.135 60.42C31.6601 60.42 31.8926 60.061 31.9292 59.7292H31.715C31.6993 59.9822 31.5191 60.2433 31.135 60.2433C30.751 60.2433 30.5707 59.9849 30.5525 59.7292H30.3408Z" fill="#0069B4"/>
<path d="M33.3789 60.8633V63.8631H33.1255V60.8633H33.3789ZM33.1099 59.7292H33.3972V60.1617H33.1099V59.7292Z" fill="#0069B4"/>
<path d="M34.4632 60.8633V61.3011C34.5781 61.0591 34.842 60.7463 35.3645 60.7463C35.7616 60.7463 36.1012 60.9639 36.1874 61.3474C36.3076 61.0863 36.5819 60.7463 37.1592 60.7463C38.0344 60.7463 38.0396 61.5894 38.0396 61.856V63.8631H37.7862V61.8859C37.7862 61.6955 37.7862 60.953 37.154 60.953C36.7569 60.953 36.2527 61.2005 36.2527 61.9919V63.8631H35.9993V61.8859C35.9993 61.7254 35.9993 60.953 35.354 60.953C34.8655 60.953 34.4632 61.4099 34.4632 62.0327V63.8631H34.2124V60.8633H34.4632Z" fill="#0069B4"/>
<path d="M39.0064 60.8633V63.8631H38.753V60.8633H39.0064ZM38.7373 59.7292H39.0247V60.1617H38.7373V59.7292Z" fill="#0069B4"/>
<path d="M41.7755 60.8633V61.0999L39.9468 63.6537H41.8513V63.8604H39.6255V63.6781L41.5169 61.07H39.7535V60.8633H41.7781H41.7755Z" fill="#0069B4"/>
<path d="M44.9651 63.6999C44.4948 63.6999 43.9253 63.4116 43.9253 62.3183C43.9253 62.0137 43.9671 60.9503 44.8919 60.9503C45.5581 60.9503 45.9108 61.4399 45.9108 62.3618C45.9108 63.447 45.417 63.7026 44.9677 63.7026L44.9651 63.6999ZM43.8051 64.2629C43.9671 64.9537 44.5967 64.9999 44.918 64.9999C46.1328 64.9999 46.1511 64.0371 46.1511 63.6373V60.8633H45.8977V61.3474H45.8872C45.754 61.0455 45.4562 60.7463 44.871 60.7463C44.1238 60.7463 43.6641 61.3175 43.6641 62.3292C43.6641 62.5821 43.698 63.912 44.9415 63.912C45.3778 63.912 45.7514 63.7026 45.9029 63.3219V63.6754C45.9029 64.7361 45.1662 64.7959 44.9494 64.7959C44.4191 64.7959 44.1709 64.5484 44.0977 64.2656H43.8104L43.8051 64.2629Z" fill="#0069B4"/>
<path d="M47.0681 60.8633V63.8631H46.8173V60.8633H47.0681ZM46.7964 59.7292H47.0838V60.1617H46.7964V59.7292Z" fill="#0069B4"/>
<path d="M48.0086 62.3782C48.0086 61.5052 48.3926 60.9504 49.0431 60.9504C49.6936 60.9504 50.0202 61.5052 50.0202 62.3129C50.0202 63.5531 49.4271 63.7707 49.03 63.7707C48.5363 63.7707 48.0086 63.3926 48.0086 62.3782ZM47.7656 59.7292V63.8604H48.019V63.3818H48.0295C48.1679 63.6836 48.4501 63.9801 49.0196 63.9801C49.9522 63.9801 50.284 63.1642 50.284 62.3211C50.284 61.478 49.9522 60.7464 49.03 60.7464C48.5076 60.7464 48.1732 61.0292 48.019 61.3665V59.732H47.7656V59.7292Z" fill="#0069B4"/>
<path d="M51.0391 60.8633V63.8631H50.7857V60.8633H51.0391ZM50.77 59.7292H51.0574V60.1617H50.77V59.7292Z" fill="#0069B4"/>
</g>
<defs>
<clipPath id="clip0_391_556">
<rect width="65" height="65" fill="white"/>
</clipPath>
</defs>
</svg>
