<svg width="326" height="80" viewBox="0 0 326 80" fill="none" xmlns="http://www.w3.org/2000/svg">
<g clip-path="url(#clip0_443_1225)">
<path d="M75.4895 5.22081C76.6578 3.22919 74.6908 1.02559 71.1562 0.261481C67.6512 -0.487841 63.8109 0.438952 62.5045 2.37141L17.5057 69.2879C14.9718 73.064 16.574 77.767 21.4199 79.4086C26.325 81.0798 32.3591 79.029 34.7451 74.9373L75.4895 5.22081Z" fill="#0069B4"/>
<path d="M2.11993 79.7389C-0.00972038 78.9896 -0.630869 76.8846 0.695234 75.0556L26.2461 39.8868C28.3511 36.998 26.2461 34.4296 26.2461 34.4296L2.9925 5.91587C1.50371 4.08694 3.18969 1.7108 6.67995 0.596673C10.1308 -0.512521 14.1584 -0.0146158 15.7458 1.71573L39.3149 27.5476C39.3149 27.5476 41.3164 29.7364 39.3149 32.645L8.37086 77.7029C7.07926 79.5713 4.27916 80.4931 2.12486 79.7438L2.11993 79.7389Z" fill="#0069B4"/>
<path d="M106.37 0.133125C104.713 -0.207028 103.836 0.113406 102.623 1.03527L62.5687 31.437C62.5687 31.437 59.7341 33.6505 63.1356 37.0619L101.962 76.283C105.635 79.9951 112.098 81.1289 116.15 78.6887C120.119 76.2929 120.133 71.4913 116.342 68.001L76.3671 31.23C74.8931 29.8694 74.7156 29.4553 76.234 28.2475L108.608 2.42053C109.367 1.68107 108.026 0.473278 106.37 0.133125Z" fill="#EF7D00"/>
<path d="M240.966 41.5233C241.923 42.4797 241.923 44.0276 240.966 44.984C240.01 45.9355 238.467 45.9355 237.511 44.984L228.543 36.0168C228.065 35.5386 227.824 34.9125 227.824 34.2865C227.824 33.6604 228.065 33.0294 228.543 32.5561L237.511 23.5889C238.467 22.6276 240.01 22.6276 240.966 23.5889C241.923 24.5403 241.923 26.0883 240.966 27.0397L233.73 34.2865L240.966 41.5233Z" fill="#EF7D00"/>
<path d="M280.385 25.2994C280.385 26.6502 279.285 27.7396 277.935 27.7396C274.321 27.7396 271.393 30.6778 271.393 34.2863V43.2683C271.393 44.6191 270.298 45.7086 268.943 45.7086C267.587 45.7086 266.502 44.6191 266.502 43.2683V34.2863C266.502 27.9861 271.629 22.8542 277.93 22.8542C279.275 22.8542 280.38 23.9487 280.38 25.2945L280.385 25.2994Z" fill="#EF7D00"/>
<path d="M253.163 22.8594C246.862 22.8594 241.73 27.9863 241.73 34.2915C241.73 40.5966 246.862 45.7137 253.163 45.7137C255.603 45.7137 257.866 44.9397 259.729 43.6284C259.902 44.8116 260.912 45.7137 262.14 45.7137C263.49 45.7137 264.58 44.6242 264.58 43.2735V34.2915C264.58 27.9912 259.453 22.8594 253.163 22.8594ZM253.163 40.8234C249.549 40.8234 246.621 37.8951 246.621 34.2865C246.621 30.678 249.549 27.7398 253.163 27.7398C256.776 27.7398 259.694 30.678 259.694 34.2865C259.694 37.8951 256.766 40.8234 253.163 40.8234Z" fill="#EF7D00"/>
<path d="M177.028 25.2994C177.028 26.6502 175.933 27.7396 174.582 27.7396C170.974 27.7396 168.041 30.6778 168.041 34.2863V43.2683C168.041 44.6191 166.941 45.7086 165.591 45.7086C164.24 45.7086 163.155 44.6191 163.155 43.2683V34.2863C163.155 27.9861 168.277 22.8542 174.578 22.8542C175.923 22.8542 177.023 23.9487 177.023 25.2945L177.028 25.2994Z" fill="#0069B4"/>
<path d="M158.689 22.8594C157.338 22.8594 156.239 23.9538 156.239 25.2996V34.5232C156.239 38.1317 153.547 40.8234 149.938 40.8234C146.33 40.8234 143.643 38.1317 143.643 34.5232V25.2996C143.643 23.9538 142.544 22.8594 141.198 22.8594C139.852 22.8594 138.758 23.9538 138.758 25.2996V34.5232C138.758 40.8234 143.643 45.7088 149.943 45.7088C156.244 45.7088 161.144 40.8234 161.144 34.5232V25.2996C161.144 23.9538 160.044 22.8594 158.694 22.8594H158.689Z" fill="#0069B4"/>
<path d="M187.148 22.8592H183.485V18.8069C183.485 17.4611 182.391 16.3667 181.045 16.3667C179.699 16.3667 178.605 17.4562 178.605 18.8069V43.2683C178.605 44.6191 179.694 45.7086 181.045 45.7086C182.396 45.7086 183.485 44.6191 183.485 43.2683V27.7446H187.148C188.499 27.7446 189.593 26.6452 189.593 25.2945C189.593 23.9437 188.499 22.8543 187.148 22.8543V22.8592Z" fill="#0069B4"/>
<path d="M194.015 22.8591C192.665 22.8591 191.575 23.9535 191.575 25.2994V43.2683C191.575 44.6191 192.665 45.7085 194.015 45.7085C195.366 45.7085 196.461 44.6191 196.461 43.2683V25.2994C196.461 23.9535 195.366 22.8591 194.015 22.8591Z" fill="#0069B4"/>
<path d="M194.015 16.3667C192.64 16.3667 191.521 17.4808 191.521 18.8612C191.521 20.2415 192.64 21.3457 194.015 21.3457C195.391 21.3457 196.51 20.2366 196.51 18.8612C196.51 17.4858 195.396 16.3667 194.015 16.3667Z" fill="#0069B4"/>
<path d="M223.806 22.8594C222.455 22.8594 221.366 23.9538 221.366 25.2996V43.2685C221.366 44.6193 222.455 45.7088 223.806 45.7088C225.157 45.7088 226.251 44.6193 226.251 43.2685V25.2996C226.251 23.9538 225.157 22.8594 223.806 22.8594Z" fill="#0069B4"/>
<path d="M221.301 18.8612C221.301 17.4808 222.42 16.3667 223.801 16.3667C225.181 16.3667 226.295 17.4808 226.295 18.8612C226.295 20.2415 225.176 21.3457 223.801 21.3457C222.425 21.3457 221.301 20.2366 221.301 18.8612Z" fill="#0069B4"/>
<path d="M214.873 38.9104C213.69 40.0936 212.053 40.8232 210.249 40.8232C206.64 40.8232 203.702 37.8998 203.702 34.2863C203.702 30.6728 206.64 27.7396 210.249 27.7396C212.053 27.7396 213.695 28.4742 214.873 29.6573C215.829 30.6137 217.377 30.6137 218.334 29.6573C219.285 28.7009 219.285 27.1579 218.334 26.2015C216.263 24.1311 213.404 22.8542 210.249 22.8542C203.939 22.8542 198.822 27.9713 198.822 34.2863C198.822 39.7584 202.682 44.3381 207.819 45.4473C207.814 45.536 207.804 45.6198 207.804 45.7086V48.1488C207.804 49.5045 208.893 50.589 210.244 50.589C211.595 50.589 212.689 49.4996 212.689 48.1488V45.7086C212.689 45.6149 212.684 45.536 212.679 45.4473C214.858 44.974 216.806 43.8846 218.334 42.3563C219.285 41.4098 219.285 39.8619 218.334 38.9104C217.377 37.959 215.829 37.959 214.873 38.9104Z" fill="#0069B4"/>
<path d="M314.257 22.8594C307.956 22.8594 302.834 27.9863 302.834 34.2915C302.834 40.5966 307.956 45.7137 314.257 45.7137C320.557 45.7137 325.679 40.5868 325.679 34.2915C325.679 27.9962 320.557 22.8594 314.257 22.8594ZM314.257 40.8234C310.648 40.8234 307.715 37.8951 307.715 34.2865C307.715 30.678 310.648 27.7398 314.257 27.7398C317.865 27.7398 320.798 30.678 320.798 34.2865C320.798 37.8951 317.865 40.8234 314.257 40.8234Z" fill="#EF7D00"/>
<path d="M301.627 47.3651C301.627 53.6801 296.623 58.7972 290.436 58.7972C285.472 58.7972 286.34 55.652 286.34 55.652C286.34 55.652 286.739 53.7787 288.667 53.7787C289.13 53.7787 289.598 53.9168 290.436 53.9168C293.917 53.9168 296.737 50.9786 296.737 47.37V43.653C294.888 44.9594 292.625 45.7186 290.195 45.7186C283.895 45.7186 278.768 40.5916 278.768 34.2964C278.768 28.0011 283.89 22.8643 290.195 22.8643C296.5 22.8643 301.627 27.9912 301.627 34.2964V47.37V47.3651ZM296.737 34.2865C296.737 30.6779 293.808 27.7398 290.195 27.7398C286.581 27.7398 283.658 30.6779 283.658 34.2865C283.658 37.8951 286.586 40.8233 290.195 40.8233C293.803 40.8233 296.737 37.8951 296.737 34.2865Z" fill="#EF7D00"/>
<path d="M125.457 53.9069C128.933 53.9069 131.747 50.9737 131.747 47.3651V43.6481C129.899 44.9446 127.887 45.7137 125.457 45.7137C119.157 45.7137 114.271 40.7839 114.271 34.4837V25.3045C114.271 23.9587 115.361 22.8643 116.717 22.8643C118.072 22.8643 119.152 23.9587 119.152 25.3045V34.4837C119.152 38.0923 121.839 40.8283 125.452 40.8283C129.066 40.8283 131.743 38.1366 131.743 34.528V25.3045C131.743 23.9587 132.842 22.8643 134.183 22.8643C135.524 22.8643 136.628 23.9587 136.628 25.3045V47.3651C136.628 53.6752 131.619 58.7972 125.447 58.7972C120.478 58.7972 121.346 55.652 121.346 55.652C121.346 55.652 121.745 53.7689 123.663 53.7689C124.131 53.7689 124.599 53.9069 125.442 53.9069H125.457Z" fill="#0069B4"/>
<path d="M141.893 64.1509C141.873 65.7531 142.849 67.7102 146.078 67.7102C149.573 67.7102 149.894 65.5707 149.894 64.7376C149.894 62.8544 148.119 62.3368 146.749 62.0361C146.192 61.9276 145.649 61.8192 145.087 61.7058C143.46 61.3705 141.203 60.8924 141.203 58.4719C141.203 56.9239 142.115 54.8386 145.906 54.8386C149.312 54.8386 150.323 56.9584 150.461 58.5113H149.524C149.45 57.6437 148.923 55.6126 145.856 55.6126C143.51 55.6126 142.139 56.7612 142.139 58.3831C142.139 60.2663 143.653 60.6015 145.896 61.0057C147.478 61.2818 150.835 61.6762 150.835 64.7573C150.835 66.2017 150.195 68.4891 146.063 68.4891C141.932 68.4891 140.946 66.039 140.961 64.1509H141.898H141.893Z" fill="#0069B4"/>
<path d="M153.005 63.505C153.005 60.8429 154.148 59.0879 156.52 59.0879C158.891 59.0879 160.035 60.8429 160.035 63.505C160.035 66.167 158.896 67.9171 156.52 67.9171C154.144 67.9171 153.005 66.1621 153.005 63.505ZM152.147 63.505C152.147 66.2903 153.399 68.5629 156.52 68.5629C159.64 68.5629 160.887 66.2903 160.887 63.505C160.887 60.7196 159.635 58.4372 156.52 58.4372C153.404 58.4372 152.147 60.7098 152.147 63.505ZM154.109 56.6132H155.041V55.2673H154.109V56.6132ZM157.994 56.6132H158.93V55.2673H157.994V56.6132Z" fill="#0069B4"/>
<path d="M168.795 58.812V59.5465L162.854 67.5475H169.036V68.1933H161.799V67.6215L167.947 59.4578H162.208V58.812H168.795Z" fill="#0069B4"/>
<path d="M181.74 58.812H182.677L179.128 68.1933H178.151L174.602 58.812H175.534L178.63 67.3257L181.735 58.812H181.74Z" fill="#0069B4"/>
<path d="M183.988 62.9529C184.032 61.5824 184.624 59.0929 187.449 59.0929C190.273 59.0929 190.697 61.5528 190.697 62.9529H183.988ZM190.643 65.4818C190.402 66.7931 189.376 67.922 187.542 67.922C184.589 67.922 184.008 65.2304 183.988 63.5987H191.575C191.639 58.8661 188.947 58.4421 187.508 58.4421C183.244 58.4421 183.14 62.5092 183.14 63.3818C183.14 68.5531 186.729 68.5678 187.508 68.5678C190.328 68.5678 191.245 66.6896 191.466 65.4867H190.648L190.643 65.4818Z" fill="#0069B4"/>
<path d="M197.634 59.4578H197.225C196.012 59.5022 193.991 59.9015 193.991 63.7122V68.1934H193.167V58.812H193.991V60.7494H194.03C194.479 59.586 195.657 58.6296 197.205 58.6296H197.634V59.4578Z" fill="#0069B4"/>
<path d="M199.049 63.3571C199.049 61.3556 199.833 59.0879 202.189 59.0879C204.299 59.0879 205.551 60.8281 205.551 63.5641C205.551 66.7389 203.836 67.922 202.224 67.922C201.519 67.922 199.044 67.7396 199.044 63.362L199.049 63.3571ZM205.517 55.2723V60.3844C204.915 59.1273 203.648 58.4372 202.224 58.4372C200.054 58.4372 198.186 59.8668 198.186 63.3768C198.186 64.4071 198.359 68.5629 202.263 68.5629C204.619 68.5629 205.324 67.0741 205.467 66.7044H205.512V68.1931H206.335V55.2673H205.512L205.517 55.2723Z" fill="#0069B4"/>
<path d="M209.495 58.812V68.1933H208.666V58.812H209.495ZM208.617 55.2725H209.549V56.6183H208.617V55.2725Z" fill="#0069B4"/>
<path d="M215.647 67.6954C214.114 67.6954 212.265 66.7933 212.265 63.377C212.265 62.4157 212.388 59.0881 215.405 59.0881C217.574 59.0881 218.713 60.6163 218.713 63.5051C218.713 66.8968 217.111 67.6954 215.652 67.6954H215.647ZM211.871 69.4504C212.393 71.6146 214.459 71.7575 215.504 71.7575C219.443 71.7575 219.502 68.7504 219.502 67.4933V58.812H218.679V60.3255H218.644C218.215 59.3789 217.244 58.4374 215.336 58.4374C212.911 58.4374 211.407 60.2318 211.407 63.3868C211.407 64.1854 211.53 68.3412 215.563 68.3412C216.978 68.3412 218.2 67.6905 218.679 66.4926V67.5968C218.679 70.9244 216.288 71.1068 215.583 71.1068C213.862 71.1068 213.059 70.3279 212.812 69.4455H211.876L211.871 69.4504ZM213.108 55.2725C213.221 56.3028 213.985 57.4317 215.686 57.4317C217.387 57.4317 218.151 56.3028 218.269 55.2725H217.579C217.52 56.0563 216.938 56.8746 215.686 56.8746C214.434 56.8746 213.857 56.0563 213.798 55.2725H213.108Z" fill="#0069B4"/>
<path d="M222.978 58.812V68.1933H222.159V58.812H222.978ZM222.105 55.2725H223.032V56.6183H222.105V55.2725Z" fill="#0069B4"/>
<path d="M226.507 58.8119V60.1775C226.877 59.4183 227.74 58.4373 229.441 58.4373C230.737 58.4373 231.831 59.1274 232.112 60.3254C232.507 59.5119 233.404 58.4373 235.272 58.4373C238.112 58.4373 238.132 61.0845 238.132 61.9127V68.1932H237.304V62.0064C237.304 61.4148 237.304 59.088 235.253 59.088C233.961 59.088 232.315 59.8669 232.315 62.3416V68.1932H231.491V62.0064C231.491 61.5085 231.491 59.088 229.396 59.088C227.814 59.088 226.502 60.5127 226.502 62.4747V68.1932H225.684V58.8119H226.502H226.507Z" fill="#0069B4"/>
<path d="M241.272 58.812V68.1933H240.449V58.812H241.272ZM240.39 55.2725H241.326V56.6183H240.39V55.2725Z" fill="#0069B4"/>
<path d="M250.264 58.812V59.5465L244.323 67.5475H250.51V68.1933H243.278V67.6215L249.426 59.4578H243.692V58.812H250.269H250.264Z" fill="#0069B4"/>
<path d="M260.641 67.6953C259.103 67.6953 257.254 66.7932 257.254 63.3769C257.254 62.4156 257.383 59.088 260.39 59.088C262.559 59.088 263.703 60.6162 263.703 63.505C263.703 66.8967 262.09 67.6953 260.641 67.6953ZM256.86 69.4503C257.383 71.6145 259.438 71.7574 260.478 71.7574C264.422 71.7574 264.476 68.7503 264.476 67.4932V58.8119H263.653V60.3254H263.619C263.185 59.3788 262.224 58.4373 260.306 58.4373C257.88 58.4373 256.382 60.2317 256.382 63.3867C256.382 64.1853 256.5 68.3411 260.533 68.3411C261.948 68.3411 263.17 67.6904 263.653 66.4925V67.5967C263.653 70.9243 261.262 71.1067 260.552 71.1067C258.837 71.1067 258.033 70.3278 257.792 69.4454H256.86V69.4503Z" fill="#0069B4"/>
<path d="M267.459 58.812V68.1933H266.64V58.812H267.459ZM266.581 55.2725H267.523V56.6183H266.581V55.2725Z" fill="#0069B4"/>
<path d="M270.52 63.5643C270.52 60.8283 271.772 59.0881 273.887 59.0881C276.002 59.0881 277.062 60.8283 277.062 63.3573C277.062 67.232 275.134 67.9173 273.848 67.9173C272.241 67.9173 270.52 66.7341 270.52 63.5594V63.5643ZM269.736 55.2725V68.1983H270.56V66.7095H270.594C271.043 67.656 271.965 68.568 273.813 68.568C276.83 68.568 277.91 66.0193 277.91 63.3819C277.91 60.7445 276.83 58.4423 273.843 58.4423C272.147 58.4423 271.058 59.3296 270.555 60.3895V55.2774H269.731L269.736 55.2725Z" fill="#0069B4"/>
<path d="M280.37 58.812V68.1933H279.546V58.812H280.37ZM279.487 55.2725H280.424V56.6183H279.487V55.2725Z" fill="#0069B4"/>
</g>
<defs>
<clipPath id="clip0_443_1225">
<rect width="325.679" height="80" fill="white"/>
</clipPath>
</defs>
</svg>
