<svg width="50" height="46" viewBox="0 0 50 46" fill="none" xmlns="http://www.w3.org/2000/svg">
<g id="g-drive">
<path id="Vector" d="M25.0045 15.0145L17.2175 1.27217C17.4761 1.00893 17.7736 0.836268 18.071 0.720215C15.7747 1.47597 14.721 4.05461 14.721 4.05461L0.495389 29.1532C0.295223 29.9401 0.239617 30.6506 0.264637 31.2761H15.7914L25.0045 15.0145Z" fill="#34A853"/>
<path id="Vector_2" d="M25.0044 15.0145L34.2176 31.2761H49.7443C49.7693 30.6506 49.7137 29.9401 49.5135 29.1532L35.2879 4.05461C35.2879 4.05461 34.2315 1.47597 31.9379 0.720215C32.2326 0.836268 32.5328 1.00893 32.7914 1.27217L25.0044 15.0145Z" fill="#FBBC05"/>
<path id="Vector_3" d="M25.0043 15.0152L32.7913 1.27285C32.5327 1.00961 32.2325 0.836943 31.9378 0.72089C31.5986 0.610498 31.2344 0.536904 30.8397 0.51709H30.4282H19.5803H19.1689C18.7769 0.534073 18.4099 0.607668 18.0708 0.72089C17.7761 0.836943 17.4758 1.00961 17.2173 1.27285L25.0043 15.0152Z" fill="#188038"/>
<path id="Vector_4" d="M15.794 31.2761L8.09596 44.8628C8.09596 44.8628 7.84019 44.7383 7.49268 44.4807C8.58525 45.3214 9.64723 45.4997 9.64723 45.4997H39.8806C41.5486 45.4997 41.8961 44.8628 41.8961 44.8628C41.9017 44.86 41.9045 44.8572 41.91 44.8543L34.2176 31.2761H15.794Z" fill="#4285F4"/>
<path id="Vector_5" d="M15.7945 31.2761H0.267822C0.345664 33.1216 1.14633 34.2001 1.14633 34.2001L1.73014 35.2134C1.77185 35.2729 1.79686 35.3068 1.79686 35.3068L3.06736 37.5373L5.91971 42.5021C6.00311 42.7031 6.10042 42.8871 6.20329 43.0626C6.24221 43.122 6.27834 43.1871 6.32004 43.2437C6.33116 43.2607 6.34228 43.2777 6.3534 43.2947C6.70647 43.7929 7.10125 44.1778 7.49602 44.4807C7.84353 44.7411 8.0993 44.8628 8.0993 44.8628L15.7945 31.2761Z" fill="#1967D2"/>
<path id="Vector_6" d="M34.2175 31.2761H49.7442C49.6664 33.1216 48.8657 34.2001 48.8657 34.2001L48.2819 35.2134C48.2402 35.2729 48.2152 35.3068 48.2152 35.3068L46.9447 37.5373L44.0923 42.5021C44.0089 42.7031 43.9117 42.8871 43.8088 43.0626C43.7699 43.122 43.7337 43.1871 43.692 43.2437C43.6809 43.2607 43.6698 43.2777 43.6587 43.2947C43.3056 43.7929 42.9108 44.1778 42.516 44.4807C42.1685 44.7411 41.9128 44.8628 41.9128 44.8628L34.2175 31.2761Z" fill="#EA4335"/>
</g>
</svg>
