<svg width="23" height="23" viewBox="0 0 23 23" fill="none" xmlns="http://www.w3.org/2000/svg">
<g id="Social icon" clip-path="url(#clip0_33_290)">
<path id="Vector" d="M22.2855 12.0534C22.2855 11.3057 22.2249 10.5539 22.0956 9.81824H11.72V14.0541H17.6616C17.415 15.4203 16.6228 16.6288 15.4628 17.3968V20.1453H19.0075C21.0891 18.2294 22.2855 15.4001 22.2855 12.0534Z" fill="#4285F4"/>
<path id="Vector_2" d="M15.4547 17.7038L18.621 20.1589C16.8693 21.6728 14.5112 22.5508 11.72 22.5508C7.675 22.5508 3.97435 20.2819 2.14011 16.6824V14.1587H5.37066C6.32253 16.769 8.80152 18.6977 11.724 18.6977C13.1759 18.6977 14.4448 18.3437 15.4547 17.7038Z" fill="#34A853" stroke="#565E73" stroke-width="0.5"/>
<path id="Vector_3" d="M5.544 13.9087C5.08322 12.5425 5.08322 11.0632 5.544 9.69701V6.86365H1.89013C0.329959 9.97186 0.329959 13.6338 1.89013 16.742L5.544 13.9087Z" fill="#FBBC04"/>
<path id="Vector_4" d="M11.72 5.1539C13.2882 5.12965 14.8039 5.71977 15.9397 6.80299L19.0803 3.66245C17.0917 1.79509 14.4523 0.768455 11.72 0.80079C7.56088 0.80079 3.75746 3.14509 1.89011 6.86362L5.54397 9.69699C6.41298 7.08997 8.85024 5.1539 11.72 5.1539Z" fill="#EA4335"/>
</g>
<defs>
<clipPath id="clip0_33_290">
<rect width="22" height="22" fill="white" transform="translate(0.5 0.800049)"/>
</clipPath>
</defs>
</svg>
