<svg width="42" height="58" viewBox="0 0 42 58" fill="none" xmlns="http://www.w3.org/2000/svg">
<path fill-rule="evenodd" clip-rule="evenodd" d="M41.5713 20.8013L41.571 20.9106C41.5708 20.9566 41.5704 21.0027 41.5698 21.0487C41.5708 21.1025 41.5713 21.1566 41.5713 21.2113C41.5713 29.7902 34.8875 37.3841 30.4149 42.4658C29.117 43.9403 28.0054 45.2033 27.2973 46.2175C24.7783 49.8249 23.4489 53.7331 23.099 55.2361C23.099 56.3681 22.1592 57.2858 20.9999 57.2858C19.8406 57.2858 18.9008 56.3681 18.9008 55.2361C18.5509 53.7331 17.2215 49.8249 14.7025 46.2175C13.9944 45.2033 12.8827 43.9403 11.5849 42.4658C7.11231 37.3841 0.428467 29.7902 0.428467 21.2113C0.428467 21.1566 0.428979 21.1025 0.430004 21.0487C0.428979 20.9663 0.428467 20.8839 0.428467 20.8013C0.428467 9.70757 9.63858 0.714355 20.9999 0.714355C32.3612 0.714355 41.5713 9.70757 41.5713 20.8013ZM20.9999 28.1802C25.4053 28.1802 28.9766 24.693 28.9766 20.3914C28.9766 16.0897 25.4053 12.6026 20.9999 12.6026C16.5945 12.6026 13.0232 16.0897 13.0232 20.3914C13.0232 24.693 16.5945 28.1802 20.9999 28.1802Z" fill="#34A851"/>
<path d="M39.271 11.562C36.752 6.82261 32.3557 3.18742 27.0438 1.5957L15.2292 15.0152C16.6818 13.529 18.7304 12.6032 21.0004 12.6032C25.4058 12.6032 28.977 16.0904 28.977 20.392C28.977 22.1468 28.3827 23.7662 27.3799 25.0685L39.271 11.562Z" fill="#4285F5"/>
<path d="M11.8234 42.737C11.7446 42.6474 11.6651 42.5571 11.5848 42.4659C8.63663 39.1163 4.72768 34.6751 2.40552 29.5797L14.6849 15.6323C13.6431 16.9485 13.0231 18.5993 13.0231 20.3915C13.0231 24.6932 16.5944 28.1804 20.9998 28.1804C23.2314 28.1804 25.2489 27.2855 26.6967 25.8433L11.8234 42.737Z" fill="#F9BB0E"/>
<path d="M5.29587 7.82593C2.25951 11.3262 0.428467 15.855 0.428467 20.8015C0.428467 20.8841 0.428979 20.9666 0.430004 21.0489C0.428979 21.1027 0.428467 21.1568 0.428467 21.2115C0.428467 24.1355 1.20493 26.9451 2.40562 29.5798L14.6643 15.6559L5.29587 7.82593Z" fill="#E74335"/>
<path d="M27.044 1.59518C25.1331 1.02261 23.1037 0.714355 21.0006 0.714355C14.7051 0.714355 9.07009 3.47573 5.29663 7.82572L14.6651 15.6556L14.6855 15.6325C14.8559 15.4172 15.0376 15.2108 15.2297 15.0142L27.044 1.59518Z" fill="#1A73E6"/>
</svg>
