<svg width="72" height="72" viewBox="0 0 72 72" fill="none" xmlns="http://www.w3.org/2000/svg">
<g id="instagram">
<rect id="bg" x="4.5" y="4.5" width="63" height="63" rx="6" fill="url(#paint0_radial_396_691)"/>
<rect id="bg_2" x="4.5" y="4.5" width="63" height="63" rx="6" fill="url(#paint1_radial_396_691)"/>
<rect id="bg_3" x="4.5" y="4.5" width="63" height="63" rx="6" fill="url(#paint2_radial_396_691)"/>
<g id="instagram_2">
<path d="M51.75 23.625C51.75 25.489 50.239 27 48.375 27C46.511 27 45 25.489 45 23.625C45 21.761 46.511 20.25 48.375 20.25C50.239 20.25 51.75 21.761 51.75 23.625Z" fill="white"/>
<path fill-rule="evenodd" clip-rule="evenodd" d="M36 47.25C42.2132 47.25 47.25 42.2132 47.25 36C47.25 29.7868 42.2132 24.75 36 24.75C29.7868 24.75 24.75 29.7868 24.75 36C24.75 42.2132 29.7868 47.25 36 47.25ZM36 42.75C39.7279 42.75 42.75 39.7279 42.75 36C42.75 32.2721 39.7279 29.25 36 29.25C32.2721 29.25 29.25 32.2721 29.25 36C29.25 39.7279 32.2721 42.75 36 42.75Z" fill="white"/>
<path fill-rule="evenodd" clip-rule="evenodd" d="M13.5 35.1C13.5 27.5393 13.5 23.7589 14.9714 20.8711C16.2657 18.3309 18.3309 16.2657 20.8711 14.9714C23.7589 13.5 27.5393 13.5 35.1 13.5H36.9C44.4607 13.5 48.2411 13.5 51.1289 14.9714C53.6691 16.2657 55.7343 18.3309 57.0286 20.8711C58.5 23.7589 58.5 27.5393 58.5 35.1V36.9C58.5 44.4607 58.5 48.2411 57.0286 51.1289C55.7343 53.6691 53.6691 55.7343 51.1289 57.0286C48.2411 58.5 44.4607 58.5 36.9 58.5H35.1C27.5393 58.5 23.7589 58.5 20.8711 57.0286C18.3309 55.7343 16.2657 53.6691 14.9714 51.1289C13.5 48.2411 13.5 44.4607 13.5 36.9V35.1ZM35.1 18H36.9C40.7546 18 43.3749 18.0035 45.4003 18.169C47.3732 18.3302 48.3821 18.6223 49.0859 18.9809C50.7794 19.8438 52.1562 21.2206 53.0191 22.9141C53.3777 23.6179 53.6698 24.6268 53.831 26.5997C53.9965 28.6251 54 31.2454 54 35.1V36.9C54 40.7546 53.9965 43.3749 53.831 45.4003C53.6698 47.3732 53.3777 48.3821 53.0191 49.0859C52.1562 50.7794 50.7794 52.1562 49.0859 53.0191C48.3821 53.3777 47.3732 53.6698 45.4003 53.831C43.3749 53.9965 40.7546 54 36.9 54H35.1C31.2454 54 28.6251 53.9965 26.5997 53.831C24.6268 53.6698 23.6179 53.3777 22.9141 53.0191C21.2206 52.1562 19.8438 50.7794 18.9809 49.0859C18.6223 48.3821 18.3302 47.3732 18.169 45.4003C18.0035 43.3749 18 40.7546 18 36.9V35.1C18 31.2454 18.0035 28.6251 18.169 26.5997C18.3302 24.6268 18.6223 23.6179 18.9809 22.9141C19.8438 21.2206 21.2206 19.8438 22.9141 18.9809C23.6179 18.6223 24.6268 18.3302 26.5997 18.169C28.6251 18.0035 31.2454 18 35.1 18Z" fill="white"/>
</g>
</g>
<defs>
<radialGradient id="paint0_radial_396_691" cx="0" cy="0" r="1" gradientUnits="userSpaceOnUse" gradientTransform="translate(27 51.75) rotate(-55.3758) scale(57.4191)">
<stop stop-color="#B13589"/>
<stop offset="0.79309" stop-color="#C62F94"/>
<stop offset="1" stop-color="#8A3AC8"/>
</radialGradient>
<radialGradient id="paint1_radial_396_691" cx="0" cy="0" r="1" gradientUnits="userSpaceOnUse" gradientTransform="translate(24.75 69.75) rotate(-65.1363) scale(50.8371)">
<stop stop-color="#E0E8B7"/>
<stop offset="0.444662" stop-color="#FB8A2E"/>
<stop offset="0.71474" stop-color="#E2425C"/>
<stop offset="1" stop-color="#E2425C" stop-opacity="0"/>
</radialGradient>
<radialGradient id="paint2_radial_396_691" cx="0" cy="0" r="1" gradientUnits="userSpaceOnUse" gradientTransform="translate(1.125 6.75) rotate(-8.1301) scale(87.5045 18.7163)">
<stop offset="0.156701" stop-color="#406ADC"/>
<stop offset="0.467799" stop-color="#6A45BE"/>
<stop offset="1" stop-color="#6A45BE" stop-opacity="0"/>
</radialGradient>
</defs>
</svg>
