<svg width="72" height="31" viewBox="0 0 72 31" fill="none" xmlns="http://www.w3.org/2000/svg">
<g clip-path="url(#clip0_700_1204)">
<path fill-rule="evenodd" clip-rule="evenodd" d="M17.0623 6.7093C17.5207 5.82712 18.6079 5.48301 19.4916 5.94232C20.3755 6.40254 20.7186 7.49082 20.2576 8.37465L12.0408 24.2306C11.7315 24.8234 11.1387 25.1717 10.5165 25.1978C10.2106 25.2128 9.89802 25.15 9.60792 24.9965C8.72412 24.5378 8.38137 23.4495 8.84097 22.5656L11.1645 18.0774L6.13212 8.37465C5.67253 7.49082 6.01767 6.40254 6.90042 5.94232C7.78302 5.48301 8.87232 5.82712 9.32997 6.7093L13.1959 14.1624L17.0623 6.7093ZM50.1337 5.49868C52.0831 5.49868 53.9156 6.25771 55.2946 7.63685C55.9957 8.34112 55.9957 9.48221 55.2946 10.1866C54.5894 10.8888 53.4481 10.8888 52.7449 10.1866C52.0462 9.48761 51.1216 9.1048 50.1337 9.1048C49.1485 9.1048 48.2224 9.48761 47.5256 10.1866C46.8281 10.8812 46.4449 11.8089 46.4449 12.7954C46.4449 13.7809 46.8281 14.7076 47.5256 15.4053C48.2224 16.1001 49.1485 16.4885 50.1337 16.4885C51.1216 16.4885 52.0462 16.1001 52.7449 15.4053C53.4481 14.7003 54.5894 14.7003 55.2946 15.4053C55.9957 16.1091 55.9957 17.251 55.2946 17.9519C53.9156 19.3314 52.0831 20.0916 50.1337 20.0916C48.1867 20.0916 46.355 19.3314 44.9771 17.9519C43.5991 16.577 42.8396 14.7433 42.8396 12.7954C42.8396 10.8453 43.5991 9.016 44.9771 7.63685C46.355 6.25771 48.1867 5.49868 50.1337 5.49868ZM64.7048 5.49864C68.7275 5.49864 72 8.77159 72 12.7953C72 16.8183 68.7275 20.0917 64.7048 20.0917C60.6837 20.0917 57.4116 16.8183 57.4116 12.7953C57.4116 8.77159 60.6837 5.49864 64.7048 5.49864ZM1.9905 5.73952C2.98575 5.73952 3.79259 6.54654 3.79259 7.53927V18.0807C3.79259 19.0769 2.98575 19.8818 1.9905 19.8818C0.995248 19.8818 0.1881 19.0769 0.1881 18.0807V7.53927C0.1881 6.54654 0.995248 5.73952 1.9905 5.73952ZM31.9481 5.73874C31.971 5.73875 31.993 5.73876 32.0142 5.73878L32.2685 5.73905C32.281 5.73907 32.2925 5.73909 32.3031 5.73911L32.3817 5.7394L32.3856 5.73949C32.8163 5.72478 33.2511 5.86219 33.6062 6.1613C34.3676 6.79777 34.4672 7.93646 33.8288 8.69803L27.4673 16.2775H32.4455C33.4415 16.2775 34.2495 17.0866 34.2495 18.0807C34.2495 19.077 33.4415 19.8818 32.4455 19.8818H23.6033C23.1944 19.8818 22.7822 19.7457 22.4447 19.4601C21.6833 18.8219 21.5828 17.6862 22.2232 16.9219L28.5836 9.345H24.4255C23.429 9.345 22.6234 8.53588 22.6234 7.53939C22.6234 6.54651 23.429 5.73949 24.4255 5.73949L24.5781 5.73944C24.5923 5.73944 24.6073 5.73943 24.6232 5.73943L25.8553 5.7391C25.8922 5.73909 25.9296 5.73908 25.9674 5.73907L27.3569 5.73877C27.4022 5.73876 27.4476 5.73875 27.4933 5.73874L31.9481 5.73874ZM38.6763 5.73952C39.6735 5.73952 40.4784 6.54654 40.4784 7.53927V18.0807C40.4784 19.0769 39.6735 19.8818 38.6763 19.8818C37.6819 19.8818 36.8763 19.0769 36.8763 18.0807V7.53927C36.8763 6.54654 37.6819 5.73952 38.6763 5.73952ZM64.7048 9.10475C62.6706 9.10475 61.0169 10.7599 61.0169 12.7953C61.0169 14.8301 62.6706 16.4884 64.7048 16.4884C66.7403 16.4884 68.3964 14.8301 68.3964 12.7953C68.3964 10.7599 66.7403 9.10475 64.7048 9.10475ZM1.9905 0C3.0894 0 3.98174 0.891929 3.98174 1.99221C3.98174 3.09025 3.0894 3.98383 1.9905 3.98383C0.891599 3.98383 0 3.09025 0 1.99221C0 0.891929 0.891599 0 1.9905 0ZM38.6763 0C39.7773 0 40.6687 0.891929 40.6687 1.99221C40.6687 3.09025 39.7773 3.98383 38.6763 3.98383C37.5762 3.98383 36.6847 3.09025 36.6847 1.99221C36.6847 0.891929 37.5762 0 38.6763 0Z" fill="#1E64FF"/>
<path d="M35.8296 26.317C36.0459 26.317 36.2094 26.4844 36.2094 26.6794C36.2094 26.7556 36.1821 26.8189 36.1596 26.8687L34.554 30.4795C34.4685 30.6775 34.3194 30.763 34.1625 30.763C33.9537 30.763 33.8055 30.5953 33.8055 30.4006C33.8055 30.3226 33.8304 30.262 33.8469 30.2134L34.2 29.4085L33.0483 26.8687C33.03 26.8189 33.0048 26.7556 33.0048 26.6794C33.0048 26.4844 33.1653 26.317 33.3771 26.317C33.5316 26.317 33.6789 26.4028 33.7677 26.6017L34.5963 28.5205L35.4465 26.6017C35.5308 26.4028 35.6748 26.317 35.8296 26.317ZM69.4949 26.317C69.6299 26.317 69.7349 26.4283 69.7349 26.5528C69.7349 26.6017 69.7232 26.6329 69.7115 26.6686L68.0129 30.5908C67.9634 30.7078 67.8704 30.763 67.7708 30.763C67.6343 30.763 67.5404 30.6517 67.5404 30.5293C67.5404 30.4795 67.5533 30.4492 67.5674 30.4114L67.9829 29.4442L66.7676 26.6686C66.7547 26.6329 66.7418 26.6017 66.7418 26.5528C66.7418 26.4283 66.8492 26.317 66.9839 26.317C67.0829 26.317 67.1777 26.3713 67.2263 26.4901L68.237 28.8568L69.2504 26.4901C69.3011 26.3713 69.3944 26.317 69.4949 26.317ZM57.6358 26.2976C58.324 26.2976 59.161 26.8439 59.161 27.9452C59.161 29.0582 58.324 29.6012 57.6358 29.6012C57.091 29.6012 56.671 29.2745 56.539 28.9055V30.5045C56.539 30.6452 56.4172 30.7631 56.2807 30.7631C56.1388 30.7631 56.0221 30.6452 56.0221 30.5045V26.5766C56.0221 26.4332 56.1313 26.3171 56.2807 26.3171C56.4172 26.3171 56.5336 26.4332 56.5336 26.5766V26.9498C56.7262 26.5337 57.1642 26.2976 57.6358 26.2976ZM40.005 25.2C40.2324 25.2 40.4076 25.3845 40.4076 25.6062V28.0023C40.4076 29.0043 39.6393 29.6013 38.6787 29.6013C37.7139 29.6013 36.951 29.0043 36.951 28.0023V25.6062C36.951 25.3845 37.1298 25.2 37.359 25.2C37.5894 25.2 37.7862 25.3845 37.7862 25.6062V27.9894C37.7862 28.6395 38.2038 28.8969 38.6787 28.8969C39.1635 28.8969 39.5703 28.6395 39.5703 27.9894V25.6062C39.5703 25.3845 39.768 25.2 40.005 25.2ZM30.7032 26.2977C31.1445 26.2977 31.497 26.5335 31.6197 26.8254V26.7171C31.6197 26.502 31.8078 26.3169 32.0292 26.3169C32.2464 26.3169 32.4435 26.502 32.4435 26.7171V29.1903C32.4435 29.4141 32.2464 29.5926 32.0292 29.5926C31.8078 29.5926 31.6197 29.4141 31.6197 29.1903V29.0718C31.5726 29.2638 31.2429 29.6013 30.7032 29.6013C30.0228 29.6013 29.205 29.0718 29.205 27.945C29.205 26.844 30.027 26.2977 30.7032 26.2977ZM47.7803 26.2976C48.5006 26.2976 49.3964 26.8493 49.3964 27.9518C49.3964 29.0582 48.5006 29.6012 47.7803 29.6012C47.0684 29.6012 46.1684 29.0582 46.1684 27.9518C46.1684 26.8493 47.0684 26.2976 47.7803 26.2976ZM61.1309 26.2976C61.6001 26.2976 62.0408 26.5337 62.2325 26.9498V26.5766C62.2325 26.4332 62.3522 26.3171 62.4866 26.3171C62.6357 26.3171 62.7449 26.4332 62.7449 26.5766V29.333C62.7449 29.4683 62.6303 29.5925 62.4866 29.5925C62.3522 29.5925 62.2325 29.4683 62.2325 29.333V28.8875C62.1089 29.264 61.6817 29.6012 61.1309 29.6012C60.4442 29.6012 59.6081 29.0582 59.6081 27.9452C59.6081 26.8439 60.4442 26.2976 61.1309 26.2976ZM21.054 26.2976C21.5235 26.2976 21.9627 26.5337 22.1553 26.9498V26.5766C22.1553 26.4332 22.2732 26.3171 22.4094 26.3171C22.5585 26.3171 22.6692 26.4332 22.6692 26.5766V29.333C22.6692 29.4683 22.5498 29.5925 22.4094 29.5925C22.2732 29.5925 22.1553 29.4683 22.1553 29.333V28.8875C22.0311 29.264 21.6036 29.6012 21.054 29.6012C20.364 29.6012 19.53 29.0582 19.53 27.9452C19.53 26.8439 20.364 26.2976 21.054 26.2976ZM27.3077 25.2203C28.2725 25.2203 28.892 25.8458 28.892 26.6264C28.892 27.4208 28.2725 28.0187 27.3077 28.0187H26.5514V29.1791C26.5514 29.4086 26.3663 29.6012 26.1359 29.6012C25.9013 29.6012 25.715 29.4086 25.715 29.1791V25.6778C25.715 25.4117 25.9067 25.2203 26.174 25.2203H27.3077ZM44.5219 26.2976C44.9698 26.2976 45.3584 26.4575 45.6311 26.7884C45.6805 26.8493 45.7489 26.9177 45.7489 27.0158C45.7489 27.1406 45.6494 27.2282 45.5315 27.2282C45.4397 27.2282 45.3649 27.1718 45.3142 27.1088C45.1288 26.8625 44.8207 26.7509 44.5471 26.7509C43.9963 26.7509 43.4209 27.1466 43.4209 27.9449C43.4209 28.739 43.9963 29.135 44.5471 29.135C44.8207 29.135 45.1288 29.0234 45.3142 28.7768C45.3649 28.7117 45.4397 28.6577 45.5315 28.6577C45.6494 28.6577 45.7489 28.7456 45.7489 28.8701C45.7489 28.9685 45.6805 29.0342 45.6311 29.0927C45.3584 29.4197 44.9698 29.5883 44.5219 29.5883C43.7908 29.5883 42.9107 29.0474 42.9107 27.9449C42.9107 26.8385 43.7908 26.2976 44.5219 26.2976ZM54.0511 26.302C54.6382 26.302 55.2574 26.6557 55.2574 27.6841V29.3287C55.2574 29.4616 55.1455 29.5882 55.0054 29.5882C54.8614 29.5882 54.7438 29.4616 54.7438 29.3287V27.6841C54.7438 27.0103 54.3421 26.7556 53.9083 26.7556C53.2756 26.7556 52.9543 27.2887 52.8967 27.6424V29.3287C52.8967 29.4616 52.7803 29.5882 52.6372 29.5882C52.4938 29.5882 52.3828 29.4616 52.3828 29.3287V27.6841C52.3828 27.0103 51.9742 26.7556 51.5404 26.7556C50.9098 26.7556 50.5876 27.2887 50.5324 27.6424V29.3287C50.5324 29.4616 50.4154 29.5882 50.2771 29.5882C50.1352 29.5882 50.0176 29.4616 50.0176 29.3287V26.5765C50.0176 26.4331 50.1352 26.317 50.2771 26.317C50.4154 26.317 50.5324 26.4331 50.5324 26.5765V27.0787C50.569 26.8687 50.9533 26.302 51.6898 26.302C52.1473 26.302 52.6297 26.5207 52.8181 27.1087C52.99 26.7325 53.401 26.302 54.0511 26.302ZM65.1628 26.302C65.7457 26.302 66.3709 26.6557 66.3709 27.6841V29.3287C66.3709 29.4616 66.2533 29.5882 66.1123 29.5882C65.9686 29.5882 65.8582 29.4616 65.8582 29.3287V27.6841C65.8582 27.0103 65.4469 26.7556 65.0146 26.7556C64.3837 26.7556 64.0603 27.2887 64.0042 27.6424V29.3287C64.0042 29.4616 63.8872 29.5882 63.751 29.5882C63.6091 29.5882 63.4903 29.4616 63.4903 29.3287V26.5765C63.4903 26.4331 63.6091 26.317 63.751 26.317C63.8872 26.317 64.0042 26.4331 64.0042 26.5765V27.0787C64.0396 26.8687 64.4251 26.302 65.1628 26.302ZM57.5626 26.7422C57.079 26.7422 56.5099 27.098 56.5099 27.9452C56.5099 28.7768 57.079 29.147 57.5626 29.147C58.0654 29.147 58.6453 28.7642 58.6453 27.9452C58.6453 27.1358 58.0654 26.7422 57.5626 26.7422ZM47.7803 26.7509C47.2664 26.7509 46.679 27.1532 46.679 27.9518C46.679 28.7456 47.2664 29.147 47.7803 29.147C48.3005 29.147 48.8837 28.7456 48.8837 27.9518C48.8837 27.1532 48.3005 26.7509 47.7803 26.7509ZM21.1266 26.7422C20.6268 26.7422 20.0415 27.1358 20.0415 27.9452C20.0415 28.7642 20.6268 29.147 21.1266 29.147C21.6099 29.147 22.1802 28.7768 22.1802 27.9452C22.1802 27.098 21.6099 26.7422 21.1266 26.7422ZM61.2065 26.7422C60.7025 26.7422 60.1208 27.1358 60.1208 27.9452C60.1208 28.7642 60.7025 29.147 61.2065 29.147C61.6871 29.147 62.2583 28.7768 62.2583 27.9452C62.2583 27.098 61.6871 26.7422 61.2065 26.7422ZM30.8526 26.9919C30.4437 26.9919 30.0171 27.3132 30.0171 27.945C30.0171 28.5834 30.4437 28.8969 30.8526 28.8969C31.1994 28.8969 31.6584 28.644 31.6584 27.945C31.6584 27.2454 31.1994 26.9919 30.8526 26.9919ZM27.2696 25.9319H26.5514V27.3092H27.2696C27.7361 27.3092 28.0811 27.1406 28.0811 26.6264C28.0811 26.1179 27.7361 25.9319 27.2696 25.9319Z" fill="#212529"/>
</g>
<defs>
<clipPath id="clip0_700_1204">
<rect width="72" height="30.8571" fill="white"/>
</clipPath>
</defs>
</svg>
