<svg width="108" height="39" viewBox="0 0 108 39" fill="none" xmlns="http://www.w3.org/2000/svg">
<g id="w3yz">
<path d="M8.30998 30.1109C7.91798 30.1109 7.60998 30.0129 7.38598 29.8169C7.18998 29.6209 7.03598 29.3689 6.92398 29.0609L0.917984 9.61494C0.861984 9.47494 0.833984 9.33494 0.833984 9.19494C0.833984 8.94294 0.917984 8.73294 1.08598 8.56494C1.28198 8.36894 1.50598 8.27094 1.75798 8.27094H5.45398C5.81798 8.27094 6.09798 8.36894 6.29398 8.56494C6.48998 8.76094 6.61598 8.94294 6.67198 9.11094L10.494 22.0889L14.568 9.19494C14.624 8.99894 14.75 8.80294 14.946 8.60694C15.17 8.38294 15.478 8.27094 15.87 8.27094H18.264C18.656 8.27094 18.95 8.38294 19.146 8.60694C19.37 8.80294 19.51 8.99894 19.566 9.19494L23.64 22.0889L27.462 9.11094C27.49 8.94294 27.602 8.76094 27.798 8.56494C28.022 8.36894 28.302 8.27094 28.638 8.27094H32.334C32.586 8.27094 32.796 8.36894 32.964 8.56494C33.16 8.73294 33.258 8.94294 33.258 9.19494C33.258 9.33494 33.244 9.47494 33.216 9.61494L27.168 29.0609C27.084 29.3689 26.93 29.6209 26.706 29.8169C26.51 30.0129 26.216 30.1109 25.824 30.1109H22.59C22.198 30.1109 21.89 30.0129 21.666 29.8169C21.442 29.6209 21.274 29.3689 21.162 29.0609L17.088 16.6289L12.93 29.0609C12.846 29.3689 12.692 29.6209 12.468 29.8169C12.244 30.0129 11.936 30.1109 11.544 30.1109H8.30998Z" fill="black"/>
<path d="M47.8363 30.5309C45.7643 30.5309 43.9863 30.2789 42.5023 29.7749C41.0182 29.2709 39.8003 28.6269 38.8483 27.8429C37.8963 27.0589 37.1823 26.2049 36.7063 25.2809C36.2303 24.3289 35.9783 23.4189 35.9503 22.5509C35.9503 22.2989 36.0343 22.0889 36.2023 21.9209C36.3703 21.7529 36.5803 21.6689 36.8323 21.6689H41.4523C41.7603 21.6689 42.0123 21.7389 42.2083 21.8789C42.4043 21.9909 42.5863 22.2009 42.7543 22.5089C42.9783 23.1529 43.3423 23.6709 43.8463 24.0629C44.3503 24.4549 44.9383 24.7349 45.6103 24.9029C46.3103 25.0429 47.0522 25.1129 47.8363 25.1129C49.4043 25.1129 50.6363 24.7489 51.5323 24.0209C52.4283 23.2929 52.8763 22.2709 52.8763 20.9549C52.8763 19.6109 52.4563 18.6449 51.6163 18.0569C50.7763 17.4689 49.5863 17.1749 48.0463 17.1749H43.5522C43.2723 17.1749 43.0343 17.0769 42.8383 16.8809C42.6423 16.6849 42.5443 16.4469 42.5443 16.1669V14.1089C42.5443 13.7729 42.6003 13.4929 42.7123 13.2689C42.8523 13.0449 42.9923 12.8769 43.1323 12.7649L50.3563 6.12894H38.5123C38.2043 6.12894 37.9523 6.03094 37.7563 5.83494C37.5603 5.63894 37.4622 5.40094 37.4622 5.12094V1.76094C37.4622 1.45294 37.5603 1.20094 37.7563 1.00494C37.9523 0.808937 38.2043 0.710938 38.5123 0.710938H57.1603C57.4683 0.710938 57.7203 0.808937 57.9163 1.00494C58.1123 1.20094 58.2103 1.45294 58.2103 1.76094V4.78494C58.2103 5.09294 58.1543 5.35894 58.0423 5.58294C57.9303 5.77894 57.7903 5.93294 57.6222 6.04494L50.7763 12.8069L51.1963 12.8489C52.8483 13.0169 54.3183 13.4229 55.6063 14.0669C56.8942 14.7109 57.9023 15.6349 58.6303 16.8389C59.3863 18.0149 59.7643 19.5129 59.7643 21.3329C59.7643 23.2369 59.2463 24.8749 58.2103 26.2469C57.1743 27.6189 55.7603 28.6829 53.9683 29.4389C52.1763 30.1669 50.1322 30.5309 47.8363 30.5309Z" fill="black"/>
<path d="M68.1455 38.0909C67.9215 38.0909 67.7115 38.0069 67.5155 37.8389C67.3475 37.6709 67.2635 37.4609 67.2635 37.2089C67.2635 37.1529 67.2775 37.0689 67.3055 36.9569C67.3335 36.8729 67.3755 36.7609 67.4315 36.6209L70.7075 28.7669L62.6435 9.74094C62.5595 9.51694 62.5175 9.33494 62.5175 9.19494C62.5455 8.94294 62.6436 8.73294 62.8116 8.56494C62.9795 8.36894 63.1895 8.27094 63.4415 8.27094H67.5155C67.8795 8.27094 68.1455 8.36894 68.3135 8.56494C68.4815 8.73294 68.6075 8.91494 68.6915 9.11094L73.8995 22.1309L79.2335 9.11094C79.3455 8.88694 79.4855 8.69094 79.6535 8.52294C79.8215 8.35494 80.0875 8.27094 80.4515 8.27094H84.4415C84.6935 8.27094 84.9035 8.36894 85.0715 8.56494C85.2675 8.73294 85.3655 8.92894 85.3655 9.15294C85.3655 9.29294 85.3095 9.48894 85.1975 9.74094L73.3115 37.2509C73.2275 37.4749 73.0875 37.6709 72.8915 37.8389C72.7235 38.0069 72.4575 38.0909 72.0935 38.0909H68.1455Z" fill="black"/>
<path d="M88.5188 30.1109C88.2388 30.1109 88.0008 30.0129 87.8048 29.8169C87.6088 29.6209 87.5108 29.3689 87.5108 29.0609V26.2469C87.5108 25.9669 87.5668 25.7149 87.6788 25.4909C87.8188 25.2669 87.9728 25.0569 88.1408 24.8609L98.4308 13.1429H88.8968C88.5888 13.1429 88.3368 13.0449 88.1408 12.8489C87.9448 12.6529 87.8468 12.4149 87.8468 12.1349V9.32094C87.8468 9.01294 87.9448 8.76094 88.1408 8.56494C88.3368 8.36894 88.5888 8.27094 88.8968 8.27094H105.277C105.585 8.27094 105.837 8.36894 106.033 8.56494C106.229 8.76094 106.327 9.01294 106.327 9.32094V12.3449C106.327 12.5969 106.271 12.8209 106.159 13.0169C106.047 13.2129 105.907 13.4089 105.739 13.6049L95.6588 25.2389H106.159C106.439 25.2389 106.677 25.3369 106.873 25.5329C107.069 25.7289 107.167 25.9669 107.167 26.2469V29.0609C107.167 29.3689 107.069 29.6209 106.873 29.8169C106.677 30.0129 106.439 30.1109 106.159 30.1109H88.5188Z" fill="black"/>
</g>
</svg>
