<svg width="72" height="72" viewBox="0 0 72 72" fill="none" xmlns="http://www.w3.org/2000/svg">
<g id="meta">
<path id="Vector" d="M67.5 42.75C67.5 27 59.625 15.75 49.5 15.75C41.625 15.75 36 24.75 36 24.75C31.5 31.5 31.5 43.875 38.25 30.375C38.25 30.375 43.875 21.375 49.5 21.375C57.375 21.375 61.5247 34.875 61.5247 42.75C61.5247 45 60.75 49.5 56.25 49.5V56.25C60.75 56.25 67.5 52.875 67.5 42.75Z" fill="url(#paint0_radial_396_676)"/>
<path id="Vector_2" d="M22.5 15.75V22.5C15.3 23.4 11.25 34.875 11.25 42.75C11.25 45 12.375 49.5 15.75 49.5C21.375 49.5 27.8431 37.0799 33.75 27.9958C36.8857 23.1734 40.0069 27.3141 37.6269 31.5C31.9877 41.4183 26.3408 56.25 15.75 56.25C11.25 56.25 4.5 52.875 4.5 42.75C4.5 22.5 16.875 15.75 22.5 15.75Z" fill="url(#paint1_radial_396_676)"/>
<path id="Vector_3" d="M56.25 49.5C48.375 49.5 39.375 15.75 22.5 15.75V22.5C36 22.5 41.625 56.25 56.25 56.25V49.5Z" fill="#0768E1"/>
</g>
<defs>
<radialGradient id="paint0_radial_396_676" cx="0" cy="0" r="1" gradientUnits="userSpaceOnUse" gradientTransform="translate(56.25 54) rotate(-101.31) scale(40.1548 31.2315)">
<stop stop-color="#0768E1"/>
<stop offset="1" stop-color="#0082FB"/>
</radialGradient>
<radialGradient id="paint1_radial_396_676" cx="0" cy="0" r="1" gradientUnits="userSpaceOnUse" gradientTransform="translate(22.5 20.25) rotate(154.537) scale(26.1668 13.7243)">
<stop stop-color="#0768E1"/>
<stop offset="1" stop-color="#0082FB"/>
</radialGradient>
</defs>
</svg>
