<svg width="74" height="50" viewBox="0 0 74 50" fill="none" xmlns="http://www.w3.org/2000/svg">
<g clip-path="url(#clip0_450_156)">
<path d="M36.97 16.0232C36.5328 19.7928 33.7582 22.6124 30.0986 23.0086C26.5847 23.3889 23.2113 21.2835 22.0135 17.9551C21.3086 15.9941 21.4782 14.0026 21.9168 12.0323C23.516 4.84822 29.7806 -0.0449855 37.2721 6.43404e-05C44.4165 0.0424642 50.6294 5.15297 52.1253 12.2245C52.2485 12.8061 52.3638 13.3905 52.3612 13.9907C52.3055 13.8198 52.234 13.6528 52.1982 13.4792C51.9292 12.1622 51.2879 11.032 50.3777 10.0753C48.463 8.06663 46.0979 7.26368 43.3658 7.74068C40.7078 8.20443 38.8144 9.72685 37.667 12.1662C37.0932 13.3878 36.9382 14.6903 36.9687 16.0232H36.97Z" fill="#FC5C4A"/>
<path d="M36.97 16.0232C36.9395 14.6902 37.0932 13.3864 37.6682 12.1661C38.8157 9.72679 40.7091 8.20437 43.367 7.74063C46.0992 7.26363 48.4643 8.0679 50.3789 10.0753C51.2905 11.0306 51.9318 12.1621 52.1995 13.4792C52.2352 13.6541 52.3068 13.821 52.3624 13.9906C53.074 19.1131 49.2182 23.3358 44.117 23.0231C40.5713 22.8058 37.5053 19.9213 37.0746 16.3995C37.0587 16.2696 37.068 16.1331 36.9726 16.0245L36.97 16.0232Z" fill="#9F5A50"/>
<path d="M29.8575 47.0837C28.8306 47.0837 27.8872 47.0757 26.9451 47.089C26.7027 47.0929 26.6377 46.9459 26.5596 46.7802C26.272 46.1668 25.9792 45.5546 25.6957 44.9398C25.6029 44.7397 25.5367 44.5609 25.2372 44.6165C24.8941 44.6801 24.9961 44.9226 24.9921 45.1147C24.9802 45.6434 24.9736 46.1747 24.9948 46.7034C25.0067 46.9936 24.9431 47.1128 24.6185 47.1035C23.8248 47.0797 23.0298 47.0876 22.2361 47.1009C21.9857 47.1049 21.8903 47.0413 21.8916 46.771C21.9009 44.0905 21.8996 41.41 21.8943 38.7296C21.8943 38.5017 21.9526 38.4063 22.199 38.4089C23.6048 38.4275 25.016 38.3692 26.4178 38.4579C28.6133 38.5971 29.8244 40.3832 29.2228 42.4766C29.0916 42.9324 28.877 43.3472 28.498 43.6347C28.2476 43.8242 28.233 43.9686 28.3801 44.2376C28.8757 45.1492 29.3394 46.0793 29.8588 47.085L29.8575 47.0837ZM24.9802 41.7876C25.0173 42.0381 24.7907 42.4727 25.4201 42.425C26.0044 42.3812 26.2588 42.2275 26.2667 41.7691C26.276 41.304 26.0229 41.1424 25.4466 41.0907C24.8503 41.0364 24.9789 41.4167 24.9802 41.7876Z" fill="#FC5C4A"/>
<path d="M47.8376 38.262C49.1281 38.2938 50.1934 38.6528 51.1792 39.2796C51.3925 39.4147 51.4336 39.5273 51.2892 39.7499C50.9924 40.2071 50.7155 40.6788 50.4465 41.1531C50.3272 41.3638 50.2318 41.4207 49.992 41.2843C49.4435 40.9729 48.8578 40.7424 48.2125 40.7198C48.0509 40.7145 47.8442 40.6947 47.8058 40.904C47.766 41.12 47.978 41.1597 48.1277 41.2114C48.5809 41.3678 49.0393 41.5069 49.4938 41.6606C51.0639 42.1906 51.6443 42.9988 51.5158 44.4682C51.3872 45.9522 50.4783 46.9208 48.9903 47.1606C48.7942 47.1924 48.5968 47.2123 48.3994 47.2401C48.3172 47.2521 48.2324 47.268 48.2218 47.374C48.2125 47.4786 48.2841 47.5157 48.3689 47.5356C48.4166 47.5462 48.4669 47.5502 48.5146 47.5621C49.1467 47.7264 49.4183 48.0166 49.4488 48.5558C49.4819 49.1468 49.1864 49.6463 48.6445 49.8543C48.0297 50.0902 47.4056 50.008 46.7908 49.8464C46.4158 49.7483 46.649 49.4701 46.653 49.2727C46.6583 48.9043 46.7855 48.7188 47.2241 48.8341C47.4692 48.8977 47.9277 49.0381 47.9687 48.6367C48.0085 48.2405 47.5633 48.3584 47.3102 48.3478C47.0545 48.3372 47.0147 48.2617 47.0585 48.0179C47.1963 47.2295 47.1857 47.2242 46.4026 46.999C45.6102 46.7711 44.9093 46.3829 44.2879 45.8423C44.1011 45.6793 44.015 45.5614 44.2203 45.3282C44.5913 44.9068 44.9319 44.4563 45.2644 44.0032C45.4221 43.7898 45.544 43.7541 45.7825 43.9038C46.3999 44.292 47.0439 44.6352 47.7859 44.7213C47.974 44.7425 48.2311 44.8141 48.2947 44.5623C48.3596 44.3013 48.0933 44.2549 47.9131 44.1953C47.4573 44.0456 46.9922 43.9276 46.5391 43.7726C44.9862 43.24 44.3383 42.3376 44.4403 40.8722C44.5304 39.5538 45.4579 38.625 46.967 38.3574C47.2917 38.2991 47.6242 38.2845 47.8362 38.262H47.8376Z" fill="#FC5C4A"/>
<path d="M54.8243 41.4949C54.8243 40.635 54.8415 39.7737 54.8164 38.9138C54.8058 38.5441 54.8813 38.3891 55.2947 38.4103C56.0049 38.4474 56.719 38.4421 57.4292 38.4103C57.7989 38.3944 57.9076 38.4938 57.9023 38.8727C57.8811 40.4773 57.885 42.0832 57.897 43.6878C57.9023 44.3953 58.3806 44.7319 59.0192 44.504C59.4618 44.3463 59.5227 43.9726 59.5241 43.5765C59.5267 42.3191 59.5188 41.0616 59.5294 39.8029C59.5333 39.3603 59.3412 38.7879 59.6075 38.511C59.8765 38.2301 60.4529 38.4381 60.8941 38.4236C61.3565 38.4077 61.8216 38.4302 62.284 38.4156C62.5199 38.4077 62.602 38.4872 62.6007 38.7257C62.5901 40.5131 62.6365 42.3018 62.5729 44.0866C62.5119 45.7826 61.489 46.8678 59.8129 47.1712C58.9225 47.3328 58.0334 47.3196 57.1563 47.089C55.7889 46.7286 54.9595 45.7866 54.868 44.3715C54.8058 43.4162 54.8561 42.4529 54.8561 41.4936C54.8468 41.4936 54.8376 41.4936 54.827 41.4936L54.8243 41.4949Z" fill="#FC5C4A"/>
<path d="M39.9858 47.0838C39.6215 47.0838 39.2531 47.0454 38.8954 47.0931C38.4263 47.1553 38.2236 46.9499 38.1945 46.522C38.1627 46.037 37.9122 45.8714 37.4498 45.9483C37.2895 45.9748 37.1199 45.9509 36.9543 45.9522C36.6243 45.9549 36.26 45.8741 35.9711 45.9867C35.6372 46.1179 35.7392 46.5604 35.6279 46.8585C35.5643 47.0294 35.4782 47.0851 35.3046 47.0838C34.4275 47.0772 33.5503 47.0732 32.6745 47.0838C32.3963 47.0878 32.3843 46.9937 32.4625 46.7618C33.3741 44.0694 34.2791 41.3744 35.1774 38.678C35.2503 38.4607 35.3682 38.4104 35.5776 38.4117C36.5541 38.4196 37.5293 38.4223 38.5058 38.4117C38.7284 38.409 38.8212 38.4912 38.8901 38.6966C39.7884 41.3757 40.6921 44.0535 41.605 46.7274C41.7097 47.0348 41.6156 47.097 41.3267 47.0851C40.8802 47.0679 40.4337 47.0798 39.9872 47.0798L39.9858 47.0838ZM37.0258 41.43C36.8536 42.0925 36.7144 42.6132 36.5819 43.1353C36.3911 43.8813 36.3925 43.868 37.1676 43.8693C37.4578 43.8693 37.5412 43.8057 37.471 43.5103C37.3173 42.8703 37.1928 42.2224 37.0258 41.4287V41.43Z" fill="#FC5C4A"/>
<path d="M14.2571 38.4194C14.5552 38.4194 14.8533 38.4194 15.1514 38.4194C15.7194 38.4194 16.0922 38.6796 16.2697 39.1999C17.1058 41.675 17.9352 44.1514 18.7819 46.6225C18.9025 46.9736 18.9065 47.1114 18.4652 47.0929C17.6398 47.0584 16.809 47.0597 15.9835 47.0929C15.6191 47.1074 15.4522 46.9789 15.4376 46.645C15.4124 46.0474 15.1037 45.8487 14.5393 45.9481C14.379 45.9759 14.2094 45.952 14.0437 45.952C13.1321 45.952 13.1242 45.9494 12.8446 46.8265C12.7823 47.0226 12.6989 47.0876 12.5014 47.0862C11.6574 47.0783 10.8121 47.0624 9.96937 47.0915C9.52417 47.1061 9.62355 46.906 9.71232 46.645C10.3483 44.7662 10.979 42.8847 11.611 41.0045C11.8588 40.2678 12.1145 39.5338 12.3464 38.7918C12.4325 38.5148 12.5571 38.3903 12.8671 38.4115C13.3282 38.442 13.7933 38.4194 14.2571 38.4194ZM14.2756 41.5928C14.2465 41.5888 14.2173 41.5835 14.1895 41.5796C14.0557 42.1003 13.9232 42.6223 13.7893 43.143C13.5932 43.9009 13.5932 43.8837 14.3935 43.8718C14.7182 43.8665 14.7367 43.7512 14.6744 43.4836C14.5274 42.8568 14.4068 42.2235 14.2756 41.5928Z" fill="#FC5C4A"/>
<path d="M0.531419 42.7484C0.531419 41.4419 0.540694 40.1355 0.524794 38.829C0.520819 38.5097 0.602969 38.405 0.939517 38.4117C2.14659 38.4342 3.35366 38.4064 4.56073 38.4236C7.22794 38.462 8.69074 40.8603 7.52209 43.2718C7.01462 44.3198 6.08977 44.7279 5.00195 44.8657C4.93703 44.8737 4.86945 44.8737 4.80453 44.8776C4.4269 44.8962 3.91016 44.7703 3.70611 44.9677C3.43978 45.2248 3.62396 45.7482 3.61733 46.1563C3.60408 47.0944 3.61336 47.0944 2.65141 47.0944C2.07239 47.0944 1.49337 47.0785 0.915667 47.101C0.612243 47.1129 0.520819 47.0294 0.524794 46.7167C0.542019 45.3944 0.532744 44.0707 0.532744 42.7484H0.531419ZM4.02146 42.5046C4.55675 42.5125 4.82838 42.2661 4.82705 41.7931C4.82573 41.3267 4.5806 41.1067 4.01748 41.1027H3.75646V42.4887L4.02013 42.5046H4.02146Z" fill="#FC5C4A"/>
<path d="M69.6298 38.4195C70.7719 38.4195 71.9141 38.4301 73.0549 38.4128C73.3716 38.4075 73.4882 38.487 73.4749 38.8223C73.4484 39.4662 73.4498 40.1128 73.4749 40.7581C73.4869 41.0774 73.3729 41.1529 73.0774 41.1384C72.615 41.1158 72.1486 41.1622 71.6888 41.1238C71.2622 41.088 71.1244 41.202 71.1337 41.6578C71.1641 43.3113 71.135 44.9663 71.1549 46.6212C71.1588 46.9829 71.0793 47.1114 70.6938 47.0942C69.9504 47.0611 69.2045 47.0704 68.4598 47.0916C68.1524 47.1008 68.0689 47.0041 68.0716 46.7007C68.0848 45.0126 68.0636 43.3246 68.0888 41.6379C68.0941 41.2218 67.9762 41.0933 67.5655 41.1251C67.0885 41.1609 66.6062 41.1198 66.1265 41.1384C65.8509 41.149 65.7502 41.0695 65.7582 40.7806C65.778 40.1194 65.782 39.4569 65.7582 38.7958C65.7462 38.4764 65.8615 38.4102 66.157 38.4142C67.315 38.4301 68.4731 38.4208 69.6324 38.4208L69.6298 38.4195Z" fill="#FC5C4A"/>
<path d="M60.3165 37.961C59.487 37.9677 58.9955 37.5675 59.0008 36.8905C59.0061 36.2174 59.5202 35.7682 60.2953 35.7642C61.0876 35.7589 61.5925 36.1935 61.5872 36.8759C61.5819 37.5317 61.0863 37.9544 60.3178 37.961H60.3165Z" fill="#FC5C4A"/>
<path d="M57.1284 37.9625C56.2976 37.9572 55.8365 37.557 55.8524 36.8574C55.867 36.187 56.3891 35.755 57.1721 35.7643C57.9459 35.7736 58.4243 36.1896 58.4282 36.8587C58.4322 37.5345 57.9234 37.9678 57.1297 37.9611L57.1284 37.9625Z" fill="#FC5C4A"/>
</g>
<defs>
<clipPath id="clip0_450_156">
<rect width="72.9529" height="50" fill="white" transform="translate(0.523438)"/>
</clipPath>
</defs>
</svg>
