<svg width="72" height="12" viewBox="0 0 72 12" fill="none" xmlns="http://www.w3.org/2000/svg">
<g id="logo-white 1" clip-path="url(#clip0_391_464)">
<path id="Vector" fill-rule="evenodd" clip-rule="evenodd" d="M12.2539 6.49145H8.97466C8.54522 6.49145 8.15482 6.78425 8.05722 7.1868L7.29599 10.4257C7.15935 10.9747 7.72543 11.5054 8.31098 11.5054H18.1486C18.9685 11.5054 19.6907 10.9381 19.8078 10.1696L20.608 5.57645L21.2327 1.97152C21.4084 1.00166 20.608 0.141602 19.5735 0.141602H10.1068C9.63829 0.141602 9.24789 0.452689 9.16981 0.873569L9.09173 1.36765C8.99418 1.89832 9.44309 2.3924 10.0287 2.3924H12.7223C13.8544 2.3924 14.7133 3.36226 14.4986 4.38702L14.3814 5.2654C14.2253 6.07055 13.5812 6.50975 12.7028 6.50975" fill="#1B7FC2"/>
<path id="Vector_2" fill-rule="evenodd" clip-rule="evenodd" d="M4.77799 9.63892H3.13838C2.74799 9.63892 2.39664 9.85852 2.29905 10.1513L2.14289 10.6454C2.00626 11.0663 2.41616 11.4872 2.98222 11.4872H4.62183C5.01222 11.4872 5.36354 11.2676 5.46114 10.9748L5.6173 10.4807C5.75394 10.0415 5.34402 9.63892 4.77799 9.63892Z" fill="#1B7FC2"/>
<path id="Vector_3" fill-rule="evenodd" clip-rule="evenodd" d="M5.40244 6.50977H1.32294C0.93256 6.50977 0.581211 6.76592 0.483617 7.11362L0.327463 7.68092C0.190828 8.17497 0.600731 8.65077 1.16679 8.65077H5.2463C5.63668 8.65077 5.98804 8.39457 6.08564 8.04687L6.2418 7.47962C6.37844 7.00382 5.96852 6.50977 5.40244 6.50977Z" fill="#1B7FC2"/>
<path id="Vector_4" fill-rule="evenodd" clip-rule="evenodd" d="M3.23588 2.31919H6.3785C6.76884 2.31919 7.1202 2.063 7.2178 1.69701L7.37396 1.11144C7.5106 0.599059 7.10068 0.10498 6.5346 0.10498H3.39203C3.00165 0.10498 2.6503 0.361168 2.55271 0.727154L2.39656 1.31273C2.27944 1.82511 2.68934 2.31919 3.23588 2.31919Z" fill="#1B7FC2"/>
<path id="Vector_5" fill-rule="evenodd" clip-rule="evenodd" d="M3.60666 3.96592L3.45051 4.5515C3.31388 5.06389 3.72378 5.55794 4.28984 5.55794H10.4384C10.8288 5.55794 11.1801 5.30178 11.2777 4.93578L11.4339 4.3502C11.5705 3.83783 11.1606 3.34375 10.5945 3.34375H4.44599C4.05561 3.34375 3.70426 3.59994 3.60666 3.96592Z" fill="#1B7FC2"/>
<path id="Vector_6" d="M24.7852 0.0500488H28.9428C31.8511 0.0500488 33.5297 1.45909 33.5297 3.83799C33.5297 6.2718 31.8316 7.66255 28.9428 7.66255H27.4007V11.4322H24.7852V0.0500488ZM28.8842 5.6679C30.1139 5.6679 30.8556 5.00915 30.8556 3.87459C30.8556 2.74004 30.1139 2.08127 28.8842 2.08127H27.3812V5.6862H28.8842V5.6679Z" fill="#1B7FC2"/>
<path id="Vector_7" d="M40.3613 8.9984H35.6181L34.7788 11.4322H32.0461L36.3794 0.0500488H39.8147L44.148 11.4322H41.2201L40.3613 8.9984ZM39.7172 7.18675L38.0385 2.37405H37.9019L36.2232 7.18675H39.7172Z" fill="#1B7FC2"/>
<path id="Vector_8" d="M45.4559 7.13185L41.1616 0.0683594H44.0895L46.7246 4.82616H46.8808L49.5744 0.0683594H52.3266L48.0519 7.13185V11.4505H45.4559V7.13185Z" fill="#1B7FC2"/>
<path id="Vector_9" d="M55.4886 2.08127H52.0925L53.3027 0.0683594H61.5009V2.08127H58.0849V11.4505H55.4886V2.08127Z" fill="#464E4F"/>
<path id="Vector_10" d="M68.9178 11.4505L66.5754 7.68085H66.4975H64.9556V11.4505H62.3594V0.0683594H66.5172C69.4255 0.0683594 71.1039 1.4774 71.1039 3.8563C71.1039 5.5398 70.3039 6.7293 68.8202 7.29655L71.7679 11.4505H68.9178ZM64.9556 5.6679H66.4586C67.6879 5.6679 68.4298 4.99085 68.4298 3.8563C68.4298 2.74004 67.6879 2.08127 66.4586 2.08127H64.9556V5.6679Z" fill="#464E4F"/>
</g>
<defs>
<clipPath id="clip0_391_464">
<rect width="72" height="12" fill="white"/>
</clipPath>
</defs>
</svg>
