<svg width="360" height="60" viewBox="0 0 360 60" fill="none" xmlns="http://www.w3.org/2000/svg">
<path fill-rule="evenodd" clip-rule="evenodd" d="M61.2683 32.4568H44.8723C42.7251 32.4568 40.7731 33.9208 40.2851 35.9335L36.479 52.1283C35.7958 54.8733 38.6262 57.5268 41.5539 57.5268H90.7422C94.8414 57.5268 98.4523 54.6903 99.0379 50.8475L103.039 27.8818L106.162 9.85713C107.041 5.00783 103.039 0.70752 97.8667 0.70752H50.5329C48.1905 0.70752 46.2385 2.26295 45.8481 4.36736L45.4577 6.83776C44.9699 9.49113 47.2145 11.9615 50.1425 11.9615H63.6107C69.2713 11.9615 73.5654 16.8108 72.4918 21.9346L71.9062 26.3265C71.1254 30.3523 67.9049 32.5483 63.5131 32.5483" fill="#1B7FC2"/>
<path fill-rule="evenodd" clip-rule="evenodd" d="M23.8897 48.1938H15.6916C13.7397 48.1938 11.983 49.2919 11.495 50.7559L10.7142 53.2261C10.031 55.3306 12.0806 57.4351 14.9109 57.4351H23.1089C25.0608 57.4351 26.8175 56.3371 27.3055 54.8731L28.0863 52.4026C28.7695 50.2068 26.7199 48.1938 23.8897 48.1938Z" fill="#1B7FC2"/>
<path fill-rule="evenodd" clip-rule="evenodd" d="M27.0129 32.5483H6.61545C4.66353 32.5483 2.90679 33.8291 2.41882 35.5676L1.63805 38.4041C0.954875 40.8743 3.00439 43.2533 5.83468 43.2533H26.2322C28.1841 43.2533 29.9409 41.9723 30.4289 40.2338L31.2097 37.3976C31.8929 35.0186 29.8433 32.5483 27.0129 32.5483Z" fill="#1B7FC2"/>
<path fill-rule="evenodd" clip-rule="evenodd" d="M16.1799 11.5955H31.893C33.8447 11.5955 35.6015 10.3145 36.0895 8.48458L36.8703 5.55671C37.5535 2.99481 35.5039 0.524414 32.6735 0.524414H16.9607C15.0087 0.524414 13.252 1.80535 12.764 3.63528L11.9833 6.56316C11.3977 9.12506 13.4472 11.5955 16.1799 11.5955Z" fill="#1B7FC2"/>
<path fill-rule="evenodd" clip-rule="evenodd" d="M18.0341 19.8301L17.2533 22.758C16.5701 25.3199 18.6196 27.7902 21.4499 27.7902H52.1925C54.1445 27.7902 55.9013 26.5094 56.3893 24.6794L57.1701 21.7515C57.8533 19.1896 55.8037 16.7192 52.9733 16.7192H22.2307C20.2788 16.7192 18.522 18.0002 18.0341 19.8301Z" fill="#1B7FC2"/>
<path d="M123.926 0.25H144.714C159.256 0.25 167.649 7.29518 167.649 19.1897C167.649 31.3587 159.158 38.3125 144.714 38.3125H137.004V57.1607H123.926V0.25ZM144.421 28.3392C150.57 28.3392 154.278 25.0455 154.278 19.3727C154.278 13.6999 150.57 10.4061 144.421 10.4061H136.906V28.4307H144.421V28.3392Z" fill="#1B7FC2"/>
<path d="M201.807 44.9917H178.091L173.895 57.1607H160.231L181.898 0.25H199.074L220.741 57.1607H206.101L201.807 44.9917ZM198.587 35.9335L190.193 11.87H189.51L181.117 35.9335H198.587Z" fill="#1B7FC2"/>
<path d="M227.28 35.6588L205.809 0.341309H220.448L233.624 24.1303H234.404L247.873 0.341309H261.634L240.26 35.6588V57.252H227.28V35.6588Z" fill="#1B7FC2"/>
<path d="M277.442 10.4059H260.462L266.513 0.341309H307.504V10.4059H290.424V57.252H277.442V10.4059Z" fill="#464E4F"/>
<path d="M344.589 57.252L332.877 38.4038H332.488H324.778V57.252H311.797V0.341309H332.586C347.128 0.341309 355.52 7.3865 355.52 19.281C355.52 27.6985 351.52 33.646 344.101 36.4823L358.84 57.252H344.589ZM324.778 28.339H332.293C338.44 28.339 342.149 24.9538 342.149 19.281C342.149 13.6997 338.44 10.4059 332.293 10.4059H324.778V28.339Z" fill="#464E4F"/>
</svg>
