<svg width="24" height="24" viewBox="0 0 24 24" fill="none" xmlns="http://www.w3.org/2000/svg">
<mask id="mask0_1552_5011" style="mask-type:alpha" maskUnits="userSpaceOnUse" x="0" y="0" width="24" height="24">
<rect width="24" height="24" fill="#D9D9D9"/>
</mask>
<g mask="url(#mask0_1552_5011)">
<path d="M6.47368 19C5.23597 19 4.18092 18.5638 3.30855 17.6914C2.43618 16.8191 2 15.764 2 14.5263C2 13.6912 2.20132 12.9344 2.60395 12.2559C3.00658 11.5774 3.54342 11.0443 4.21447 10.6566C4.52763 10.4776 4.83333 10.4814 5.13158 10.6678C5.42982 10.8542 5.57895 11.1114 5.57895 11.4395C5.57895 11.6035 5.54539 11.7526 5.47829 11.8868C5.41118 12.0211 5.31798 12.118 5.19868 12.1776C4.78114 12.4013 4.44189 12.7219 4.18092 13.1395C3.91996 13.557 3.78947 14.0193 3.78947 14.5263C3.78947 15.2719 4.05044 15.9057 4.57237 16.4276C5.0943 16.9496 5.72807 17.2105 6.47368 17.2105C7.2193 17.2105 7.85307 16.9496 8.375 16.4276C8.89693 15.9057 9.1579 15.2719 9.1579 14.5263C9.1579 14.2728 9.22873 14.0603 9.3704 13.8888C9.51206 13.7173 9.70965 13.6316 9.96316 13.6316H14.4145C14.5338 13.4974 14.6792 13.3893 14.8507 13.3072C15.0222 13.2252 15.2123 13.1842 15.4211 13.1842C15.7939 13.1842 16.1107 13.3147 16.3717 13.5757C16.6327 13.8366 16.7632 14.1535 16.7632 14.5263C16.7632 14.8991 16.6327 15.216 16.3717 15.477C16.1107 15.7379 15.7939 15.8684 15.4211 15.8684C15.2123 15.8684 15.0222 15.8274 14.8507 15.7454C14.6792 15.6634 14.5338 15.5553 14.4145 15.4211H10.8579C10.6491 16.45 10.1384 17.3037 9.32566 17.9822C8.51294 18.6607 7.56228 19 6.47368 19ZM6.47368 15.8684C6.10088 15.8684 5.78399 15.7379 5.52303 15.477C5.26206 15.216 5.13158 14.8991 5.13158 14.5263C5.13158 14.1982 5.23597 13.9149 5.44474 13.6763C5.65351 13.4377 5.90702 13.2811 6.20526 13.2066L8.3079 9.7171C7.87544 9.31447 7.53618 8.83355 7.29013 8.27434C7.04408 7.71513 6.92105 7.11491 6.92105 6.47368C6.92105 5.23597 7.35724 4.18092 8.22961 3.30855C9.10197 2.43618 10.157 2 11.3947 2C12.4386 2 13.3594 2.31689 14.1572 2.95066C14.955 3.58443 15.4807 4.38596 15.7342 5.35526C15.8088 5.6386 15.7566 5.89583 15.5776 6.12697C15.3987 6.35811 15.1601 6.47368 14.8618 6.47368C14.668 6.47368 14.4853 6.40285 14.3138 6.26118C14.1423 6.11952 14.0268 5.9443 13.9671 5.73553C13.8031 5.16886 13.4899 4.70285 13.0276 4.3375C12.5654 3.97215 12.0211 3.78947 11.3947 3.78947C10.6491 3.78947 10.0154 4.05044 9.49342 4.57237C8.97149 5.0943 8.71053 5.72807 8.71053 6.47368C8.71053 6.96579 8.83355 7.41689 9.07961 7.82697C9.32566 8.23706 9.64254 8.5614 10.0303 8.8C10.239 8.9193 10.3695 9.06842 10.4217 9.24737C10.4739 9.42632 10.4478 9.60526 10.3434 9.78421L7.74868 14.1237C7.77851 14.1982 7.79715 14.2654 7.80461 14.325C7.81206 14.3847 7.81579 14.4518 7.81579 14.5263C7.81579 14.8991 7.68531 15.216 7.42434 15.477C7.16338 15.7379 6.84649 15.8684 6.47368 15.8684ZM15.4211 19C15.0333 19 14.6568 18.9515 14.2914 18.8546C13.9261 18.7577 13.5868 18.6272 13.2737 18.4632C12.8711 18.2395 12.7107 17.9002 12.7928 17.4454C12.8748 16.9906 13.1768 16.7632 13.6987 16.7632C13.7732 16.7632 13.8553 16.7781 13.9447 16.8079C14.0342 16.8377 14.1162 16.875 14.1908 16.9197C14.3847 17.0241 14.5822 17.0987 14.7836 17.1434C14.9849 17.1882 15.1974 17.2105 15.4211 17.2105C16.1667 17.2105 16.8004 16.9496 17.3224 16.4276C17.8443 15.9057 18.1053 15.2719 18.1053 14.5263C18.1053 13.7807 17.8443 13.1469 17.3224 12.625C16.8004 12.1031 16.1667 11.8421 15.4211 11.8421C15.2719 11.8421 15.1303 11.8533 14.9961 11.8757C14.8618 11.898 14.7276 11.9316 14.5934 11.9763C14.3548 12.0509 14.1311 12.0546 13.9224 11.9875C13.7136 11.9204 13.557 11.8048 13.4526 11.6408L11.1487 7.79342C10.8355 7.73377 10.5746 7.58465 10.3658 7.34605C10.157 7.10746 10.0526 6.81667 10.0526 6.47368C10.0526 6.10088 10.1831 5.78399 10.4441 5.52303C10.705 5.26206 11.0219 5.13158 11.3947 5.13158C11.7675 5.13158 12.0844 5.26206 12.3454 5.52303C12.6064 5.78399 12.7368 6.10088 12.7368 6.47368V6.66382C12.7368 6.71601 12.7219 6.77939 12.6921 6.85395L14.6382 10.1197C14.7575 10.0899 14.8842 10.0713 15.0184 10.0638C15.1526 10.0564 15.2868 10.0526 15.4211 10.0526C16.6588 10.0526 17.7138 10.4888 18.5862 11.3612C19.4586 12.2336 19.8947 13.2886 19.8947 14.5263C19.8947 15.764 19.4586 16.8191 18.5862 17.6914C17.7138 18.5638 16.6588 19 15.4211 19Z" fill="#1D2939"/>
</g>
</svg>
