<svg width="374" height="80" viewBox="0 0 374 80" fill="none" xmlns="http://www.w3.org/2000/svg">
<g clip-path="url(#clip0_450_183)">
<path d="M52.3948 54.3965C50.9104 67.1938 41.4912 76.7659 29.0673 78.1108C17.1381 79.4018 5.68577 72.2542 1.61942 60.9548C-0.773607 54.2975 -0.19784 47.5368 1.29105 40.848C6.72035 16.4589 27.9877 -0.152867 53.4204 7.06874e-05C77.6745 0.144012 98.7664 17.4935 103.845 41.5002C104.263 43.4749 104.655 45.4586 104.646 47.4963C104.457 46.916 104.214 46.3492 104.092 45.76C103.179 41.2888 101.002 37.4519 97.9118 34.2042C91.4119 27.3849 83.3827 24.659 74.1075 26.2784C65.0841 27.8528 58.6562 33.0212 54.7608 41.3023C52.8131 45.4496 52.2868 49.8713 52.3903 54.3965H52.3948Z" fill="#FC5C4A"/>
<path d="M52.3947 54.3967C52.2913 49.8715 52.8131 45.4453 54.7653 41.3025C58.6607 33.0213 65.0886 27.8529 74.1119 26.2786C83.3871 24.6592 91.4164 27.3896 97.9162 34.2044C101.011 37.4475 103.188 41.289 104.097 45.7602C104.218 46.3539 104.461 46.9207 104.65 47.4965C107.066 64.8864 93.9758 79.2221 76.6579 78.1605C64.6208 77.4228 54.212 67.6303 52.7501 55.6741C52.6961 55.2333 52.7276 54.77 52.4037 54.4012L52.3947 54.3967Z" fill="#9F5A50"/>
<path d="M225.093 70.0996C221.607 70.0996 218.404 70.0727 215.206 70.1176C214.383 70.1311 214.162 69.6318 213.897 69.0696C212.921 66.9869 211.927 64.9088 210.964 62.8216C210.649 62.1424 210.424 61.5351 209.408 61.724C208.243 61.94 208.589 62.7631 208.576 63.4154C208.535 65.2101 208.513 67.0139 208.585 68.8087C208.625 69.7938 208.409 70.1986 207.307 70.1671C204.613 70.0861 201.914 70.1131 199.219 70.1581C198.369 70.1716 198.045 69.9557 198.05 69.0381C198.081 59.9383 198.077 50.8385 198.059 41.7387C198.059 40.965 198.257 40.6411 199.093 40.6501C203.866 40.7131 208.657 40.5152 213.416 40.8165C220.869 41.2888 224.98 47.3524 222.938 54.4595C222.493 56.0069 221.764 57.4148 220.478 58.3909C219.628 59.0341 219.578 59.5244 220.077 60.4376C221.76 63.5323 223.334 66.69 225.097 70.1041L225.093 70.0996ZM208.535 52.1204C208.661 52.9706 207.892 54.446 210.028 54.2841C212.012 54.1356 212.876 53.6138 212.903 52.0575C212.934 50.4786 212.075 49.9298 210.118 49.7544C208.094 49.57 208.531 50.861 208.535 52.1204Z" fill="#FC5C4A"/>
<path d="M286.133 40.146C290.515 40.254 294.131 41.473 297.478 43.6006C298.202 44.0594 298.341 44.4418 297.851 45.1974C296.844 46.7493 295.903 48.3507 294.99 49.961C294.585 50.6762 294.262 50.8696 293.447 50.4063C291.585 49.3493 289.597 48.5666 287.406 48.4901C286.858 48.4721 286.156 48.4046 286.025 49.1154C285.89 49.8486 286.61 49.9835 287.118 50.1589C288.657 50.6897 290.213 51.162 291.756 51.6838C297.086 53.4831 299.057 56.227 298.62 61.2154C298.184 66.2534 295.098 69.5416 290.047 70.3557C289.381 70.4637 288.711 70.5311 288.041 70.6256C287.762 70.6661 287.474 70.7201 287.438 71.0799C287.406 71.4353 287.649 71.5612 287.937 71.6287C288.099 71.6647 288.27 71.6782 288.432 71.7187C290.578 72.2764 291.5 73.2615 291.603 75.0923C291.716 77.0985 290.713 78.7943 288.873 79.5005C286.786 80.3012 284.667 80.0223 282.58 79.4735C281.307 79.1406 282.099 78.196 282.112 77.5258C282.13 76.2753 282.562 75.6456 284.051 76.0369C284.883 76.2528 286.439 76.7296 286.579 75.3667C286.714 74.0217 285.202 74.4221 284.343 74.3861C283.475 74.3501 283.34 74.0937 283.488 73.266C283.956 70.5896 283.92 70.5716 281.262 69.8069C278.572 69.0333 276.192 67.7153 274.083 65.88C273.449 65.3268 273.156 64.9264 273.853 64.1348C275.113 62.7043 276.269 61.175 277.398 59.6366C277.933 58.9124 278.347 58.7909 279.157 59.2992C281.253 60.6172 283.439 61.7822 285.958 62.0746C286.597 62.1466 287.469 62.3895 287.685 61.5348C287.906 60.6487 287.002 60.4912 286.39 60.2888C284.842 59.7805 283.264 59.3802 281.725 58.8539C276.453 57.0456 274.254 53.9824 274.6 49.0074C274.906 44.5317 278.055 41.3785 283.178 40.4699C284.28 40.2719 285.409 40.2225 286.129 40.146H286.133Z" fill="#FC5C4A"/>
<path d="M309.852 51.1215C309.852 48.2022 309.91 45.2784 309.825 42.3591C309.789 41.1041 310.045 40.5778 311.449 40.6498C313.86 40.7757 316.284 40.7577 318.695 40.6498C319.95 40.5958 320.319 40.9332 320.301 42.2196C320.229 47.6669 320.243 53.1187 320.283 58.566C320.301 60.968 321.925 62.1106 324.093 61.3369C325.596 60.8016 325.802 59.5331 325.807 58.1881C325.816 53.9194 325.789 49.6506 325.825 45.3774C325.838 43.875 325.186 41.9318 326.09 40.9916C327.003 40.038 328.96 40.7442 330.458 40.6948C332.028 40.6408 333.607 40.7172 335.177 40.6678C335.977 40.6408 336.256 40.9107 336.252 41.7203C336.216 47.7884 336.373 53.8609 336.157 59.9199C335.95 65.6776 332.478 69.3616 326.788 70.3917C323.765 70.9405 320.746 70.8955 317.769 70.1128C313.127 68.8893 310.311 65.6911 310 60.8871C309.789 57.6439 309.96 54.3737 309.96 51.117C309.928 51.117 309.897 51.117 309.861 51.117L309.852 51.1215Z" fill="#FC5C4A"/>
<path d="M259.477 70.0994C258.24 70.0994 256.989 69.969 255.775 70.1309C254.183 70.3423 253.494 69.6451 253.395 68.1922C253.287 66.5459 252.437 65.9836 250.867 66.2445C250.323 66.3345 249.747 66.2535 249.185 66.258C248.065 66.267 246.828 65.9926 245.847 66.375C244.714 66.8203 245.06 68.3227 244.682 69.3348C244.466 69.915 244.174 70.1039 243.585 70.0994C240.607 70.0769 237.629 70.0635 234.656 70.0994C233.711 70.1129 233.671 69.7936 233.936 69.0064C237.031 59.8661 240.103 50.7168 243.153 41.563C243.4 40.8253 243.801 40.6544 244.511 40.6589C247.827 40.6859 251.137 40.6949 254.452 40.6589C255.208 40.6499 255.523 40.9288 255.757 41.626C258.807 50.7213 261.874 59.8121 264.974 68.8894C265.329 69.933 265.01 70.1444 264.029 70.1039C262.513 70.0455 260.997 70.0859 259.481 70.0859L259.477 70.0994ZM249.428 50.9057C248.843 53.1548 248.371 54.9226 247.921 56.6949C247.273 59.2274 247.278 59.1824 249.909 59.1869C250.894 59.1869 251.178 58.971 250.939 57.9679C250.418 55.7953 249.995 53.5956 249.428 50.9012V50.9057Z" fill="#FC5C4A"/>
<path d="M172.132 40.6862C173.144 40.6862 174.156 40.6862 175.168 40.6862C177.096 40.6862 178.362 41.5693 178.964 43.3356C181.803 51.7382 184.619 60.1453 187.493 68.5344C187.902 69.7264 187.916 70.1942 186.418 70.1312C183.616 70.0143 180.795 70.0188 177.993 70.1312C176.756 70.1807 176.189 69.7444 176.14 68.6109C176.054 66.5822 175.006 65.9075 173.09 66.2448C172.546 66.3393 171.97 66.2583 171.408 66.2583C168.313 66.2583 168.286 66.2493 167.337 69.2271C167.125 69.8928 166.842 70.1132 166.172 70.1087C163.306 70.0818 160.436 70.0278 157.576 70.1267C156.064 70.1762 156.402 69.497 156.703 68.6109C158.862 62.2324 161.003 55.845 163.149 49.4621C163.99 46.9611 164.858 44.4692 165.645 41.9502C165.938 41.0101 166.361 40.5872 167.413 40.6592C168.979 40.7627 170.557 40.6862 172.132 40.6862ZM172.195 51.4593C172.096 51.4458 171.997 51.4278 171.902 51.4143C171.448 53.1821 170.998 54.9544 170.544 56.7222C169.878 59.2951 169.878 59.2367 172.595 59.1962C173.697 59.1782 173.76 58.7868 173.549 57.8782C173.049 55.7506 172.64 53.6005 172.195 51.4593Z" fill="#FC5C4A"/>
<path d="M125.535 55.3768C125.535 50.9416 125.567 46.5064 125.513 42.0712C125.499 40.9872 125.778 40.6318 126.921 40.6543C131.018 40.7308 135.116 40.6363 139.214 40.6948C148.269 40.8252 153.235 48.9669 149.268 57.1536C147.545 60.7117 144.405 62.0971 140.712 62.5649C140.492 62.5919 140.262 62.5919 140.042 62.6054C138.76 62.6684 137.006 62.241 136.313 62.9113C135.409 63.7839 136.034 65.5607 136.011 66.9461C135.966 70.1308 135.998 70.1308 132.732 70.1308C130.767 70.1308 128.801 70.0769 126.84 70.1533C125.81 70.1938 125.499 69.9104 125.513 68.8489C125.571 64.3597 125.54 59.866 125.54 55.3768H125.535ZM137.383 54.5537C139.201 54.5807 140.123 53.744 140.118 52.1382C140.114 50.5548 139.282 49.8081 137.37 49.7946H136.484V54.4997L137.379 54.5537H137.383Z" fill="#FC5C4A"/>
<path d="M360.115 40.6859C363.992 40.6859 367.87 40.7219 371.743 40.6634C372.818 40.6454 373.213 40.9153 373.168 42.0534C373.078 44.2395 373.083 46.4346 373.168 48.6252C373.209 49.7092 372.822 49.9656 371.819 49.9162C370.249 49.8397 368.666 49.9971 367.105 49.8667C365.657 49.7452 365.189 50.1321 365.22 51.6794C365.324 57.2932 365.225 62.9114 365.292 68.5296C365.306 69.7576 365.036 70.1939 363.727 70.1354C361.203 70.023 358.671 70.0545 356.143 70.1264C355.099 70.1579 354.816 69.8296 354.825 68.7995C354.87 63.0688 354.798 57.3381 354.883 51.612C354.901 50.1995 354.501 49.7632 353.107 49.8712C351.487 49.9926 349.85 49.8532 348.222 49.9162C347.286 49.9521 346.944 49.6823 346.971 48.7017C347.039 46.4571 347.052 44.208 346.971 41.9634C346.931 40.8793 347.322 40.6544 348.325 40.6679C352.256 40.7219 356.188 40.6904 360.124 40.6904L360.115 40.6859Z" fill="#FC5C4A"/>
<path d="M328.497 39.1295C325.681 39.152 324.012 37.7936 324.03 35.495C324.048 33.2099 325.794 31.685 328.425 31.6715C331.115 31.6536 332.829 33.129 332.811 35.4455C332.793 37.6721 331.111 39.107 328.502 39.1295H328.497Z" fill="#FC5C4A"/>
<path d="M317.674 39.1295C314.854 39.1115 313.289 37.753 313.343 35.378C313.392 33.1019 315.164 31.6355 317.823 31.667C320.45 31.6985 322.074 33.1109 322.087 35.3825C322.101 37.6766 320.373 39.1475 317.679 39.125L317.674 39.1295Z" fill="#FC5C4A"/>
</g>
<defs>
<clipPath id="clip0_450_183">
<rect width="373.173" height="80" fill="white"/>
</clipPath>
</defs>
</svg>
