<svg width="450" height="70" viewBox="0 0 450 70" fill="none" xmlns="http://www.w3.org/2000/svg">
<g clip-path="url(#clip0_443_1132)">
<path d="M386.548 15.0151C393.185 20.3181 395.691 26.8632 395.927 34.4308C396.158 41.8907 394.068 48.5641 388.526 54.2811C396.633 54.2811 404.19 54.2604 411.744 54.2935C413.681 54.3018 414.977 53.4449 415.015 51.5447C415.052 49.628 413.8 48.6924 411.839 48.7379C409.972 48.7793 408.101 48.7172 406.235 48.7545C404.219 48.7959 402.596 48.2784 402.563 45.9104C402.526 43.5425 404.091 42.9795 406.14 43.0043C409.877 43.0498 413.61 43.0126 417.348 43.0209C419.198 43.0209 420.33 42.0356 420.346 40.272C420.363 38.5126 419.276 37.4776 417.406 37.4818C415.539 37.4818 413.668 37.4197 411.802 37.4983C409.695 37.5853 407.994 37.1009 407.75 34.6916C407.564 32.8286 409.018 31.831 411.661 31.8268C415.229 31.8185 418.793 31.7978 422.361 31.8351C424.302 31.8558 425.851 31.2555 425.901 29.1028C425.95 26.7804 424.323 26.1553 422.287 26.1843C420.251 26.2132 418.211 26.1594 416.175 26.2008C414.783 26.2257 413.908 25.5136 413.433 24.3255C412.64 22.3384 414.184 20.5293 416.782 20.5003C421.792 20.4465 426.801 20.4548 431.81 20.5003C433.702 20.5169 435.065 19.8835 435.102 17.855C435.139 15.6898 433.731 14.9944 431.732 14.9985C422.985 15.0275 414.238 15.0109 405.491 15.0109C399.404 15.0109 393.317 15.0109 386.54 15.0109L386.548 15.0151ZM9.99407 35.6023C13.9587 33.3751 17.6672 31.3342 21.3303 29.2105C22.2595 28.6723 22.5734 28.9248 23.0194 29.7859C30.007 43.3065 41.5622 50.3483 56.1651 52.8363C69.7356 55.1463 82.0464 49.243 88.9473 37.3576C89.352 36.6621 90.2441 35.9376 89.7774 35.089C88.4765 32.7334 87.0146 30.469 85.2759 27.6084C85.1066 28.7261 85.0653 28.9745 85.0323 29.227C83.5745 40.4583 76.4919 48.386 66.4359 50.042C53.4683 52.174 38.6094 44.6478 32.4147 32.8493C30.0029 28.2542 28.6566 23.3526 28.1238 17.9626C19.253 23.0794 10.6672 28.0306 2.0814 32.9818C0.286321 34.0168 0.144532 35.2339 1.65603 36.6331C11.8566 46.0843 24.089 51.3915 37.5067 54.2811C38.758 54.5502 40.0217 55.0843 42.1155 54.5585C29.6271 50.5305 19.0507 44.6064 9.9982 35.6023H9.99407ZM42.5987 15.7271C46.3073 16.1908 49.3757 16.6586 52.9025 15.7023C48.7934 10.6931 41.9793 10.4157 37.8288 5.82055C38.374 5.82055 38.7167 5.74603 39.0182 5.83296C48.2813 8.4162 57.2595 11.7529 65.6677 16.4598C70.4789 19.1549 73.1344 23.4851 74.2659 28.813C74.8771 31.6861 74.8276 34.5963 74.4435 38.0945C76.0913 36.3516 77.0329 34.8779 77.8919 33.3461C81.4889 26.9294 80.4028 20.7942 74.8482 15.9755C72.391 13.8435 69.6158 12.2165 66.6878 10.8339C60.3651 7.84905 53.7079 5.89092 46.935 4.23914C41.7067 2.96408 36.1604 3.13381 30.7999 0.372559C34.7687 6.56571 40.4389 10.0059 46.1008 13.5578C42.6524 13.6282 39.3816 13.0942 35.735 12.2248C38.6837 16.2487 42.5037 18.5422 46.6913 21.1916C42.9787 21.1047 39.9598 20.2892 36.8501 19.751C39.8483 24.2882 47.7073 28.8296 52.5928 28.5729C49.3633 27.1571 46.2784 26.2712 43.9574 23.481C47.0217 23.5886 49.7556 24.1516 52.8117 23.2077C49.2064 20.9101 45.9521 18.8237 42.5905 15.7271H42.5987ZM436.853 37.8792C433.549 37.8792 430.241 37.8792 426.937 37.8792C425.12 37.8792 423.997 38.7279 423.96 40.5908C423.918 42.4785 425.133 43.4183 426.859 43.4348C433.471 43.5011 440.078 43.4886 446.69 43.4473C448.449 43.4348 449.684 42.4992 449.68 40.6694C449.676 38.7279 448.47 37.842 446.517 37.8668C443.295 37.9082 440.074 37.8792 436.853 37.8792ZM428.246 48.7462C426.041 48.7462 423.836 48.7462 421.63 48.7462C419.78 48.7462 418.711 49.6735 418.719 51.5157C418.727 53.3704 419.884 54.2604 421.676 54.2729C426 54.2977 430.328 54.3101 434.652 54.2646C436.502 54.2439 437.526 53.0806 437.472 51.346C437.419 49.7108 436.345 48.7503 434.61 48.7462C432.492 48.7421 430.369 48.7462 428.251 48.7462H428.246ZM436.964 25.7082C435.61 25.7082 434.255 25.6833 432.901 25.7165C431.282 25.7579 430.373 26.7059 430.258 28.2376C430.13 29.9308 431.104 31.1023 432.74 31.1934C435.606 31.3549 438.497 31.3466 441.367 31.1769C442.874 31.0858 443.824 29.9432 443.774 28.3908C443.717 26.7431 442.787 25.7289 441.032 25.7082C439.678 25.6916 438.323 25.7082 436.969 25.7082H436.964Z" fill="#00A3CB"/>
<path d="M336.185 21.2537C336.392 20.0076 336.474 19.1134 336.693 18.2524C337.267 15.9755 338.771 14.8163 341.112 14.7956C343.528 14.7708 344.94 16.0458 345.345 18.36C345.581 19.693 345.676 21.0633 345.68 22.417C345.709 31.686 345.692 40.9551 345.692 50.2241C345.692 64.4154 340.658 69.6315 326.484 69.9834C321.933 70.0952 317.51 69.3666 313.467 67.0897C311.349 65.8974 309.548 64.3864 308.656 62.0308C307.88 59.9816 308.14 58.1146 310.027 56.8312C311.853 55.5893 313.736 55.8253 315.45 57.1831C315.908 57.5474 316.346 57.9904 316.664 58.4789C319.625 62.9913 324.023 63.5543 328.818 62.8712C332.795 62.304 334.971 60.1348 335.533 56.0074C335.859 53.5939 335.789 51.1266 335.9 48.6551C334.831 48.593 334.608 49.3713 334.174 49.8101C327.253 56.8147 315.479 55.6969 310.449 47.2062C305.856 39.4523 305.542 31.1065 309.544 23.0421C314.141 13.7855 326.852 11.964 334.302 19.1714C334.897 19.7468 335.421 20.3968 336.194 21.2537H336.185ZM335.954 35.0972C335.938 32.0089 335.574 29.0076 333.819 26.3374C330.077 20.6327 321.83 20.8066 318.725 26.8466C316.185 31.7854 316.148 37.0595 318.535 42.0645C321.161 47.5705 328.397 48.5351 332.708 44.1841C335.207 41.663 335.966 38.5209 335.95 35.0972H335.954Z" fill="#F5C458"/>
<path d="M109.968 34.8862V37.25C110.092 42.0853 109.968 46.9248 109.943 51.7683C109.931 54.6414 109.175 55.3824 106.354 55.4321C100.023 55.548 99.9656 55.4942 99.9656 49.1685C99.9656 42.1226 99.9656 35.0725 99.9656 28.0265C99.9656 20.3844 99.9573 12.7424 99.9697 5.10028C99.978 1.55247 100.742 0.803163 104.339 0.794883C109.258 0.782463 114.184 0.674828 119.099 0.828001C126.689 1.06397 132.31 4.52485 134.978 11.7861C137.476 18.5878 136.143 24.8513 131.096 30.1254C128.003 33.3586 123.984 34.6295 119.615 34.8241L109.968 34.8903V34.8862ZM120.14 25.2404C123.815 25.1287 126.71 22.1646 126.822 18.5422C126.937 14.8288 124.1 11.666 120.338 11.3804C119.157 11.2934 117.963 11.2934 116.782 11.3555L109.997 11.31L110.03 17.8053C110.03 19.9829 110.104 21.7713 110.005 23.5473L109.997 25.2404H120.14Z" fill="#4AA4CA"/>
<path d="M274.04 34.9234C274.04 39.945 274.048 44.95 275.795 49.7646C276.53 51.789 275.692 53.2338 274.077 54.3432C272.347 55.5314 270.534 55.6266 268.927 54.2025C267.862 53.2586 266.883 52.1409 266.123 50.9403C265.368 49.7481 264.855 49.8433 263.811 50.6091C258.9 54.1983 253.511 56.1233 247.341 54.8566C241.811 53.7223 238.123 49.5576 237.942 44.3249C237.768 39.1998 241.051 34.9068 246.573 33.4827C251.409 32.2367 256.344 31.3632 261.192 30.1502C262.332 29.8646 264.327 30.233 264.393 28.4073C264.476 26.1015 264.001 23.7583 261.692 22.4709C257.769 20.285 251.227 21.734 248.543 25.3356C247.985 26.0849 247.457 26.8549 246.969 27.6498C245.809 29.5458 244.091 29.6244 242.294 28.9786C240.506 28.337 239.622 26.9584 239.783 25.0086C240.035 21.9824 241.671 19.7924 244.05 18.0992C246.519 16.3357 249.34 15.429 252.322 15.0523C256.299 14.5473 260.275 14.5473 264.224 15.3587C270.431 16.6379 273.371 19.7096 273.995 26.0187C274.284 28.9621 274.044 31.9552 274.044 34.9234H274.04ZM264.191 35.5237C260.16 36.4841 256.1 37.3245 252.119 38.4422C249.009 39.3157 247.713 41.3235 248.039 44.0227C248.349 46.5728 250.641 48.4688 253.614 48.6386C261.064 49.0608 265.524 43.5508 264.186 35.5237H264.191Z" fill="#F5C458"/>
<path d="M386.548 15.0152C393.325 15.0152 399.412 15.0152 405.499 15.0152C414.246 15.0152 422.993 15.0317 431.74 15.0028C433.739 14.9945 435.147 15.6941 435.11 17.8592C435.073 19.8877 433.71 20.5211 431.819 20.5046C426.809 20.459 421.8 20.4507 416.79 20.5046C414.193 20.5335 412.648 22.3385 413.441 24.3297C413.912 25.5179 414.791 26.2299 416.183 26.2051C418.219 26.1678 420.259 26.2175 422.295 26.1885C424.335 26.1595 425.958 26.7846 425.909 29.1071C425.863 31.2598 424.311 31.8601 422.37 31.8394C418.801 31.8021 415.237 31.8228 411.669 31.8311C409.026 31.8352 407.568 32.837 407.758 34.6958C408.002 37.1052 409.704 37.5895 411.81 37.5026C413.676 37.424 415.547 37.4902 417.414 37.4861C419.285 37.4861 420.371 38.521 420.354 40.2763C420.338 42.0398 419.206 43.0251 417.356 43.0251C413.619 43.0168 409.881 43.0541 406.148 43.0086C404.095 42.9837 402.534 43.5467 402.571 45.9147C402.609 48.2827 404.232 48.796 406.243 48.7587C408.109 48.7215 409.98 48.7836 411.847 48.7422C413.809 48.6966 415.06 49.6322 415.023 51.549C414.986 53.4533 413.689 54.3061 411.752 54.2978C404.199 54.2647 396.641 54.2854 388.534 54.2854C394.081 48.5683 396.166 41.8949 395.935 34.435C395.699 26.8633 393.193 20.3224 386.556 15.0193L386.548 15.0152Z" fill="#4AA4CA"/>
<path d="M348.566 34.9814C348.575 22.7814 356.355 14.8081 368.274 14.7915C380.229 14.775 388.328 23.0463 388.188 35.1304C388.043 47.2725 380.159 55.2292 368.278 55.2168C356.467 55.2043 348.558 47.0862 348.566 34.9814ZM378.074 34.9483C378.181 32.5347 377.793 30.0343 376.707 27.6829C375.055 24.1144 372.255 22.1687 368.299 22.1894C364.466 22.2101 361.617 23.9902 360.097 27.5463C357.995 32.4602 357.974 37.4611 360.08 42.3709C361.542 45.7863 364.214 47.6078 368.014 47.732C371.916 47.8603 374.683 46.1009 376.475 42.7435C377.743 40.3755 378.14 37.784 378.078 34.9441L378.074 34.9483Z" fill="#F5C458"/>
<path d="M9.9939 35.6024C19.0464 44.6023 29.6228 50.5264 42.1112 54.5585C40.0174 55.0843 38.7537 54.5503 37.5024 54.2812C24.0847 51.3916 11.8482 46.0844 1.65174 36.6332C0.13748 35.2312 0.27927 34.0141 2.0771 32.9819C10.6629 28.0307 19.2488 23.0794 28.1195 17.9626C28.6523 23.3527 29.9986 28.2583 32.4104 32.8494C38.6051 44.6478 53.4682 52.174 66.4315 50.042C76.4876 48.3861 83.5702 40.4625 85.028 29.2271C85.061 28.9745 85.1023 28.7261 85.2716 27.6084C87.0103 30.469 88.4722 32.7335 89.7731 35.089C90.2439 35.9377 89.3477 36.6663 88.943 37.3576C82.0463 49.243 69.7313 55.1464 56.1608 52.8364C41.5579 50.3525 30.0027 43.3065 23.0151 29.7859C22.5691 28.9249 22.2552 28.6682 21.326 29.2105C17.6629 31.3342 13.9544 33.3752 9.98977 35.6024H9.9939Z" fill="#4AA4CA"/>
<path d="M291.076 20.4715C291.897 19.4075 292.434 18.6624 293.025 17.9627C296.448 13.9099 303.717 13.736 307.355 17.6233C308.718 19.0805 309.098 20.7654 308.053 22.5165C306.983 24.3008 305.447 24.9673 303.287 24.396C295.172 22.2516 292.376 24.1145 291.625 32.5804C291.199 37.3908 291.431 42.2634 291.315 47.1028C291.282 48.5393 291.216 50.0007 290.931 51.4041C290.44 53.83 288.598 55.2458 286.207 55.2003C283.749 55.1548 282.254 53.8176 281.647 51.5159C281.412 50.6258 281.362 49.6695 281.362 48.7422C281.342 39.7298 281.338 30.7175 281.362 21.7093C281.362 20.6122 281.47 19.4945 281.709 18.4305C282.246 16.0584 283.749 14.7751 286.24 14.7999C288.622 14.8206 290.022 16.0543 290.547 18.3477C290.679 18.9232 290.832 19.4945 291.071 20.4756L291.076 20.4715Z" fill="#F5C458"/>
<path d="M42.5986 15.7271C45.9603 18.8237 49.2146 20.9143 52.8199 23.2077C49.7638 24.1475 47.0299 23.5886 43.9656 23.481C46.2907 26.2712 49.3756 27.1612 52.601 28.5729C47.7155 28.8254 39.8565 24.2882 36.8582 19.751C39.9721 20.2892 42.9868 21.1047 46.6995 21.1916C42.5119 18.5422 38.6919 16.2487 35.7432 12.2248C39.3898 13.0942 42.6606 13.6282 46.109 13.5578C40.447 10.0017 34.7727 6.56157 30.8081 0.372559C36.1686 3.13381 41.7149 2.96408 46.9432 4.23914C53.716 5.89092 60.3732 7.85319 66.6959 10.8339C69.624 12.2165 72.3951 13.8435 74.8564 15.9755C80.411 20.7901 81.4971 26.9253 77.9001 33.3461C77.0411 34.8778 76.0995 36.3516 74.4517 38.0945C74.8358 34.5963 74.8853 31.6861 74.2741 28.813C73.1425 23.4851 70.4871 19.1507 65.6759 16.4598C57.2676 11.7529 48.2895 8.4162 39.0264 5.83296C38.7249 5.75017 38.3821 5.82054 37.837 5.82054C41.9874 10.4157 48.7975 10.6972 52.9107 15.7023C49.388 16.6586 46.3155 16.1908 42.6069 15.7271H42.5986Z" fill="#F6C22F"/>
<path d="M436.853 37.8791C440.074 37.8791 443.295 37.9123 446.516 37.8667C448.47 37.8419 449.672 38.7237 449.68 40.6694C449.684 42.495 448.449 43.4348 446.69 43.4472C440.078 43.4886 433.466 43.501 426.859 43.4348C425.137 43.4182 423.918 42.4785 423.96 40.5907C424.001 38.7319 425.12 37.8791 426.937 37.8791C430.241 37.8791 433.549 37.8791 436.853 37.8791Z" fill="#4AA4CA"/>
<path d="M428.246 48.7463C430.365 48.7463 432.488 48.7463 434.606 48.7463C436.341 48.7463 437.419 49.7109 437.468 51.3461C437.526 53.0807 436.498 54.244 434.648 54.2647C430.324 54.3102 425.996 54.2978 421.672 54.273C419.879 54.2647 418.723 53.3746 418.715 51.5159C418.707 49.6737 419.78 48.7463 421.626 48.7463C423.832 48.7463 426.037 48.7463 428.242 48.7463H428.246Z" fill="#4AA4CA"/>
<path d="M436.964 25.704C438.319 25.704 439.673 25.6875 441.028 25.704C442.783 25.7247 443.716 26.739 443.77 28.3866C443.824 29.939 442.87 31.0816 441.362 31.1727C438.496 31.3424 435.605 31.3466 432.735 31.1893C431.1 31.0982 430.129 29.9266 430.253 28.2334C430.369 26.7017 431.277 25.7537 432.896 25.7123C434.251 25.6792 435.605 25.704 436.96 25.704H436.964Z" fill="#4AA4CA"/>
<path d="M200.456 50.4105V37.5315L207.699 30.5021C208.996 29.5831 209.446 29.1526 210.458 30.7712C214.687 37.5398 219.068 44.2132 223.376 50.9321C224.02 51.9381 224.648 52.9399 225.565 53.7265C227.696 55.5521 231.334 55.755 233.378 54.1611C235.282 52.6749 235.633 50.3359 234.221 47.4464C233.552 46.0802 232.701 44.7927 231.834 43.5384C227.39 37.1093 223.033 30.618 218.383 24.3421C216.822 22.2349 217.185 21.2083 218.957 19.6393C222.773 16.2653 226.428 12.7051 230.066 9.13659C232.746 6.50781 233.031 3.57268 230.987 1.49864C228.922 -0.596102 225.474 -0.509166 223 1.8381C221.092 3.65134 219.312 5.59705 217.491 7.49722C211.986 13.235 206.489 18.9769 200.456 25.2777C200.456 19.0514 200.472 13.6159 200.443 8.18029C200.435 6.82657 200.414 5.44388 200.146 4.12328C199.613 1.4945 197.722 0.0538478 195.062 0.029009C192.357 0.00417013 190.585 1.35789 189.982 4.06532C189.743 5.13339 189.656 6.25114 189.656 7.34819C189.635 20.6121 189.635 33.8719 189.656 47.1359C189.656 48.4068 189.718 49.6943 189.945 50.9362C190.404 53.4822 192.39 55.1257 194.909 55.2044C197.428 55.283 199.877 52.9357 200.46 50.4063" fill="#F5C458"/>
<path d="M149.296 22.6239L153.141 22.6157C157.151 22.6115 157.795 21.9947 157.799 18.1405C157.807 14.0504 157.221 13.4667 153.091 13.4626L149.296 13.4419V11.5665C149.382 9.10747 149.271 6.63601 149.271 4.17282C149.271 1.99115 148.156 0.877538 146.004 0.794742C145.158 0.761623 144.307 0.769903 143.46 0.786462C140.375 0.844419 139.512 1.68066 139.504 4.71928C139.487 10.4074 139.5 16.0955 139.5 21.7877C139.5 27.4758 139.425 33.168 139.516 38.8561C139.673 48.6509 146.545 55.5892 155.742 55.4485C157.853 55.4154 158.935 54.5957 158.897 52.4388C158.881 51.5032 158.914 50.5718 158.877 49.6362C158.819 48.1666 158.092 47.3262 156.593 47.0571C151.381 46.1256 149.345 43.7452 149.283 38.4753" fill="#4AA4CA"/>
<path d="M170.779 22.6239L174.624 22.6157C178.634 22.6115 179.278 21.9947 179.282 18.1405C179.291 14.0504 178.704 13.4667 174.574 13.4626L170.779 13.4419V11.5665C170.866 9.10747 170.754 6.63601 170.754 4.17282C170.754 1.99115 169.639 0.877538 167.488 0.794742C166.641 0.761623 165.79 0.769903 164.944 0.786462C161.859 0.844419 160.996 1.68066 160.987 4.71928C160.971 10.4074 160.983 16.0955 160.983 21.7877C160.983 27.4758 160.909 33.168 161 38.8561C161.157 48.6509 168.029 55.5892 177.226 55.4485C179.336 55.4154 180.418 54.5957 180.381 52.4388C180.364 51.5032 180.397 50.5718 180.36 49.6362C180.302 48.1666 179.576 47.3262 178.076 47.0571C172.865 46.1256 170.829 43.7452 170.767 38.4753" fill="#4AA4CA"/>
</g>
<defs>
<clipPath id="clip0_443_1132">
<rect width="449.68" height="70" fill="white"/>
</clipPath>
</defs>
</svg>
