<svg xmlns="http://www.w3.org/2000/svg" id="Component_29_1" data-name="Component 29 – 1" width="20" height="20" viewBox="0 0 20 20">
  <rect id="Rectangle_1978" data-name="Rectangle 1978" width="20" height="20" fill="none"/>
  <path id="settings_FILL0_wght400_GRAD0_opsz20" d="M11.583,18.333H8.417a.821.821,0,0,1-.573-.218.871.871,0,0,1-.282-.553l-.229-1.854q-.208-.125-.458-.27t-.458-.271L4.688,15.9a.886.886,0,0,1-.626.021.849.849,0,0,1-.479-.4L2.021,12.792a.808.808,0,0,1-.094-.6.939.939,0,0,1,.323-.521l1.458-1.125V9.458L2.25,8.333a.939.939,0,0,1-.323-.521.808.808,0,0,1,.094-.6L3.583,4.479a.849.849,0,0,1,.479-.4.886.886,0,0,1,.626.021l1.729.729q.208-.125.458-.27t.458-.271l.229-1.854a.871.871,0,0,1,.282-.553.821.821,0,0,1,.573-.218h3.166a.821.821,0,0,1,.573.218.871.871,0,0,1,.282.553l.229,1.854q.208.125.458.271t.458.27L15.312,4.1a.886.886,0,0,1,.626-.021.849.849,0,0,1,.479.4L18,7.208a.852.852,0,0,1-.229,1.125L16.312,9.458v1.084l1.459,1.125A.852.852,0,0,1,18,12.792l-1.583,2.729a.849.849,0,0,1-.479.4.886.886,0,0,1-.626-.021l-1.729-.729q-.208.125-.458.271t-.458.27l-.229,1.854a.871.871,0,0,1-.282.553A.821.821,0,0,1,11.583,18.333ZM10,12.979A2.987,2.987,0,0,0,12.979,10,2.987,2.987,0,0,0,10,7.021,2.987,2.987,0,0,0,7.021,10,2.987,2.987,0,0,0,10,12.979Zm0-1.75a1.243,1.243,0,1,1,.865-.364A1.184,1.184,0,0,1,10,11.229ZM10.021,10Zm-.854,6.583h1.666l.25-2.166a4.775,4.775,0,0,0,1.167-.5,5.2,5.2,0,0,0,1.021-.792l2.021.854.833-1.375L14.354,11.25a2.98,2.98,0,0,0,.146-.6A4.854,4.854,0,0,0,14.542,10a4.309,4.309,0,0,0-.042-.594,6.115,6.115,0,0,0-.125-.635L16.146,7.4l-.834-1.375-2.02.875a5.123,5.123,0,0,0-1.032-.8A4.829,4.829,0,0,0,11.1,5.6l-.271-2.187H9.167L8.9,5.6a4.829,4.829,0,0,0-1.156.49,5.006,5.006,0,0,0-1.011.781L4.708,6.021,3.875,7.4,5.625,8.75A5.94,5.94,0,0,0,5.5,9.4a4.528,4.528,0,0,0-.042.6,4.309,4.309,0,0,0,.042.594,6.115,6.115,0,0,0,.125.635L3.875,12.6l.833,1.375,2.021-.854a5.006,5.006,0,0,0,1.011.781A4.829,4.829,0,0,0,8.9,14.4Z" transform="translate(0.095 0.333)" fill="#101828"/>
</svg>