<svg xmlns="http://www.w3.org/2000/svg" id="Component_20_1" data-name="Component 20 – 1" width="20" height="20" viewBox="0 0 20 20">
  <rect id="Rectangle_1978" data-name="Rectangle 1978" width="20" height="20" fill="none"/>
  <path id="login_FILL0_wght400_GRAD0_opsz20" d="M7.6,13.667a.88.88,0,0,1,0-1.229l1.563-1.563H3.375a.875.875,0,0,1,0-1.75H9.1L7.562,7.583a.823.823,0,0,1-.25-.6.792.792,0,0,1,.271-.6A.8.8,0,0,1,8.2,6.1a.87.87,0,0,1,.635.271L11.854,9.4a.905.905,0,0,1,.208.3.86.86,0,0,1,0,.646.905.905,0,0,1-.208.3L8.812,13.688a.81.81,0,0,1-.593.25A.848.848,0,0,1,7.6,13.667ZM10.9,17.5a.875.875,0,0,1,0-1.75H15.75V4.25H10.9a.888.888,0,0,1-.875-.875A.888.888,0,0,1,10.9,2.5H15.75A1.741,1.741,0,0,1,17.5,4.25v11.5a1.741,1.741,0,0,1-1.75,1.75Z" transform="translate(0.5 0.5)" fill="#101828"/>
</svg>