<svg width="20" height="20" viewBox="0 0 20 20" fill="none" xmlns="http://www.w3.org/2000/svg">
<path d="M11.459 19H8.08398C7.86728 19.0032 7.65771 18.9226 7.49898 18.775C7.3364 18.6294 7.23228 18.4297 7.20598 18.213L6.93598 16.12C6.74455 16.0468 6.56014 15.9565 6.38498 15.85C6.21232 15.7454 6.04332 15.633 5.87798 15.513L3.92098 16.323C3.71875 16.3976 3.49792 16.4053 3.29098 16.345C3.08093 16.2877 2.90154 16.1506 2.79098 15.963L1.12598 13.063C1.00751 12.8758 0.967286 12.6496 1.01398 12.433C1.0535 12.2167 1.17402 12.0236 1.35098 11.893L3.04598 10.608C3.03132 10.5087 3.02364 10.4084 3.02298 10.308V9.70003C3.02362 9.59961 3.03131 9.49937 3.04598 9.40003L1.35598 8.11003C1.17902 7.97948 1.0585 7.78636 1.01898 7.57003C0.972286 7.35347 1.01251 7.12723 1.13098 6.94003L2.79598 4.04003C2.84115 3.9419 2.90815 3.85539 2.99186 3.7871C3.07557 3.71882 3.17378 3.67057 3.27898 3.64603C3.49159 3.59318 3.71514 3.60502 3.92098 3.68003L5.87798 4.49003C6.04481 4.36804 6.2177 4.25456 6.39598 4.15003C6.56978 4.04813 6.75018 3.95793 6.93598 3.88003L7.20598 1.78803C7.23228 1.57137 7.3364 1.37164 7.49898 1.22603C7.65755 1.07809 7.86714 0.99712 8.08398 1.00003H11.459C11.6757 0.996849 11.8853 1.07745 12.044 1.22503C12.2068 1.37089 12.3109 1.57101 12.337 1.78803L12.607 3.88003C12.7987 3.95335 12.9834 4.04371 13.159 4.15003C13.331 4.25536 13.4996 4.36803 13.665 4.48803L15.622 3.67803C15.8241 3.60313 16.0449 3.59507 16.252 3.65503C16.4598 3.71377 16.6368 3.85067 16.746 4.03703L18.411 6.93703C18.5295 7.12423 18.5697 7.35047 18.523 7.56703C18.4835 7.78336 18.3629 7.97648 18.186 8.10703L16.499 9.38903C16.5133 9.48839 16.5207 9.58864 16.521 9.68903V10.3C16.5198 10.4016 16.5047 10.5026 16.476 10.6L18.164 11.882C18.3409 12.0126 18.4615 12.2057 18.501 12.422C18.5474 12.6387 18.5068 12.865 18.388 13.052L16.723 15.932C16.6094 16.1219 16.4289 16.2625 16.217 16.326C16.0076 16.3934 15.7817 16.3892 15.575 16.314L13.663 15.504C13.4961 15.625 13.3232 15.7375 13.145 15.841C12.9712 15.9429 12.7908 16.0331 12.605 16.111L12.335 18.204C12.3089 18.4211 12.2048 18.6212 12.042 18.767C11.885 18.917 11.6761 19.0005 11.459 19ZM9.81598 13.15C10.6514 13.15 11.4526 12.8182 12.0434 12.2274C12.6341 11.6367 12.966 10.8355 12.966 10C12.966 9.1646 12.6341 8.36338 12.0434 7.77264C11.4526 7.1819 10.6514 6.85003 9.81598 6.85003C9.40158 6.84737 8.99077 6.92704 8.60739 7.0844C8.22402 7.24176 7.87571 7.47369 7.58267 7.76672C7.28964 8.05976 7.05771 8.40807 6.90035 8.79144C6.74299 9.17482 6.66333 9.58562 6.66598 10C6.66333 10.4144 6.74299 10.8252 6.90035 11.2086C7.05771 11.592 7.28964 11.9403 7.58267 12.2333C7.87571 12.5264 8.22402 12.7583 8.60739 12.9157C8.99077 13.073 9.40158 13.1527 9.81598 13.15ZM9.81598 11.35C9.50534 11.3486 9.20478 11.2396 8.96545 11.0415C8.72611 10.8435 8.56277 10.5686 8.5032 10.2638C8.44364 9.95886 8.49153 9.64276 8.63873 9.3692C8.78593 9.09564 9.02334 8.88152 9.3106 8.76325C9.59786 8.64499 9.91722 8.62988 10.2144 8.72051C10.5115 8.81113 10.7681 9.00189 10.9404 9.26034C11.1128 9.51879 11.1903 9.82896 11.1598 10.1381C11.1292 10.4473 10.9926 10.7363 10.773 10.956C10.6489 11.0837 10.5 11.1846 10.3354 11.2524C10.1708 11.3201 9.99398 11.3534 9.81598 11.35ZM8.87098 17.2H10.646L10.961 14.815C11.4148 14.6996 11.8503 14.5216 12.255 14.286C12.6534 14.0531 13.02 13.7697 13.346 13.443L15.573 14.366L16.45 12.836L14.515 11.374C14.5913 11.159 14.6443 10.9364 14.673 10.71C14.7331 10.2393 14.7331 9.76279 14.673 9.29203C14.6442 9.066 14.5913 8.84372 14.515 8.62903L16.45 7.16703L15.573 5.63703L13.346 6.58003C12.7001 5.89733 11.8726 5.41335 10.961 5.18503L10.671 2.80003H8.89398L8.57898 5.18503C8.1256 5.30026 7.69043 5.47796 7.28598 5.71303C6.88729 5.94636 6.52027 6.23002 6.19398 6.55703L3.96598 5.63503L3.08798 7.16503L5.02398 8.60003C4.95043 8.81956 4.89786 9.04557 4.86698 9.27503C4.83611 9.51377 4.82108 9.7543 4.82198 9.99503C4.82143 10.2291 4.83646 10.463 4.86698 10.695C4.89786 10.9245 4.95043 11.1505 5.02398 11.37L3.08898 12.835L3.96698 14.365L6.19398 13.42C6.84091 14.1014 7.66796 14.5852 8.57898 14.815L8.87098 17.2Z" fill="black"/>
</svg>
