<svg width="24" height="24" viewBox="0 0 24 24" fill="none" xmlns="http://www.w3.org/2000/svg">
<mask id="mask0_1552_5025" style="mask-type:alpha" maskUnits="userSpaceOnUse" x="0" y="0" width="24" height="24">
<rect width="24" height="24" fill="#D9D9D9"/>
</mask>
<g mask="url(#mask0_1552_5025)">
<path d="M14 20.75C13.7833 20.75 13.6043 20.6793 13.463 20.538C13.321 20.396 13.25 20.2167 13.25 20C13.25 19.7833 13.321 19.604 13.463 19.462C13.6043 19.3207 13.7833 19.25 14 19.25C14.8667 19.25 15.625 19.075 16.275 18.725C16.925 18.375 17.25 17.9667 17.25 17.5C17.25 17.1667 17.0917 16.8667 16.775 16.6C16.4583 16.3333 16.025 16.1083 15.475 15.925L16.6 14.8C17.2833 15.1 17.8127 15.475 18.188 15.925C18.5627 16.375 18.75 16.9 18.75 17.5C18.75 18.5167 18.25 19.3123 17.25 19.887C16.25 20.4623 15.1667 20.75 14 20.75ZM5.125 13.3C4.525 13.0167 4.06267 12.6873 3.738 12.312C3.41267 11.9373 3.25 11.5 3.25 11C3.25 10.3667 3.496 9.829 3.988 9.387C4.47933 8.94567 5.36667 8.44167 6.65 7.875C7.71667 7.39167 8.41667 7.029 8.75 6.787C9.08333 6.54567 9.25 6.28333 9.25 6C9.25 5.66667 9.05833 5.375 8.675 5.125C8.29167 4.875 7.73333 4.75 7 4.75C6.55 4.75 6.16267 4.80833 5.838 4.925C5.51267 5.04167 5.225 5.225 4.975 5.475C4.84167 5.625 4.675 5.71233 4.475 5.737C4.275 5.76233 4.09167 5.70833 3.925 5.575C3.75833 5.44167 3.66267 5.275 3.638 5.075C3.61267 4.875 3.675 4.69167 3.825 4.525C4.10833 4.175 4.53767 3.875 5.113 3.625C5.68767 3.375 6.31667 3.25 7 3.25C8.11667 3.25 9.021 3.504 9.713 4.012C10.4043 4.52067 10.75 5.18333 10.75 6C10.75 6.6 10.5167 7.14167 10.05 7.625C9.58333 8.10833 8.65 8.65 7.25 9.25C6.25 9.68333 5.58333 10.0207 5.25 10.262C4.91667 10.504 4.75 10.75 4.75 11C4.75 11.2167 4.87933 11.425 5.138 11.625C5.396 11.825 5.775 12.0083 6.275 12.175L5.125 13.3ZM18.525 9.75L15.125 6.35L16.075 5.375C16.4083 5.04167 16.796 4.875 17.238 4.875C17.6793 4.875 18.0583 5.04167 18.375 5.375L19.5 6.5C19.8333 6.81667 20 7.19567 20 7.637C20 8.079 19.8333 8.46667 19.5 8.8L18.525 9.75ZM5.925 18.95H7.2L14.85 11.3L13.575 10.025L5.925 17.675V18.95ZM4.875 20.45C4.74167 20.45 4.63333 20.4083 4.55 20.325C4.46667 20.2417 4.425 20.1333 4.425 20V17.25C4.425 17.2167 4.46667 17.1 4.55 16.9L13.575 7.875L17 11.3L7.975 20.325C7.94167 20.3417 7.825 20.3833 7.625 20.45H4.875Z" fill="#1C1B1F"/>
</g>
</svg>
