<svg width="20" height="20" viewBox="0 0 20 20" fill="none" xmlns="http://www.w3.org/2000/svg">
<g id="home">
<mask id="mask0_1552_4985" style="mask-type:alpha" maskUnits="userSpaceOnUse" x="0" y="0" width="20" height="20">
<rect id="Bounding box" width="20" height="20" fill="#D9D9D9"/>
</mask>
<g mask="url(#mask0_1552_4985)">
<path id="home_2" d="M5.083 15.75H7.708V10.792H12.292V15.75H14.917V8.375L10 4.667L5.083 8.375V15.75ZM5.083 17.083C4.72233 17.083 4.41 16.9513 4.146 16.688C3.882 16.424 3.75 16.1113 3.75 15.75V8.375C3.75 8.16634 3.79867 7.96834 3.896 7.781C3.99333 7.59367 4.12533 7.43734 4.292 7.312L9.208 3.604C9.31933 3.52067 9.44433 3.45834 9.583 3.417C9.72233 3.375 9.86133 3.354 10 3.354C10.1527 3.354 10.295 3.375 10.427 3.417C10.559 3.45834 10.6807 3.52067 10.792 3.604L15.708 7.312C15.8747 7.43734 16.0067 7.59367 16.104 7.781C16.2013 7.96834 16.25 8.16634 16.25 8.375V15.75C16.25 16.1113 16.118 16.424 15.854 16.688C15.59 16.9513 15.2777 17.083 14.917 17.083H10.958V12.125H9.042V17.083H5.083Z" fill="#1C1B1F"/>
</g>
</g>
</svg>
