<svg width="127" height="127" viewBox="0 0 127 127" fill="none" xmlns="http://www.w3.org/2000/svg">
<g id="star_flair">
<path id="Vector" fill-rule="evenodd" clip-rule="evenodd" d="M76.704 55.9086L92.3063 35.3715C93.2018 34.2021 93.5962 32.7249 93.4025 31.2647C93.2089 29.8046 92.4431 28.4812 91.2737 27.5856C90.1043 26.6901 88.627 26.2958 87.1669 26.4894C85.7068 26.6831 84.3834 27.4488 83.4878 28.6182L67.7271 49.034L64.2371 23.4798C64.0384 22.0241 63.2709 20.7065 62.1028 19.8154C60.9348 18.9243 59.4612 18.5323 58.0047 18.7253C56.548 18.9183 55.2273 19.6809 54.3317 20.8459C53.4361 22.0108 53.0388 23.4832 53.2267 24.9406L56.5184 50.5211L35.9818 34.9182C34.811 34.0426 33.3421 33.664 31.8939 33.8645C30.4457 34.065 29.1349 34.8284 28.246 35.9892C27.3571 37.1499 26.9617 38.6144 27.1457 40.0648C27.3296 41.5152 28.078 42.8346 29.2285 43.7367L49.6443 59.4974L24.0901 62.9874C22.63 63.1811 21.3066 63.9468 20.411 65.1162C19.5155 66.2857 19.1211 67.7629 19.3148 69.2231C19.5084 70.6832 20.2742 72.0066 21.4436 72.9022C22.613 73.7977 24.0903 74.192 25.5505 73.9984L51.1314 70.7061L35.5291 91.2432C34.6535 92.414 34.2749 93.8829 34.4754 95.3311C34.6759 96.7793 35.4393 98.09 36.6001 98.9789C37.7608 99.8679 39.2253 100.263 40.6757 100.079C42.1261 99.8954 43.4455 99.147 44.3476 97.9964L60.1077 77.5802L63.5977 103.134C63.8057 104.582 64.5763 105.889 65.7423 106.772C66.9084 107.655 68.3756 108.043 69.8255 107.851C71.2754 107.658 72.591 106.902 73.4865 105.745C74.3821 104.589 74.7853 103.126 74.6087 101.674L71.3164 76.0931L91.8535 91.6954C93.0229 92.591 94.5001 92.9853 95.9603 92.7916C97.4204 92.598 98.7438 91.8322 99.6393 90.6628C100.535 89.4934 100.929 88.0162 100.736 86.556C100.542 85.0959 99.7761 83.7725 98.6067 82.8769L78.1905 67.1168L103.745 63.6268C105.192 63.4188 106.5 62.6482 107.383 61.4822C108.266 60.3162 108.653 58.8489 108.461 57.399C108.269 55.9491 107.512 54.6336 106.356 53.738C105.199 52.8425 103.736 52.4392 102.284 52.6158L76.704 55.9086Z" fill="url(#paint0_radial_299_53796)"/>
<path id="Vector_2" fill-rule="evenodd" clip-rule="evenodd" d="M76.704 55.9086L92.3063 35.3715C93.2018 34.2021 93.5962 32.7249 93.4025 31.2647C93.2089 29.8046 92.4431 28.4812 91.2737 27.5856C90.1043 26.6901 88.627 26.2958 87.1669 26.4894C85.7068 26.6831 84.3834 27.4488 83.4878 28.6182L67.7271 49.034L64.2371 23.4798C64.0384 22.0241 63.2709 20.7065 62.1028 19.8154C60.9348 18.9243 59.4612 18.5323 58.0047 18.7253C56.548 18.9183 55.2273 19.6809 54.3317 20.8459C53.4361 22.0108 53.0388 23.4832 53.2267 24.9406L56.5184 50.5211L35.9818 34.9182C34.811 34.0426 33.3421 33.664 31.8939 33.8645C30.4457 34.065 29.1349 34.8284 28.246 35.9892C27.3571 37.1499 26.9617 38.6144 27.1457 40.0648C27.3296 41.5152 28.078 42.8346 29.2285 43.7367L49.6443 59.4974L24.0901 62.9874C22.63 63.1811 21.3066 63.9468 20.411 65.1162C19.5155 66.2857 19.1211 67.7629 19.3148 69.2231C19.5084 70.6832 20.2742 72.0066 21.4436 72.9022C22.613 73.7977 24.0903 74.192 25.5505 73.9984L51.1314 70.7061L35.5291 91.2432C34.6535 92.414 34.2749 93.8829 34.4754 95.3311C34.6759 96.7793 35.4393 98.09 36.6001 98.9789C37.7608 99.8679 39.2253 100.263 40.6757 100.079C42.1261 99.8954 43.4455 99.147 44.3476 97.9964L60.1077 77.5802L63.5977 103.134C63.8057 104.582 64.5763 105.889 65.7423 106.772C66.9084 107.655 68.3756 108.043 69.8255 107.851C71.2754 107.658 72.591 106.902 73.4865 105.745C74.3821 104.589 74.7853 103.126 74.6087 101.674L71.3164 76.0931L91.8535 91.6954C93.0229 92.591 94.5001 92.9853 95.9603 92.7916C97.4204 92.598 98.7438 91.8322 99.6393 90.6628C100.535 89.4934 100.929 88.0162 100.736 86.556C100.542 85.0959 99.7761 83.7725 98.6067 82.8769L78.1905 67.1168L103.745 63.6268C105.192 63.4188 106.5 62.6482 107.383 61.4822C108.266 60.3162 108.653 58.8489 108.461 57.399C108.269 55.9491 107.512 54.6336 106.356 53.738C105.199 52.8425 103.736 52.4392 102.284 52.6158L76.704 55.9086Z" fill="url(#paint1_radial_299_53796)"/>
</g>
<defs>
<radialGradient id="paint0_radial_299_53796" cx="0" cy="0" r="1" gradientUnits="userSpaceOnUse" gradientTransform="translate(2.64859 96.7852) rotate(-14.7788) scale(146.829 70.4908)">
<stop offset="0.271" stop-color="#FECECA"/>
<stop offset="1" stop-color="#F87C71"/>
</radialGradient>
<radialGradient id="paint1_radial_299_53796" cx="0" cy="0" r="1" gradientUnits="userSpaceOnUse" gradientTransform="translate(2.64859 96.7852) rotate(-14.7788) scale(146.829 70.4908)">
<stop offset="0.271" stop-color="#FECECA"/>
<stop offset="1" stop-color="#F87C71"/>
</radialGradient>
</defs>
</svg>
