<svg width="72" height="72" viewBox="0 0 72 72" fill="none" xmlns="http://www.w3.org/2000/svg">
<g id="tiktok">
<path id="vector" d="M19.0146 44.5333C19.3663 41.6221 20.5603 39.9921 22.8103 38.3211C26.0298 36.0581 30.0513 37.3382 30.0513 37.3382V29.7441C31.029 29.7191 32.007 29.7771 32.9741 29.9173V39.6902C32.9741 39.6902 28.9537 38.41 25.7343 40.6742C23.4855 42.344 22.289 43.9752 21.9386 46.8864C21.9276 48.4673 22.2243 50.5337 23.5905 52.3205C23.2527 52.1473 22.9084 51.95 22.5576 51.7284C19.5482 49.7076 19 46.6758 19.0146 44.5333ZM49.5791 15.7026C47.3644 13.2757 46.5269 10.8255 46.2241 9.10425H49.0102C49.0102 9.10425 48.4547 13.6174 52.5031 18.0557L52.5592 18.1154C51.4681 17.429 50.4675 16.6189 49.5791 15.7026ZM63.0001 22.5829V32.1592C63.0001 32.1592 59.4449 32.02 56.814 31.3507C53.1404 30.4146 50.7792 28.9788 50.7792 28.9788C50.7792 28.9788 49.1481 27.955 49.0163 27.8836V47.6587C49.0163 48.7598 48.7147 51.5096 47.7954 53.8031C46.5953 56.8033 44.7432 58.7726 44.4026 59.1751C44.4026 59.1751 42.1501 61.8371 38.1762 63.6298C34.5942 65.2469 31.4492 65.2059 30.5091 65.2469C30.5091 65.2469 25.0726 65.4622 20.1806 62.283C19.1227 61.5822 18.1352 60.7886 17.231 59.9123L17.2554 59.9298C22.1486 63.1091 27.5839 62.8938 27.5839 62.8938C28.5252 62.8528 31.6702 62.8938 35.251 61.2766C39.2212 59.484 41.4774 56.822 41.4774 56.822C41.8144 56.4195 43.675 54.4501 44.8702 51.4488C45.7871 49.1565 46.0911 46.4055 46.0911 45.3044V25.5316C46.2229 25.6042 47.8528 26.6281 47.8528 26.6281C47.8528 26.6281 50.2152 28.065 53.8888 28.9999C56.521 29.6692 60.0749 29.8085 60.0749 29.8085V22.3044C61.2909 22.5771 62.3274 22.6508 63.0001 22.5829Z" fill="#EE1D52"/>
<path id="vector_2" d="M60.076 22.3044V29.8061C60.076 29.8061 56.522 29.6669 53.8898 28.9976C50.2162 28.0615 47.8538 26.6257 47.8538 26.6257C47.8538 26.6257 46.224 25.6019 46.0921 25.5293V45.3068C46.0921 46.4079 45.7906 49.1588 44.8713 51.4511C43.6711 54.4525 41.8191 56.4218 41.4785 56.8243C41.4785 56.8243 39.2247 59.4864 35.252 61.279C31.6712 62.8961 28.5263 62.8552 27.585 62.8961C27.585 62.8961 22.1497 63.1114 17.2564 59.9322L17.232 59.9146C16.7154 59.4144 16.2291 58.8862 15.7755 58.3326C14.214 56.4288 13.2568 54.1775 13.0163 53.5351C13.0159 53.5324 13.0159 53.5296 13.0163 53.5269C12.6293 52.4106 11.8162 49.7299 11.9273 47.1333C12.1239 42.5523 13.7354 39.7405 14.1615 39.0361C15.29 37.1151 16.7577 35.3965 18.4993 33.9566C20.0361 32.714 21.7781 31.7254 23.6538 31.0312C25.6814 30.2162 27.8527 29.7793 30.0511 29.7441V37.3382C30.0511 37.3382 26.0296 36.0628 22.8114 38.3211C20.5613 39.9921 19.3673 41.6221 19.0157 44.5333C19.001 46.6758 19.5492 49.7076 22.5562 51.7296C22.907 51.9519 23.2513 52.1493 23.5891 52.3217C24.1144 53.0045 24.7538 53.5996 25.4814 54.0827C28.4188 55.9421 30.8801 56.0719 34.0275 54.8644C36.1262 54.057 37.706 52.2374 38.4385 50.2213C38.8988 48.9622 38.8927 47.695 38.8927 46.3845V9.10425H46.2179C46.5206 10.8255 47.3582 13.2757 49.5728 15.7026C50.4612 16.6189 51.4618 17.429 52.553 18.1154C52.8753 18.4489 54.5234 20.0976 56.6392 21.1097C57.7332 21.6329 58.8864 22.0338 60.076 22.3044Z" fill="black"/>
<path id="vector_3" d="M10.1011 51.2031V51.209L10.2828 51.7016C10.262 51.6443 10.1944 51.4699 10.1011 51.2031Z" fill="#69C9D0"/>
<path id="vector_4" d="M23.6538 31.0314C21.7782 31.7256 20.0362 32.7142 18.4993 33.9568C16.7572 35.3999 15.2898 37.1222 14.1628 39.0468C13.7367 39.7489 12.1252 42.563 11.9286 47.1441C11.8175 49.7406 12.6306 52.4213 13.0176 53.5376C13.0172 53.5404 13.0172 53.5431 13.0176 53.5458C13.2618 54.1824 14.2153 56.4337 15.7768 58.3434C16.2304 58.8969 16.7167 59.4251 17.2333 59.9254C15.578 58.8281 14.1018 57.5016 12.8528 55.9891C11.3047 54.1017 10.35 51.8737 10.101 51.2161C10.1007 51.2114 10.1007 51.2068 10.101 51.2021V51.1939C9.71274 50.0788 8.8972 47.3968 9.01074 44.7968C9.2073 40.2158 10.8188 37.404 11.2449 36.6995C12.3716 34.7747 13.839 33.0524 15.5815 31.6095C17.118 30.3665 18.8601 29.3779 20.736 28.6842C21.906 28.2189 23.125 27.8756 24.3717 27.6603C26.2506 27.346 28.1695 27.3187 30.0573 27.5796V29.7443C27.8568 29.7788 25.6834 30.2157 23.6538 31.0314Z" fill="#69C9D0"/>
<path id="vector_5" d="M46.224 9.10429H38.8988V46.3857C38.8988 47.6962 38.8988 48.96 38.4446 50.2225C37.7048 52.2375 36.1311 54.057 34.0336 54.8644C30.885 56.0767 28.4238 55.9421 25.4876 54.0828C24.7587 53.6018 24.1176 53.0087 23.5903 52.3276C26.0919 53.6065 28.331 53.5843 31.1048 52.5171C33.201 51.7098 34.7772 49.8902 35.5146 47.8741C35.976 46.615 35.9699 45.3478 35.9699 44.0384V6.75H46.0848C46.0848 6.75 45.9713 7.67674 46.224 9.10429ZM60.076 20.2299V22.3045C58.8885 22.0334 57.7374 21.6326 56.6454 21.1098C54.5296 20.0976 52.8814 18.4489 52.5591 18.1154C52.9331 18.3508 53.3212 18.5649 53.7214 18.7567C56.2937 19.9876 58.827 20.3551 60.076 20.2299Z" fill="#69C9D0"/>
</g>
</svg>
