<svg width="88" height="88" viewBox="0 0 88 88" fill="none" xmlns="http://www.w3.org/2000/svg">
<rect width="88" height="88" rx="8" fill="white"/>
<path d="M33.7398 49.0099H25.5782C25.9578 50.5389 27.2021 51.6988 28.8154 51.6988C29.7328 51.6988 30.5975 51.3192 31.2196 50.6338L33.1915 50.676C32.3374 52.3421 30.6291 53.386 28.7627 53.386C25.9578 53.386 23.7539 50.9502 23.7539 48.198C23.7539 45.3614 25.9261 43.031 28.7943 43.031C31.5782 43.0416 33.8242 45.3087 33.8031 48.0925C33.8031 48.3983 33.782 48.7041 33.7398 49.0099ZM28.7732 44.7182C27.1704 44.7182 25.6942 45.9836 25.5887 47.5969H31.9472C31.8418 45.973 30.3655 44.7182 28.7732 44.7182Z" fill="#231F20"/>
<path d="M41.9124 53.133V47.7868C41.9124 46.1207 41.4168 44.7077 39.4555 44.7077C37.6418 44.7077 36.8615 46.1101 36.8615 47.7657V53.133H35.0161V43.2947H36.7349V44.3386H36.7666C37.4731 43.4001 38.5064 43.0205 39.6453 43.0205C41.0477 43.0205 42.3658 43.5688 43.1251 44.7815C43.6101 45.5302 43.7472 46.437 43.7472 47.3017V53.133H41.9124Z" fill="#231F20"/>
<path d="M53.5851 53.133V51.7305H53.5535C52.731 52.8694 51.434 53.3861 50.0737 53.3861C47.1212 53.3861 44.9595 51.1822 44.9595 48.2507C44.9595 45.3193 47.0895 43.031 50.0737 43.031C51.318 43.031 52.6255 43.5056 53.4164 44.5073H53.448V39.9941H55.2934V53.1435H53.5851V53.133ZM50.1686 44.7182C48.2178 44.7182 46.7943 46.321 46.7943 48.2402C46.7943 50.0855 48.2705 51.7094 50.1581 51.7094C52.0561 51.6989 53.5957 50.1488 53.5851 48.2507C53.5851 46.2578 52.1827 44.7182 50.1686 44.7182Z" fill="#231F20"/>
<path d="M60.6397 56.423H58.7205L60.1546 52.9432L56.2319 43.2947H58.2144L61.1142 50.9291L64.0878 43.2947H66.0702L60.6397 56.423Z" fill="#231F20"/>
<path d="M71.3322 53.386C68.4323 53.386 66.0176 51.0556 66.0176 48.1452C66.0176 45.2349 68.4851 43.031 71.3322 43.031C74.2109 43.031 76.6467 45.2665 76.6467 48.1874C76.6467 50.9923 74.3163 53.386 71.3322 53.386ZM71.3322 44.7182C69.4025 44.6971 67.8313 46.2577 67.8102 48.1769C67.7891 50.1066 69.3497 51.6778 71.2689 51.6988C73.1986 51.7199 74.7698 50.1593 74.7909 48.2401C74.7909 48.2191 74.7909 48.198 74.7909 48.1874C74.7909 46.2683 73.2513 44.7182 71.3322 44.7182Z" fill="#231F20"/>
<path d="M78.1548 53.133V39.9836H80.0001V53.133H78.1548Z" fill="#231F20"/>
<path d="M9.82425 51.1928C9.88752 51.4564 9.99297 51.72 10.1301 51.952C10.2566 52.1523 10.4042 52.3211 10.5835 52.4792C11.1951 53.0065 11.9859 53.2806 12.7873 53.249C13.6309 53.2595 14.464 53.0381 15.2021 52.6269V50.8659C14.5483 51.2771 13.7996 51.5091 13.0299 51.5407C12.0914 51.5407 11.6169 50.9713 11.6169 49.843V45.024H14.7065V43.3158H11.5958V40.1523H9.77153V43.3158H8V45.024H9.70826V49.3896C9.67663 50.0012 9.7188 50.6023 9.82425 51.1928Z" fill="#231F20"/>
<path d="M21.0015 44.9396C21.5709 44.9396 22.2036 45.256 22.8679 45.8887L23.8697 44.2226C23.0578 43.4739 22.0665 43.1365 21.4866 43.1365H21.36C20.6957 43.1365 19.5991 43.1365 18.6922 44.5917L18.65 44.6549L18.6606 43.3263H16.752V53.0908H18.6606V47.9871C18.6395 47.2173 18.8925 46.4686 19.3565 45.857C19.8205 45.2454 20.3794 44.9396 21.0015 44.9396Z" fill="#231F20"/>
<path d="M60.882 41.0591C60.7977 41.0697 60.7133 41.0064 60.7028 40.9221L60.2177 37.8219C60.0595 36.8096 60.2177 35.966 60.7449 35.2806C61.2722 34.5952 62.042 34.1945 63.0226 34.0363L75.8662 32.0011C75.9506 31.9906 76.0349 32.0539 76.0455 32.1382L77.0367 38.3386C77.0472 38.4229 76.9839 38.5073 76.8996 38.5178L60.882 41.0591Z" fill="#FF671D"/>
<path d="M65.1843 37.7902C65.0789 38.1699 64.7625 38.4546 64.3724 38.5178C63.8557 38.6022 63.2652 38.2964 63.1386 37.5477C63.0332 36.8834 63.3917 36.3351 64.0138 36.2402C64.404 36.1663 64.8047 36.3456 65.0156 36.683L65.6377 36.5881C65.216 35.7867 64.2247 35.4915 63.4339 35.9133C62.8012 36.2507 62.4638 36.9467 62.5903 37.6532C62.7063 38.5389 63.5077 39.1611 64.3935 39.0556C64.4145 39.0556 64.4462 39.0451 64.4673 39.0451C65.1632 38.9396 65.701 38.3913 65.817 37.7059L65.1843 37.7902Z" fill="white"/>
<path d="M67.5886 35.1225C66.6712 35.2596 66.0385 36.1137 66.165 37.0311C66.281 37.9696 67.1351 38.6339 68.0736 38.518C69.0121 38.402 69.6765 37.5478 69.5605 36.6093C69.4445 35.6709 68.5903 35.0065 67.6518 35.1225C67.6308 35.1225 67.6097 35.1225 67.5886 35.1225ZM68.042 37.9169C67.4093 38.0223 66.8188 37.6006 66.7028 36.9784C66.5974 36.3457 67.0192 35.7552 67.6413 35.6392C68.274 35.5338 68.8645 35.9556 68.9699 36.5777C69.0965 37.2104 68.6747 37.8009 68.042 37.9169Z" fill="white"/>
<path d="M75.0335 37.2102L74.7277 35.3226C74.5907 34.4896 74.0318 34.0784 73.2409 34.2049C72.7559 34.2893 72.4712 34.5001 72.3024 34.9009L72.2919 34.9325L72.2708 34.9009C72.0494 34.574 71.5643 34.4791 71.2163 34.5423C70.8578 34.574 70.552 34.7954 70.3938 35.1117H70.3622L70.2884 34.7849L69.7822 34.8692L70.2884 37.9905L70.8472 37.8956L70.5625 36.1451C70.4571 35.5019 70.668 35.1434 71.2058 35.059C71.4483 35.0063 71.6908 35.0801 71.8596 35.2594C72.0072 35.4386 72.0915 35.6601 72.1021 35.8921L72.3868 37.632L72.9457 37.5371L72.661 35.7866C72.5871 35.3437 72.5871 34.8165 73.2726 34.7005C73.7682 34.6161 74.0951 34.9114 74.2005 35.5441L74.4852 37.284L75.0335 37.2102Z" fill="white"/>
<path d="M62.485 39.045C62.485 39.2981 62.2846 39.4984 62.0316 39.4984C61.7785 39.4984 61.5781 39.2981 61.5781 39.045C61.5781 38.7919 61.7785 38.5916 62.0316 38.5916C62.2846 38.5916 62.485 38.7919 62.485 39.045Z" fill="white"/>
</svg>
