<svg width="21" height="20" viewBox="0 0 21 20" fill="none" xmlns="http://www.w3.org/2000/svg">
<g id="user" clip-path="url(#clip0_1553_5367)">
<path id="Vector" d="M7.16669 5.83333C7.16669 6.71739 7.51788 7.56524 8.143 8.19036C8.76812 8.81548 9.61597 9.16667 10.5 9.16667C11.3841 9.16667 12.2319 8.81548 12.857 8.19036C13.4822 7.56524 13.8334 6.71739 13.8334 5.83333C13.8334 4.94928 13.4822 4.10143 12.857 3.47631C12.2319 2.85119 11.3841 2.5 10.5 2.5C9.61597 2.5 8.76812 2.85119 8.143 3.47631C7.51788 4.10143 7.16669 4.94928 7.16669 5.83333Z" stroke="#8A94A6" stroke-width="2" stroke-linecap="round" stroke-linejoin="round"/>
<path id="Vector_2" d="M5.5 17.5V15.8333C5.5 14.9493 5.85119 14.1014 6.47631 13.4763C7.10143 12.8512 7.94928 12.5 8.83333 12.5H12.1667C13.0507 12.5 13.8986 12.8512 14.5237 13.4763C15.1488 14.1014 15.5 14.9493 15.5 15.8333V17.5" stroke="#8A94A6" stroke-width="2" stroke-linecap="round" stroke-linejoin="round"/>
</g>
<defs>
<clipPath id="clip0_1553_5367">
<rect width="20" height="20" fill="white" transform="translate(0.5)"/>
</clipPath>
</defs>
</svg>
