<svg width="21" height="21" viewBox="0 0 21 21" fill="none" xmlns="http://www.w3.org/2000/svg">
<mask id="mask0_634_3975" style="mask-type:alpha" maskUnits="userSpaceOnUse" x="0" y="0" width="21" height="21">
<rect x="0.5" y="0.5" width="20" height="20" fill="#D9D9D9"/>
</mask>
<g mask="url(#mask0_634_3975)">
<path d="M10.5019 13.6475C11.3767 13.6475 12.1196 13.3413 12.7307 12.7289C13.3418 12.1166 13.6474 11.373 13.6474 10.4982C13.6474 9.62337 13.3412 8.88042 12.7289 8.26931C12.1165 7.6582 11.3729 7.35264 10.4981 7.35264C9.62329 7.35264 8.88034 7.65882 8.26923 8.27119C7.65812 8.88356 7.35256 9.62715 7.35256 10.502C7.35256 11.3767 7.65874 12.1197 8.27111 12.7308C8.88348 13.3419 9.62707 13.6475 10.5019 13.6475ZM10.5 12.5001C9.94443 12.5001 9.4722 12.3056 9.08331 11.9167C8.69443 11.5278 8.49998 11.0556 8.49998 10.5001C8.49998 9.94451 8.69443 9.47228 9.08331 9.08339C9.4722 8.69451 9.94443 8.50006 10.5 8.50006C11.0555 8.50006 11.5278 8.69451 11.9166 9.08339C12.3055 9.47228 12.5 9.94451 12.5 10.5001C12.5 11.0556 12.3055 11.5278 11.9166 11.9167C11.5278 12.3056 11.0555 12.5001 10.5 12.5001ZM10.5011 16.0834C8.63206 16.0834 6.92903 15.5756 5.39204 14.5601C3.85504 13.5447 2.70727 12.1913 1.94873 10.5001C2.70727 8.80882 3.85466 7.45546 5.3909 6.43998C6.92712 5.42449 8.62977 4.91675 10.4988 4.91675C12.3679 4.91675 14.0709 5.42449 15.6079 6.43998C17.1449 7.45546 18.2927 8.80882 19.0512 10.5001C18.2927 12.1913 17.1453 13.5447 15.6091 14.5601C14.0728 15.5756 12.3702 16.0834 10.5011 16.0834ZM10.5 15.0001C12.0555 15.0001 13.493 14.5973 14.8125 13.7917C16.1319 12.9862 17.1458 11.8889 17.8541 10.5001C17.1458 9.11117 16.1319 8.01395 14.8125 7.20839C13.493 6.40284 12.0555 6.00006 10.5 6.00006C8.94443 6.00006 7.50692 6.40284 6.18748 7.20839C4.86804 8.01395 3.85415 9.11117 3.14581 10.5001C3.85415 11.8889 4.86804 12.9862 6.18748 13.7917C7.50692 14.5973 8.94443 15.0001 10.5 15.0001Z" fill="#CFD1D2"/>
</g>
</svg>
