<svg width="20" height="20" viewBox="0 0 20 20" fill="none" xmlns="http://www.w3.org/2000/svg">
<mask id="mask0_634_3981" style="mask-type:alpha" maskUnits="userSpaceOnUse" x="0" y="0" width="20" height="20">
<rect width="20" height="20" fill="#D9D9D9"/>
</mask>
<g mask="url(#mask0_634_3981)">
<path d="M12.9984 10.8733L11.9791 9.85414C12.0347 9.28896 11.8656 8.82475 11.4719 8.46152C11.0782 8.09827 10.6362 7.94442 10.1458 7.99997L9.12661 6.98077C9.25908 6.93803 9.39983 6.90598 9.54888 6.88462C9.6979 6.86325 9.84827 6.85256 9.99998 6.85256C10.876 6.85256 11.6196 7.15811 12.2307 7.76923C12.8418 8.38034 13.1474 9.12392 13.1474 9.99997C13.1474 10.1517 13.1367 10.3047 13.1153 10.4591C13.094 10.6135 13.055 10.7516 12.9984 10.8733ZM15.7532 13.6121L14.9583 12.8333C15.4583 12.4444 15.9132 12.0173 16.3229 11.5521C16.7326 11.0868 17.0764 10.5694 17.3541 9.99997C16.6736 8.5972 15.6701 7.4965 14.3437 6.69789C13.0173 5.89928 11.5694 5.49997 9.99998 5.49997C9.63887 5.49997 9.2847 5.52081 8.93748 5.56247C8.59026 5.60414 8.24998 5.67359 7.91665 5.77081L7.02886 4.88302C7.5139 4.70139 8.00668 4.57826 8.50721 4.51362C9.00774 4.44898 9.50533 4.41666 9.99998 4.41666C11.8419 4.41666 13.551 4.91345 15.1274 5.90704C16.7037 6.90063 17.845 8.26495 18.5512 9.99997C18.2564 10.7168 17.8715 11.3702 17.3966 11.9599C16.9217 12.5496 16.3739 13.1004 15.7532 13.6121ZM15.9679 17.516L13.3878 14.9198C12.9188 15.1196 12.3966 15.2801 11.8213 15.4014C11.246 15.5227 10.6389 15.5833 9.99998 15.5833C8.15277 15.5833 6.44365 15.0865 4.87261 14.0929C3.30156 13.0993 2.16027 11.735 1.44873 9.99997C1.77031 9.20831 2.20247 8.48341 2.74521 7.82529C3.28795 7.16718 3.90066 6.59026 4.58336 6.09454L2.484 4.0112L3.25802 3.23718L16.7419 16.7419L15.9679 17.516ZM5.35738 6.88937C4.83388 7.26758 4.32239 7.72004 3.82292 8.24677C3.32345 8.77347 2.93108 9.35788 2.64581 9.99997C3.32637 11.4028 4.32984 12.5034 5.65623 13.3021C6.98262 14.1007 8.43054 14.5 9.99998 14.5C10.4626 14.5 10.9236 14.461 11.383 14.383C11.8424 14.305 12.2377 14.211 12.5689 14.1009L11.3269 12.875C11.1432 12.9604 10.93 13.0272 10.6875 13.0753C10.445 13.1234 10.2158 13.1474 9.99998 13.1474C9.12393 13.1474 8.38034 12.8418 7.76923 12.2307C7.15812 11.6196 6.85256 10.876 6.85256 9.99997C6.85256 9.7895 6.88355 9.56434 6.94552 9.3245C7.00749 9.08464 7.06732 8.86748 7.125 8.67304L5.35738 6.88937Z" fill="#CFD1D2"/>
</g>
</svg>
