<svg width="87" height="32" viewBox="0 0 87 32" fill="none" xmlns="http://www.w3.org/2000/svg">
<g id="Group 37376">
<path id="Path 34" d="M31.5141 2.89717L26.6764 22.6208C26.6098 22.8942 26.4532 23.1373 26.2318 23.311C26.0103 23.4846 25.7369 23.5788 25.4555 23.5783H19.8435C19.5578 23.5788 19.2804 23.4818 19.0573 23.3033C18.8343 23.1248 18.6788 22.8754 18.6167 22.5965L16.9919 15.3597C16.9323 15.0791 16.7783 14.8274 16.5555 14.6465C16.3328 14.4657 16.0548 14.3667 15.7679 14.366C15.481 14.3653 15.2026 14.463 14.979 14.6428C14.7554 14.8225 14.6002 15.0735 14.5392 15.3538L12.8784 22.6016C12.8154 22.8792 12.6598 23.1272 12.4371 23.3047C12.2145 23.4822 11.9381 23.5787 11.6533 23.5783H6.04131C5.7593 23.5788 5.48535 23.4842 5.26367 23.3099C5.042 23.1356 4.88555 22.8916 4.81956 22.6174L0.0362492 2.89383C-0.0091512 2.7091 -0.0119427 2.51647 0.028086 2.3305C0.0681146 2.14454 0.149915 1.97011 0.267298 1.82042C0.38468 1.67073 0.534571 1.5497 0.705628 1.46648C0.876686 1.38327 1.06443 1.34005 1.25465 1.34009H5.28451C5.58147 1.33977 5.86891 1.44481 6.09569 1.63652C6.32247 1.82824 6.47388 2.09419 6.52298 2.38707L7.87686 10.3481C7.92207 10.6374 8.06708 10.9018 8.28675 11.0954C8.50642 11.289 8.7869 11.3997 9.0796 11.4082C9.3723 11.4168 9.65876 11.3226 9.88934 11.1422C10.1199 10.9617 10.2801 10.7062 10.3421 10.42L12.2094 2.31599C12.2733 2.03882 12.4292 1.79146 12.6517 1.61424C12.8741 1.43702 13.1501 1.34038 13.4345 1.34009H18.2111C18.4967 1.3395 18.774 1.4364 18.9971 1.61476C19.2201 1.79312 19.3756 2.04227 19.4379 2.321L21.2275 10.2436C21.2887 10.5298 21.4481 10.7856 21.6781 10.9667C21.9081 11.1478 22.1942 11.2427 22.4868 11.2351C22.7795 11.2274 23.0602 11.1177 23.2804 10.9249C23.5006 10.732 23.6465 10.4682 23.6927 10.1792L25.0307 2.38539C25.0804 2.09284 25.2321 1.82736 25.459 1.63613C25.6859 1.4449 25.9733 1.3403 26.27 1.34093H30.294C30.4848 1.34037 30.6732 1.38336 30.8449 1.4666C31.0166 1.54984 31.167 1.67115 31.2847 1.8213C31.4025 1.97144 31.4844 2.14647 31.5243 2.33305C31.5642 2.51963 31.561 2.71285 31.5149 2.89801" fill="#24262D"/>
<path id="Path 35" d="M35.2067 1.92345C36.8269 0.570211 38.9031 -0.112485 41.0103 0.0151458C42.4384 -0.0243205 43.8568 0.261644 45.158 0.851388C46.2266 1.34095 47.1304 2.12952 47.7604 3.12179C48.3534 4.09503 48.6595 5.21597 48.6435 6.35554C48.7079 7.58263 48.3401 8.79348 47.604 9.77744C46.9972 10.5665 46.1754 11.1635 45.2375 11.4968V11.623C46.3911 11.9665 47.3952 12.6887 48.0877 13.6732C48.7802 14.6576 49.1207 15.8468 49.0541 17.0486C49.0793 18.2779 48.7626 19.4901 48.1392 20.5499C47.5055 21.5802 46.5843 22.4028 45.4892 22.9165C44.1951 23.5122 42.7814 23.8023 41.3573 23.7644C39.1201 23.8891 36.9116 23.2125 35.1281 21.8561C33.8451 20.7296 33.0365 19.1588 32.8653 17.46C32.8381 17.2804 32.85 17.097 32.9 16.9223C32.9501 16.7477 33.0371 16.5858 33.1552 16.4478C33.2733 16.3098 33.4198 16.1988 33.5846 16.1224C33.7494 16.0459 33.9288 16.0059 34.1104 16.0049H37.6168C37.9048 16.0081 38.1832 16.1091 38.4062 16.2915C38.6291 16.4739 38.7834 16.7267 38.8436 17.0084C38.9165 17.3588 39.0754 17.6855 39.306 17.9592C39.5356 18.2011 39.8161 18.3889 40.1272 18.5089C40.4383 18.629 40.7722 18.6783 41.1048 18.6533C41.3707 18.6674 41.6366 18.624 41.8842 18.526C42.1318 18.428 42.3554 18.2777 42.5398 18.0855C42.901 17.6661 43.0872 17.1239 43.0599 16.5711C43.0859 16.2358 43.0289 15.8993 42.894 15.5913C42.7591 15.2832 42.5504 15.0132 42.2864 14.8049C41.5273 14.365 40.6522 14.1669 39.7776 14.2371C39.4848 14.2369 39.204 14.1204 38.9971 13.9133C38.7901 13.7061 38.6738 13.4253 38.6738 13.1324V10.3009C38.6738 10.0164 38.7868 9.74348 38.988 9.54227C39.1893 9.34107 39.4622 9.22803 39.7467 9.22803C40.4472 9.26908 41.1467 9.13365 41.7813 8.83416C42.0731 8.66047 42.3077 8.40525 42.4563 8.09992C42.6048 7.79458 42.6609 7.45246 42.6175 7.11568C42.6584 6.58372 42.4888 6.05697 42.145 5.64891C41.9752 5.48207 41.7724 5.35242 41.5497 5.2682C41.327 5.18398 41.0891 5.14703 40.8514 5.15971C40.5913 5.14089 40.3308 5.19069 40.096 5.30413C39.8612 5.41757 39.6603 5.59067 39.5134 5.80612C39.3714 6.02352 39.2605 6.25967 39.1839 6.50773C39.1048 6.76376 38.9461 6.9879 38.7309 7.1476C38.5157 7.30731 38.2552 7.39425 37.9872 7.39582H34.3914C34.2085 7.39597 34.0278 7.35629 33.8618 7.27954C33.6958 7.20279 33.5485 7.0908 33.4302 6.95138C33.3119 6.81195 33.2253 6.64842 33.1766 6.47216C33.1278 6.29591 33.118 6.11114 33.1479 5.93072C33.3602 4.3995 34.0875 2.98618 35.2101 1.92345" fill="#24262D"/>
<path id="Path 36" d="M70.1601 7.63608L60.0107 31.239C59.9139 31.4651 59.7529 31.6578 59.5476 31.7931C59.3423 31.9283 59.1017 32.0003 58.8558 32H54.9255C54.7142 32.0009 54.5061 31.9483 54.3206 31.8473C54.135 31.7463 53.978 31.6 53.864 31.4221C53.7501 31.2442 53.6829 31.0404 53.6688 30.8296C53.6547 30.6188 53.694 30.4078 53.7832 30.2163L56.9584 23.3323C57.0318 23.1726 57.071 22.9992 57.0734 22.8233C57.0759 22.6475 57.0415 22.4731 56.9726 22.3113L50.6882 7.63441C50.6047 7.44311 50.5703 7.23401 50.588 7.02604C50.6058 6.81808 50.6751 6.61782 50.7898 6.44343C50.9045 6.26904 51.0609 6.12603 51.2448 6.02734C51.4287 5.92866 51.6344 5.87743 51.8431 5.8783H55.9407C56.1975 5.87778 56.4482 5.95609 56.6591 6.10265C56.8699 6.2492 57.0307 6.45695 57.1198 6.69782L59.3383 12.6769C59.4265 12.9204 59.5878 13.1305 59.8002 13.2786C60.0125 13.4267 60.2655 13.5055 60.5243 13.5041C60.7832 13.5027 61.0354 13.4213 61.2461 13.2709C61.4569 13.1206 61.616 12.9087 61.7015 12.6644L63.8348 6.7112C63.9213 6.46639 64.0817 6.25448 64.2938 6.1047C64.5059 5.95492 64.7593 5.87464 65.0189 5.87495H69.0061C69.2149 5.87395 69.4206 5.92507 69.6047 6.0237C69.7887 6.12232 69.9452 6.26532 70.06 6.43974C70.1748 6.61415 70.2442 6.81445 70.262 7.02249C70.2798 7.23052 70.2453 7.4397 70.1618 7.63106" fill="#24262D"/>
<path id="Path 37" d="M81.9514 18.4367H85.6618C85.7798 18.4367 85.8966 18.46 86.0055 18.5051C86.1145 18.5502 86.2135 18.6164 86.2969 18.6998C86.3803 18.7832 86.4465 18.8822 86.4916 18.9911C86.5367 19.1001 86.5599 19.2169 86.5599 19.3348V22.6798C86.5599 22.9181 86.4654 23.1466 86.2969 23.3152C86.1285 23.4837 85.9001 23.5786 85.6618 23.5788H73.1065C72.8681 23.5788 72.6394 23.4841 72.4708 23.3155C72.3022 23.1469 72.2075 22.9182 72.2075 22.6798V19.528C72.2077 18.9882 72.4103 18.4681 72.7753 18.0704L77.3078 13.1299C77.4741 12.9505 77.5844 12.7264 77.625 12.4852C77.6656 12.2439 77.6348 11.996 77.5363 11.7721C77.4379 11.5481 77.276 11.3578 77.0708 11.2247C76.8656 11.0915 76.6259 11.0213 76.3812 11.0226H73.1692C72.9309 11.0226 72.7024 10.928 72.5338 10.7596C72.3653 10.5912 72.2705 10.3627 72.2702 10.1245V7.13992C72.2702 6.80724 72.4024 6.48819 72.6376 6.25295C72.8729 6.01771 73.1919 5.88556 73.5246 5.88556H85.4059C85.6444 5.88556 85.873 5.98027 86.0416 6.14886C86.2102 6.31745 86.3049 6.5461 86.3049 6.78452V10.4163C86.3041 10.6472 86.2142 10.8689 86.054 11.0351L81.0366 16.3168C80.8658 16.4946 80.7512 16.7188 80.7071 16.9613C80.663 17.2039 80.6914 17.454 80.7886 17.6806C80.8859 17.9071 81.0477 18.0999 81.2539 18.235C81.4601 18.3701 81.7016 18.4414 81.9481 18.4401" fill="#24262D"/>
</g>
</svg>
