<svg width="72" height="72" viewBox="0 0 72 72" fill="none" xmlns="http://www.w3.org/2000/svg">
<g id="whatsapp">
<path id="border" fill-rule="evenodd" clip-rule="evenodd" d="M36 69.75C53.397 69.75 67.5 55.647 67.5 38.25C67.5 20.853 53.397 6.75 36 6.75C18.603 6.75 4.5 20.853 4.5 38.25C4.5 43.8995 5.98724 49.2016 8.59157 53.7862L4.5 69.75L20.9584 65.9335C25.4281 68.3672 30.5526 69.75 36 69.75ZM36 64.9038C50.7205 64.9038 62.6538 52.9705 62.6538 38.25C62.6538 23.5295 50.7205 11.5962 36 11.5962C21.2795 11.5962 9.34615 23.5295 9.34615 38.25C9.34615 43.9336 11.1251 49.2018 14.1566 53.528L11.7692 62.4808L20.8798 60.2031C25.1761 63.1678 30.3853 64.9038 36 64.9038Z" fill="#BFC8D0"/>
<path id="bg" d="M63 36C63 50.9117 50.9117 63 36 63C30.3124 63 25.0355 61.2414 20.6835 58.2382L11.4545 60.5455L13.873 51.4764C10.8021 47.094 9 41.7575 9 36C9 21.0883 21.0883 9 36 9C50.9117 9 63 21.0883 63 36Z" fill="url(#paint0_linear_396_759)"/>
<path id="border_2" fill-rule="evenodd" clip-rule="evenodd" d="M36 67.5C53.397 67.5 67.5 53.397 67.5 36C67.5 18.603 53.397 4.5 36 4.5C18.603 4.5 4.5 18.603 4.5 36C4.5 41.6495 5.98724 46.9516 8.59157 51.5362L4.5 67.5L20.9584 63.6835C25.4281 66.1172 30.5526 67.5 36 67.5ZM36 62.6538C50.7205 62.6538 62.6538 50.7205 62.6538 36C62.6538 21.2795 50.7205 9.34615 36 9.34615C21.2795 9.34615 9.34615 21.2795 9.34615 36C9.34615 41.6836 11.1251 46.9518 14.1566 51.278L11.7692 60.2308L20.8798 57.9531C25.1761 60.9178 30.3853 62.6538 36 62.6538Z" fill="white"/>
<path id="phone" d="M28.125 21.3751C27.3761 19.8708 26.2272 20.004 25.0665 20.004C22.9922 20.004 19.7578 22.4886 19.7578 27.1128C19.7578 30.9025 21.4278 35.0509 27.0549 41.2566C32.4856 47.2456 39.6211 50.3437 45.545 50.2382C51.4688 50.1328 52.6876 45.0351 52.6876 43.3136C52.6876 42.5506 52.2141 42.1698 51.8879 42.0664C49.8692 41.0976 46.146 39.2924 45.2989 38.9533C44.4517 38.6141 44.0094 39.0729 43.7344 39.3224C42.9662 40.0545 41.4433 42.2121 40.9219 42.6974C40.4005 43.1827 39.6231 42.9371 39.2996 42.7536C38.1092 42.276 34.8816 40.8403 32.3088 38.3463C29.127 35.2619 28.9402 34.2007 28.3408 33.2561C27.8612 32.5004 28.2131 32.0367 28.3887 31.8341C29.0743 31.0431 30.0209 29.8218 30.4454 29.215C30.8699 28.6081 30.5329 27.6867 30.3307 27.1128C29.461 24.6446 28.7242 22.5785 28.125 21.3751Z" fill="white"/>
</g>
<defs>
<linearGradient id="paint0_linear_396_759" x1="59.625" y1="15.75" x2="9" y2="63" gradientUnits="userSpaceOnUse">
<stop stop-color="#5BD066"/>
<stop offset="1" stop-color="#27B43E"/>
</linearGradient>
</defs>
</svg>
