<svg width="271" height="80" viewBox="0 0 271 80" fill="none" xmlns="http://www.w3.org/2000/svg">
<g clip-path="url(#clip0_431_957)">
<path d="M264.611 47.7683C264.457 48.5387 264.188 49.1934 263.821 49.771C263.456 50.348 262.974 50.8109 262.359 51.176C261.762 51.5232 261.012 51.7149 260.126 51.7149C259.26 51.7149 258.508 51.5422 257.912 51.176C257.317 50.8276 256.809 50.3468 256.43 49.771C256.063 49.194 255.794 48.5387 255.621 47.7683C255.451 47.0036 255.367 46.2224 255.371 45.4391C255.371 44.6306 255.448 43.8216 255.602 43.0719C255.756 42.3014 256.025 41.6277 256.392 41.0502C256.757 40.4525 257.239 39.9913 257.854 39.6066C258.451 39.2404 259.202 39.0481 260.087 39.0481C260.953 39.0481 261.685 39.2404 262.282 39.6066C262.88 39.9764 263.386 40.4764 263.764 41.0692C264.15 41.6658 264.419 42.3585 264.592 43.1099C264.765 43.8798 264.842 44.6496 264.842 45.4391C264.842 46.2285 264.765 46.9984 264.611 47.7683ZM269.732 41.5506C269.366 40.2607 268.827 39.1442 268.096 38.1624C267.344 37.2002 266.421 36.4102 265.304 35.8332C264.187 35.2557 262.84 34.9476 261.281 34.9476C260.049 34.9476 258.932 35.1981 257.912 35.6795C256.891 36.1609 256.044 36.9498 255.389 38.0087H255.312V35.4866H250.153V62.1879H255.582V52.8119H255.659C256.299 53.7539 257.175 54.5109 258.2 55.0069C259.24 55.5073 260.357 55.7578 261.588 55.7578C263.032 55.7578 264.303 55.4693 265.4 54.9107C266.459 54.3682 267.386 53.5991 268.115 52.6581C268.846 51.7149 269.385 50.6365 269.732 49.4048C270.098 48.1725 270.271 46.9028 270.271 45.5738C270.271 44.1688 270.098 42.8214 269.732 41.531V41.5506ZM242.954 47.7683C242.8 48.5387 242.53 49.1934 242.164 49.771C241.798 50.3485 241.317 50.8109 240.701 51.176C240.104 51.5232 239.354 51.7149 238.469 51.7149C237.601 51.7149 236.871 51.5422 236.254 51.176C235.659 50.8273 235.151 50.3466 234.771 49.771C234.406 49.194 234.137 48.5387 233.964 47.7683C233.794 47.0037 233.71 46.2224 233.713 45.4391C233.713 44.6306 233.79 43.8216 233.944 43.0719C234.099 42.3014 234.367 41.6277 234.733 41.0502C235.099 40.4525 235.58 39.9913 236.196 39.6066C236.793 39.2404 237.544 39.0481 238.429 39.0481C239.296 39.0481 240.027 39.2404 240.624 39.6066C241.222 39.9763 241.729 40.4763 242.106 41.0692C242.491 41.6658 242.761 42.3585 242.935 43.1099C243.107 43.8798 243.184 44.6496 243.184 45.4391C243.184 46.2285 243.107 46.9984 242.954 47.7683ZM246.437 38.1624C245.706 37.2002 244.763 36.4102 243.646 35.8332C242.53 35.2557 241.182 34.9476 239.623 34.9476C238.39 34.9476 237.274 35.1981 236.253 35.6795C235.234 36.1609 234.387 36.9498 233.732 38.0087H233.654V35.4866H228.495V62.1879H233.924V52.8119H234.001C234.641 53.7539 235.518 54.5109 236.543 55.0069C237.582 55.5073 238.698 55.7578 239.93 55.7578C241.393 55.7578 242.645 55.4693 243.743 54.9107C244.802 54.3679 245.728 53.5989 246.456 52.6581C247.189 51.7149 247.728 50.6365 248.094 49.4048C248.449 48.1587 248.631 46.8695 248.633 45.5738C248.633 44.1688 248.459 42.8214 248.094 41.531C247.728 40.2417 247.189 39.1247 246.437 38.1434V38.1624ZM210.707 44.7078L214.268 34.6776H214.345L217.792 44.7078H210.707ZM211.284 27.9399L200.947 55.2568H206.992L209.129 49.1738H219.351L221.411 55.2568H227.648L217.426 27.9399H211.265H211.284ZM200.504 46.5942C200.138 45.9781 199.676 45.4391 199.079 45.0158C198.502 44.5926 197.827 44.2644 197.077 43.9955C196.316 43.7456 195.545 43.5273 194.766 43.3413C193.996 43.1675 193.246 42.9942 192.514 42.8404C191.782 42.6866 191.108 42.5128 190.55 42.3205C189.973 42.1281 189.511 41.8782 189.164 41.5696C188.798 41.2615 188.625 40.8769 188.625 40.3765C188.625 39.9722 188.721 39.6446 188.933 39.3941C189.145 39.1442 189.395 38.9709 189.684 38.8362C189.973 38.7014 190.3 38.6243 190.666 38.5862C190.998 38.5494 191.332 38.5302 191.667 38.5286C192.629 38.5286 193.477 38.721 194.189 39.0866C194.902 39.4523 195.306 40.1646 195.363 41.2039H200.523C200.426 39.9717 200.1 38.9709 199.58 38.1619C199.06 37.3529 198.405 36.7183 197.616 36.2369C196.827 35.7556 195.922 35.4095 194.921 35.1976C193.92 34.9857 192.88 34.8895 191.802 34.8895C190.725 34.8895 189.685 34.9862 188.664 35.178C187.644 35.3703 186.72 35.698 185.912 36.1793C185.084 36.6607 184.429 37.2964 183.948 38.1043C183.447 38.9128 183.197 39.9722 183.197 41.242C183.197 42.1086 183.37 42.8399 183.736 43.4364C184.083 44.0341 184.564 44.5339 185.141 44.9382C185.739 45.3234 186.393 45.651 187.144 45.9009C187.895 46.1508 188.665 46.3633 189.454 46.536C191.399 46.9403 192.901 47.3445 193.998 47.7487C195.075 48.153 195.615 48.7691 195.615 49.5775C195.615 50.0589 195.499 50.4631 195.268 50.7902C195.042 51.1099 194.746 51.3733 194.402 51.5601C194.055 51.7524 193.67 51.8877 193.247 51.9833C192.849 52.0738 192.442 52.119 192.034 52.1181C191.495 52.1181 190.975 52.061 190.494 51.9257C189.993 51.791 189.55 51.5976 189.166 51.3286C188.781 51.0592 188.473 50.7125 188.223 50.2893C187.972 49.866 187.856 49.3651 187.856 48.7876H182.697C182.755 50.1154 183.044 51.2129 183.602 52.0985C184.141 52.9847 184.854 53.6774 185.701 54.2164C186.548 54.7553 187.529 55.14 188.627 55.3709C189.724 55.6024 190.84 55.7181 191.995 55.7181C193.112 55.7181 194.228 55.6024 195.307 55.3899C196.385 55.1786 197.348 54.7934 198.195 54.2544C199.042 53.7154 199.715 53.0031 200.235 52.1366C200.755 51.2515 201.024 50.1736 201.024 48.8642C201.024 47.9405 200.851 47.1706 200.485 46.554L200.504 46.5942ZM178.037 29.5574H172.608V35.4866H169.316V39.1247H172.608V50.7913C172.608 51.7926 172.781 52.5821 173.109 53.1977C173.436 53.8143 173.898 54.2756 174.476 54.6228C175.053 54.9499 175.708 55.1808 176.459 55.2965C177.249 55.4141 178.047 55.4718 178.846 55.4693C179.385 55.4693 179.924 55.4502 180.502 55.4312C181.011 55.414 181.519 55.3624 182.022 55.2769V51.0608C181.757 51.1207 181.486 51.1593 181.214 51.176C180.92 51.199 180.624 51.2119 180.329 51.2145C179.405 51.2145 178.807 51.0608 178.5 50.7522C178.192 50.4447 178.038 49.828 178.038 48.9239V39.1247H182.022V35.4866H178.038V29.5574H178.037ZM162.462 47.6145C162.462 47.922 162.424 48.3268 162.366 48.8468C162.301 49.3786 162.124 49.8905 161.846 50.3485C161.558 50.8494 161.134 51.2727 160.537 51.6389C159.96 52.004 159.113 52.1778 158.054 52.1778C157.631 52.1778 157.207 52.1387 156.784 52.0621C156.379 51.9844 156.014 51.8497 155.706 51.6579C155.398 51.465 155.167 51.2151 154.974 50.8685C154.801 50.5414 154.704 50.1371 154.704 49.6362C154.704 49.1163 154.801 48.712 154.974 48.3659C155.147 48.0378 155.397 47.7683 155.687 47.5379C155.975 47.326 156.322 47.1533 156.726 47.0185C157.13 46.8838 157.515 46.7871 157.939 46.7099C158.373 46.6351 158.81 46.571 159.248 46.5176C159.69 46.46 160.095 46.4018 160.499 46.3252C160.904 46.2486 161.269 46.1519 161.616 46.0367C161.962 45.9216 162.251 45.7673 162.482 45.5554V47.577L162.462 47.6145ZM167.891 50.8679V40.5683C167.891 39.3751 167.622 38.4124 167.083 37.6811C166.544 36.9492 165.85 36.3912 165.023 35.987C164.176 35.5828 163.252 35.3133 162.231 35.1595C161.23 35.0226 160.22 34.9519 159.21 34.9476C158.111 34.9476 157.015 35.0634 155.937 35.2753C154.859 35.4872 153.877 35.8523 153.01 36.3728C152.157 36.8803 151.427 37.5708 150.873 38.3944C150.315 39.2415 149.988 40.2999 149.911 41.5707H155.34C155.436 40.4933 155.802 39.7424 156.417 39.28C157.034 38.8177 157.862 38.5873 158.94 38.5873C159.421 38.5873 159.883 38.6254 160.307 38.6835C160.701 38.7353 161.081 38.8663 161.424 39.0687C161.751 39.261 162.001 39.5305 162.194 39.8772C162.386 40.2238 162.482 40.6851 162.482 41.2822C162.501 41.8402 162.348 42.2645 161.982 42.572C161.616 42.8605 161.134 43.092 160.519 43.2457C159.903 43.3995 159.21 43.5152 158.421 43.5924C157.631 43.6695 156.823 43.7657 156.014 43.9004C155.206 44.0352 154.397 44.2079 153.588 44.4198C152.78 44.6317 152.067 44.9588 151.451 45.4021C150.816 45.8444 150.315 46.4219 149.911 47.1342C149.507 47.8661 149.314 48.7903 149.314 49.9068C149.314 50.9271 149.487 51.8127 149.834 52.544C150.159 53.257 150.647 53.8836 151.259 54.3734C151.894 54.8677 152.62 55.2338 153.395 55.4513C154.204 55.6822 155.09 55.7974 156.033 55.7974C157.265 55.7974 158.459 55.6247 159.633 55.2585C160.794 54.904 161.847 54.2618 162.694 53.3916C162.713 53.7187 162.771 54.0452 162.829 54.3734C162.886 54.6809 162.982 55.0085 163.079 55.3166H168.585C168.335 54.9124 168.142 54.2957 168.046 53.4872C167.944 52.6377 167.893 51.7828 167.892 50.9271V50.8679H167.891ZM145.522 37.1997C144.983 36.507 144.251 35.9484 143.327 35.5632C142.403 35.159 141.21 34.9661 139.746 34.9661C138.726 34.9661 137.687 35.2356 136.609 35.7556C135.531 36.2755 134.664 37.1225 133.971 38.2581H133.856V27.959H128.427V55.2764H133.856V44.9001C133.856 42.8784 134.183 41.4348 134.857 40.5492C135.512 39.6636 136.59 39.2404 138.072 39.2404C139.362 39.2404 140.286 39.6446 140.786 40.4525C141.287 41.261 141.557 42.4742 141.557 44.1101V55.2764H146.985V43.1099C146.985 41.8776 146.87 40.7617 146.658 39.7603C146.446 38.759 146.061 37.893 145.522 37.1997ZM116.818 46.7871H116.741L112.082 27.9595H106.461L101.724 46.5561H101.647L97.3154 27.9595H91.3096L98.5476 55.2769H104.631L109.174 36.6797H109.252L113.872 55.2769H119.84L123.112 43.1485L127.193 27.9595H121.302L116.818 46.7871Z" fill="#272525"/>
<path d="M40.3906 71.7172C33.7486 71.7172 27.5499 69.7151 22.3715 66.3079L9.78068 70.3306L13.8621 58.1642C9.93498 52.7734 7.62534 46.1319 7.62534 38.9704C7.62534 20.9127 22.3139 6.22415 40.3716 6.22415C58.4293 6.22415 73.1178 20.9127 73.1178 38.9704C73.1178 57.0275 58.4293 71.7166 40.3716 71.7166H40.3906V71.7172ZM40.3906 0.0249023C18.8861 0.0249023 1.44511 17.4675 1.44511 38.9709C1.44511 46.3247 3.48581 53.2167 7.02769 59.0883L0.000976562 79.9762L21.563 73.0652C27.3263 76.252 33.805 77.9213 40.3906 77.9164C61.8945 77.9164 79.3361 60.4749 79.3361 38.9709C79.3356 17.4675 61.8945 0.0249023 40.3906 0.0249023Z" fill="#FEFEFE"/>
<path d="M40.3898 6.22412C22.3321 6.22412 7.64355 20.9127 7.64355 38.9704C7.64355 46.1318 9.95374 52.7733 13.8808 58.1641L9.79944 70.3306L22.3897 66.3079C27.5681 69.7346 33.7478 71.7172 40.4088 71.7172C58.4665 71.7172 73.1551 57.028 73.1551 38.9709C73.1551 20.9132 58.4665 6.22466 40.4088 6.22466H40.3898V6.22412Z" fill="url(#paint0_linear_431_957)"/>
<path d="M31.246 22.8579C30.6109 21.3371 30.1295 21.2795 29.1673 21.2404C28.8019 21.2169 28.4359 21.2042 28.0698 21.2024C26.818 21.2024 25.5091 21.568 24.7197 22.3765C23.7575 23.3583 21.3701 25.6489 21.3701 30.3464C21.3701 35.0439 24.7968 39.5871 25.2586 40.2228C25.74 40.8574 31.9393 50.6371 41.5647 54.6229C49.0918 57.7415 51.3254 57.4525 53.0384 57.0868C55.5409 56.5479 58.6791 54.699 59.4686 52.4665C60.258 50.2329 60.258 48.3269 60.0266 47.9227C59.7957 47.5185 59.16 47.2881 58.1978 46.8062C57.2355 46.3248 52.557 44.0146 51.6714 43.7066C50.8049 43.3795 49.9774 43.4952 49.3232 44.4194C48.399 45.7092 47.4944 47.0186 46.7626 47.8075C46.185 48.4237 45.2413 48.5008 44.4524 48.1732C43.3935 47.7309 40.4291 46.6905 36.771 43.4371C33.9408 40.9156 32.0159 37.7779 31.4579 36.8347C30.8994 35.8725 31.4003 35.3134 31.8425 34.794C32.3239 34.1969 32.7857 33.7737 33.2671 33.2151C33.7485 32.6571 34.018 32.3681 34.3261 31.7134C34.6537 31.0783 34.4222 30.4236 34.1913 29.9422C33.9604 29.4608 32.0354 24.7633 31.246 22.8579Z" fill="#FEFEFE"/>
</g>
<defs>
<linearGradient id="paint0_linear_431_957" x1="-238.503" y1="-103.489" x2="-238.503" y2="-101.086" gradientUnits="userSpaceOnUse">
<stop stop-color="#6EBF61"/>
<stop offset="0.231" stop-color="#50A557"/>
<stop offset="0.522" stop-color="#2A904F"/>
<stop offset="0.812" stop-color="#50A557"/>
<stop offset="1" stop-color="#6EBF63"/>
</linearGradient>
<clipPath id="clip0_431_957">
<rect width="270.27" height="80" fill="white"/>
</clipPath>
</defs>
</svg>
