<svg width="20" height="20" viewBox="0 0 20 20" fill="none" xmlns="http://www.w3.org/2000/svg">
<path d="M2.8 17.4C2.56332 17.4035 2.32843 17.3584 2.10984 17.2676C1.89124 17.1768 1.69356 17.0421 1.529 16.872C1.3586 16.7074 1.22374 16.5096 1.13276 16.2908C1.04178 16.072 0.996593 15.8369 1 15.6V4.8C0.996552 4.56323 1.04172 4.32827 1.13271 4.10965C1.2237 3.89103 1.35858 3.69341 1.529 3.529C1.69341 3.35858 1.89103 3.2237 2.10965 3.13271C2.32827 3.04172 2.56323 2.99655 2.8 3H17.2C17.677 3.00132 18.1341 3.19139 18.4713 3.52867C18.8086 3.86595 18.9987 4.32302 19 4.8V15.6C19 16.0774 18.8104 16.5352 18.4728 16.8728C18.1352 17.2104 17.6774 17.4 17.2 17.4H2.8ZM17.2 6.6L10.472 10.807C10.3981 10.8512 10.3183 10.8849 10.235 10.907C10.081 10.9527 9.91702 10.9527 9.763 10.907C9.67972 10.8849 9.59994 10.8512 9.526 10.807L2.8 6.6V15.6H17.2V6.6ZM10 9.3L17.2 4.8H2.8L10 9.3ZM2.8 6.6V15.6V6.6Z" fill="#1D2939"/>
</svg>
