<svg width="72" height="72" viewBox="0 0 72 72" fill="none" xmlns="http://www.w3.org/2000/svg">
<g id="youtube">
<path id="bg" d="M5.05014 22.3675C5.33933 17.9152 8.91888 14.426 13.375 14.2053C19.8279 13.8856 29.0508 13.5 36 13.5C42.9492 13.5 52.1721 13.8856 58.625 14.2053C63.0811 14.426 66.6607 17.9152 66.9499 22.3675C67.2269 26.6331 67.5 31.8817 67.5 36C67.5 40.1183 67.2269 45.3669 66.9499 49.6325C66.6607 54.0848 63.0811 57.574 58.625 57.7947C52.1721 58.1144 42.9492 58.5 36 58.5C29.0508 58.5 19.8279 58.1144 13.375 57.7947C8.91888 57.574 5.33933 54.0848 5.05014 49.6325C4.77307 45.3669 4.5 40.1183 4.5 36C4.5 31.8817 4.77307 26.6331 5.05014 22.3675Z" fill="#FC0D1B"/>
<path id="play" d="M29.25 27V45L47.25 36L29.25 27Z" fill="white"/>
</g>
</svg>
