<svg width="356" height="70" viewBox="0 0 356 70" fill="none" xmlns="http://www.w3.org/2000/svg">
<path d="M97.9177 10.9532C96.7647 6.67083 93.3882 3.29436 89.1059 2.14142C81.2824 0.000244141 49.9882 0.000244141 49.9882 0.000244141C49.9882 0.000244141 18.6941 0.000244141 10.8706 2.05907C6.67059 3.21201 3.21177 6.67083 2.05882 10.9532C0 18.7767 0 35.0002 0 35.0002C0 35.0002 0 51.3061 2.05882 59.0473C3.21177 63.3297 6.58824 66.7061 10.8706 67.8591C18.7765 70.0002 49.9882 70.0002 49.9882 70.0002C49.9882 70.0002 81.2824 70.0002 89.1059 67.9414C93.3882 66.7885 96.7647 63.412 97.9177 59.1297C99.9765 51.3061 99.9765 35.0826 99.9765 35.0826C99.9765 35.0826 100.059 18.7767 97.9177 10.9532Z" fill="#FF0000"/>
<path d="M40.0234 20.012V49.9884L66.047 35.0002L40.0234 20.012Z" fill="white"/>
<path d="M168.089 67.7157C165.896 66.2535 164.342 63.9689 163.428 60.7705C162.515 57.6634 162.058 53.4598 162.058 48.3423V41.3057C162.058 36.0969 162.606 31.8932 163.611 28.6948C164.708 25.4963 166.353 23.2117 168.546 21.7496C170.83 20.2875 173.755 19.5564 177.41 19.5564C180.974 19.5564 183.898 20.2875 186.092 21.7496C188.285 23.2117 189.838 25.5877 190.844 28.6948C191.849 31.8018 192.397 36.0055 192.397 41.3057V48.3423C192.397 53.5512 191.94 57.6634 190.935 60.8619C189.93 63.9689 188.376 66.3449 186.183 67.807C183.99 69.2692 180.974 70.0003 177.227 70.0003C173.389 69.9089 170.282 69.1778 168.089 67.7157ZM180.426 60.0394C181.065 58.4859 181.34 55.8358 181.34 52.2718V37.1021C181.34 33.6295 181.065 31.0708 180.426 29.4258C179.786 27.7809 178.781 27.0499 177.227 27.0499C175.765 27.0499 174.669 27.8723 174.12 29.4258C173.481 31.0708 173.206 33.6295 173.206 37.1021V52.2718C173.206 55.8358 173.481 58.4859 174.12 60.0394C174.669 61.5929 175.765 62.4154 177.319 62.4154C178.781 62.4154 179.786 61.6843 180.426 60.0394Z" fill="#282828"/>
<path d="M336.783 48.4336V50.9009C336.783 54.008 336.875 56.384 337.057 57.9375C337.24 59.491 337.606 60.679 338.245 61.3187C338.794 62.0498 339.707 62.4153 340.987 62.4153C342.632 62.4153 343.728 61.7756 344.368 60.4962C345.008 59.2169 345.282 57.115 345.373 54.0994L354.786 54.6477C354.877 55.1046 354.877 55.6529 354.877 56.384C354.877 60.8618 353.689 64.243 351.222 66.4362C348.754 68.6294 345.282 69.726 340.804 69.726C335.412 69.726 331.666 67.9897 329.472 64.6085C327.279 61.2273 326.183 56.0184 326.183 48.8905V40.3918C326.183 33.0811 327.279 27.7808 329.564 24.3996C331.848 21.0184 335.687 19.3735 341.078 19.3735C344.825 19.3735 347.749 20.1046 349.76 21.4754C351.77 22.8461 353.141 25.0393 353.963 27.8722C354.786 30.7965 355.151 34.8174 355.151 39.9349V48.2508H336.783V48.4336ZM338.154 27.9636C337.606 28.6947 337.24 29.7913 337.057 31.3448C336.875 32.8983 336.783 35.2743 336.783 38.4728V41.9453H344.825V38.4728C344.825 35.3657 344.734 32.9897 344.551 31.3448C344.368 29.6999 343.911 28.6033 343.363 27.9636C342.814 27.3239 341.901 26.9584 340.804 26.9584C339.525 26.867 338.702 27.2325 338.154 27.9636Z" fill="#282828"/>
<path d="M141.405 47.5195L128.977 2.46729H139.851L144.238 22.8459C145.334 27.872 146.157 32.167 146.705 35.731H146.979C147.345 33.1723 148.167 28.9686 149.447 22.9373L154.016 2.46729H164.89L152.279 47.5195V69.0861H141.496V47.5195H141.405Z" fill="#282828"/>
<path d="M227.762 20.4702V69.1778H219.172L218.258 63.2378H217.984C215.7 67.7156 212.136 70.0002 207.475 70.0002C204.277 70.0002 201.901 68.9036 200.347 66.8018C198.794 64.7 198.062 61.4102 198.062 56.841V20.4702H209.029V56.2013C209.029 58.3945 209.303 59.948 209.76 60.8619C210.217 61.7757 211.039 62.2326 212.136 62.2326C213.049 62.2326 213.963 61.9585 214.877 61.3188C215.791 60.7705 216.431 60.0394 216.796 59.1256V20.4702H227.762Z" fill="#282828"/>
<path d="M283.963 20.4702V69.1778H275.373L274.46 63.2378H274.185C271.901 67.7156 268.337 70.0002 263.676 70.0002C260.478 70.0002 258.102 68.9036 256.548 66.8018C254.995 64.7 254.264 61.4102 254.264 56.841V20.4702H265.23V56.2013C265.23 58.3945 265.504 59.948 265.961 60.8619C266.418 61.7757 267.24 62.2326 268.337 62.2326C269.251 62.2326 270.164 61.9585 271.078 61.3188C271.992 60.7705 272.632 60.0394 272.997 59.1256V20.4702H283.963Z" fill="#282828"/>
<path d="M257.554 11.3315H246.679V69.0861H235.987V11.3315H225.112V2.46729H257.554V11.3315Z" fill="#282828"/>
<path d="M320.243 28.2376C319.603 25.1305 318.506 22.9373 317.044 21.5666C315.582 20.1958 313.48 19.4648 310.922 19.4648C308.911 19.4648 306.992 20.0131 305.256 21.201C303.519 22.2976 302.149 23.8512 301.235 25.6789H301.143V0H290.543V69.0862H299.59L300.687 64.517H300.961C301.783 66.1619 303.063 67.4412 304.799 68.4465C306.535 69.3603 308.363 69.9086 310.465 69.9086C314.211 69.9086 316.862 68.1723 318.598 64.7911C320.334 61.4099 321.248 56.0183 321.248 48.799V41.1227C321.157 35.5483 320.882 31.2533 320.243 28.2376ZM310.19 48.0679C310.19 51.6319 310.008 54.3734 309.734 56.3838C309.459 58.3943 308.911 59.8564 308.271 60.6788C307.54 61.5013 306.627 61.9582 305.53 61.9582C304.616 61.9582 303.794 61.7755 303.063 61.3185C302.331 60.8616 301.692 60.2219 301.235 59.3995V31.8016C301.6 30.5222 302.24 29.4256 303.154 28.5117C304.068 27.6893 305.073 27.2324 306.078 27.2324C307.175 27.2324 308.089 27.6893 308.637 28.5117C309.277 29.4256 309.642 30.8877 309.916 32.8982C310.19 35 310.282 37.9243 310.282 41.671V48.0679H310.19Z" fill="#282828"/>
</svg>
